<?xml version="1.0" encoding="UTF-8" standalone="no"?>
<!DOCTYPE svg PUBLIC "-//W3C//DTD SVG 1.1//EN"
 "http://www.w3.org/Graphics/SVG/1.1/DTD/svg11.dtd">
<!-- Generated by graphviz version 15.0.0 (20260523.1842)
 -->
<!-- Title: trajectory Pages: 1 -->
<svg width="10426pt" height="395pt"
 viewBox="0.00 0.00 10426.00 395.00" xmlns="http://www.w3.org/2000/svg" xmlns:xlink="http://www.w3.org/1999/xlink">
<g id="graph0" class="graph" transform="scale(1 1) rotate(0) translate(4 390.75)">
<title>trajectory</title>
<polygon fill="white" stroke="none" points="-4,4 -4,-390.75 10421.82,-390.75 10421.82,4 -4,4"/>
<text xml:space="preserve" text-anchor="middle" x="5208.91" y="-367.55" font-family="Times New Roman,serif" font-size="16.00">HELIX trajectory: fac291d_2 | solved=False | steps=10 errors=1 recoveries=0</text>
<!-- s0 -->
<g id="node1" class="node">
<title>s0</title>
<polygon fill="#bfdbfe" stroke="black" points="120.25,-252 0,-252 0,-216 120.25,-216 120.25,-252"/>
<text xml:space="preserve" text-anchor="middle" x="60.12" y="-228.57" font-family="Helvetica,sans-Serif" font-size="14.00">s0: Task received</text>
</g>
<!-- d0 -->
<g id="node5" class="node">
<title>d0</title>
<ellipse fill="#e2e8f0" stroke="black" cx="374.56" cy="-271" rx="111.94" ry="18"/>
<text xml:space="preserve" text-anchor="middle" x="374.56" y="-265.57" font-family="Helvetica,sans-Serif" font-size="14.00">d0: Plan: choose strategy</text>
</g>
<!-- s0&#45;&gt;d0 -->
<g id="edge1" class="edge">
<title>s0&#45;&gt;d0</title>
<path fill="none" stroke="#94a3b8" d="M120.63,-241.05C163.34,-246.1 221.96,-253.05 272.01,-258.97"/>
<polygon fill="#94a3b8" stroke="#94a3b8" points="271.36,-262.42 281.71,-260.12 272.19,-255.47 271.36,-262.42"/>
<text xml:space="preserve" text-anchor="middle" x="158.5" y="-250.22" font-family="Times New Roman,serif" font-size="14.00">decides</text>
</g>
<!-- d1 -->
<g id="node9" class="node">
<title>d1</title>
<ellipse fill="#e2e8f0" stroke="black" cx="374.56" cy="-207" rx="177.81" ry="18"/>
<text xml:space="preserve" text-anchor="middle" x="374.56" y="-201.57" font-family="Helvetica,sans-Serif" font-size="14.00">d1: Bootstrap: ground in real account data</text>
</g>
<!-- s0&#45;&gt;d1 -->
<g id="edge5" class="edge">
<title>s0&#45;&gt;d1</title>
<path fill="none" stroke="#94a3b8" d="M120.35,-221.17C126.38,-220.14 132.42,-219.22 138.25,-218.5 155.81,-216.32 174.16,-214.55 192.53,-213.11"/>
<polygon fill="#94a3b8" stroke="#94a3b8" points="192.74,-216.6 202.45,-212.36 192.22,-209.62 192.74,-216.6"/>
<text xml:space="preserve" text-anchor="middle" x="158.5" y="-221.7" font-family="Times New Roman,serif" font-size="14.00">decides</text>
</g>
<!-- m0 -->
<g id="node2" class="node">
<title>m0</title>
<path fill="#e2e8f0" stroke="black" d="M1954.08,-140.73C1954.08,-142.53 1874.52,-144 1776.58,-144 1678.63,-144 1599.08,-142.53 1599.08,-140.73 1599.08,-140.73 1599.08,-111.27 1599.08,-111.27 1599.08,-109.47 1678.63,-108 1776.58,-108 1874.52,-108 1954.08,-109.47 1954.08,-111.27 1954.08,-111.27 1954.08,-140.73 1954.08,-140.73"/>
<path fill="none" stroke="black" d="M1954.08,-140.73C1954.08,-138.92 1874.52,-137.45 1776.58,-137.45 1678.63,-137.45 1599.08,-138.92 1599.08,-140.73"/>
<text xml:space="preserve" text-anchor="middle" x="1776.58" y="-120.58" font-family="Helvetica,sans-Serif" font-size="14.00">m0: sim=1.00 How many unique songs are there ...[+18]</text>
</g>
<!-- d2 -->
<g id="node13" class="node">
<title>d2</title>
<ellipse fill="#e2e8f0" stroke="black" cx="2070.42" cy="-99" rx="37.59" ry="18"/>
<text xml:space="preserve" text-anchor="middle" x="2070.42" y="-93.58" font-family="Helvetica,sans-Serif" font-size="14.00">d2: act</text>
</g>
<!-- m0&#45;&gt;d2 -->
<g id="edge10" class="edge">
<title>m0&#45;&gt;d2</title>
<path fill="none" stroke="#3b82f6" stroke-dasharray="5,2" d="M1954.49,-109.63C1979.18,-107.35 2002.62,-105.18 2021.81,-103.4"/>
<polygon fill="#3b82f6" stroke="#3b82f6" points="2022.05,-106.9 2031.68,-102.49 2021.4,-99.93 2022.05,-106.9"/>
<text xml:space="preserve" text-anchor="middle" x="1993.45" y="-110.93" font-family="Times New Roman,serif" font-size="14.00">informs</text>
</g>
<!-- m1 -->
<g id="node3" class="node">
<title>m1</title>
<path fill="#e2e8f0" stroke="black" d="M1936.08,-86.73C1936.08,-88.53 1864.59,-90 1776.58,-90 1688.57,-90 1617.08,-88.53 1617.08,-86.73 1617.08,-86.73 1617.08,-57.27 1617.08,-57.27 1617.08,-55.47 1688.57,-54 1776.58,-54 1864.59,-54 1936.08,-55.47 1936.08,-57.27 1936.08,-57.27 1936.08,-86.73 1936.08,-86.73"/>
<path fill="none" stroke="black" d="M1936.08,-86.73C1936.08,-84.92 1864.59,-83.45 1776.58,-83.45 1688.57,-83.45 1617.08,-84.92 1617.08,-86.73"/>
<text xml:space="preserve" text-anchor="middle" x="1776.58" y="-66.58" font-family="Helvetica,sans-Serif" font-size="14.00">m1: sim=0.64 What is the title of the oldest ...[+18]</text>
</g>
<!-- m1&#45;&gt;d2 -->
<g id="edge11" class="edge">
<title>m1&#45;&gt;d2</title>
<path fill="none" stroke="#3b82f6" stroke-dasharray="5,2" d="M1936.35,-74.67C1962.67,-76.55 1989.6,-79.36 2014.83,-83.5 2018.96,-84.18 2023.22,-85.06 2027.46,-86.05"/>
<polygon fill="#3b82f6" stroke="#3b82f6" points="2026.49,-89.42 2037.05,-88.53 2028.24,-82.64 2026.49,-89.42"/>
<text xml:space="preserve" text-anchor="middle" x="1993.45" y="-86.7" font-family="Times New Roman,serif" font-size="14.00">informs</text>
</g>
<!-- m2 -->
<g id="node4" class="node">
<title>m2</title>
<path fill="#e2e8f0" stroke="black" d="M1939.08,-32.73C1939.08,-34.53 1866.24,-36 1776.58,-36 1686.91,-36 1614.08,-34.53 1614.08,-32.73 1614.08,-32.73 1614.08,-3.27 1614.08,-3.27 1614.08,-1.47 1686.91,0 1776.58,0 1866.24,0 1939.08,-1.47 1939.08,-3.27 1939.08,-3.27 1939.08,-32.73 1939.08,-32.73"/>
<path fill="none" stroke="black" d="M1939.08,-32.73C1939.08,-30.92 1866.24,-29.45 1776.58,-29.45 1686.91,-29.45 1614.08,-30.92 1614.08,-32.73"/>
<text xml:space="preserve" text-anchor="middle" x="1776.58" y="-12.57" font-family="Helvetica,sans-Serif" font-size="14.00">m2: sim=0.62 What is the title of the most&#45;p ...[+18]</text>
</g>
<!-- m2&#45;&gt;d2 -->
<g id="edge12" class="edge">
<title>m2&#45;&gt;d2</title>
<path fill="none" stroke="#3b82f6" stroke-dasharray="5,2" d="M1939.53,-33.29C1965.4,-39.02 1991.35,-46.83 2014.83,-57.5 2025.01,-62.13 2035.08,-68.95 2043.74,-75.74"/>
<polygon fill="#3b82f6" stroke="#3b82f6" points="2041.42,-78.36 2051.36,-82.02 2045.87,-72.95 2041.42,-78.36"/>
<text xml:space="preserve" text-anchor="middle" x="1993.45" y="-60.7" font-family="Times New Roman,serif" font-size="14.00">informs</text>
</g>
<!-- p0 -->
<g id="node6" class="node">
<title>p0</title>
<polygon fill="#e9d5ff" stroke="black" points="943.97,-360 644.53,-342 943.97,-324 1243.42,-342 943.97,-360"/>
<text xml:space="preserve" text-anchor="middle" x="943.97" y="-336.57" font-family="Helvetica,sans-Serif" font-size="14.00">p0: P=0.82: Authenticate with Spotify, fetch ...[+14]</text>
</g>
<!-- d0&#45;&gt;p0 -->
<g id="edge2" class="edge">
<title>d0&#45;&gt;p0</title>
<path fill="none" stroke="#a855f7" stroke-dasharray="5,2" d="M447.47,-285.05C498.54,-294.61 568.83,-306.96 631.12,-315 682.35,-321.62 738.54,-327.04 788.93,-331.25"/>
<polygon fill="#a855f7" stroke="#a855f7" points="788.5,-334.73 798.75,-332.06 789.07,-327.75 788.5,-334.73"/>
<text xml:space="preserve" text-anchor="middle" x="591.74" y="-315.4" font-family="Times New Roman,serif" font-size="14.00">predicts</text>
</g>
<!-- p1 -->
<g id="node7" class="node">
<title>p1</title>
<polygon fill="#e9d5ff" stroke="black" points="943.97,-306 631.12,-288 943.97,-270 1256.83,-288 943.97,-306"/>
<text xml:space="preserve" text-anchor="middle" x="943.97" y="-282.57" font-family="Helvetica,sans-Serif" font-size="14.00">p1: P=0.76: Retrieve each source separately &#160;...[+14]</text>
</g>
<!-- d0&#45;&gt;p1 -->
<g id="edge3" class="edge">
<title>d0&#45;&gt;p1</title>
<path fill="none" stroke="#a855f7" stroke-dasharray="5,2" d="M484.96,-274.28C551.86,-276.28 639.87,-278.92 720.84,-281.34"/>
<polygon fill="#a855f7" stroke="#a855f7" points="720.6,-284.84 730.7,-281.64 720.81,-277.84 720.6,-284.84"/>
<text xml:space="preserve" text-anchor="middle" x="591.74" y="-281.18" font-family="Times New Roman,serif" font-size="14.00">predicts</text>
</g>
<!-- p2 -->
<g id="node8" class="node">
<title>p2</title>
<polygon fill="#e9d5ff" stroke="black" points="943.97,-252 635.35,-234 943.97,-216 1252.59,-234 943.97,-252"/>
<text xml:space="preserve" text-anchor="middle" x="943.97" y="-228.57" font-family="Helvetica,sans-Serif" font-size="14.00">p2: P=0.90: Use Spotify API pagination to co ...[+14]</text>
</g>
<!-- d0&#45;&gt;p2 -->
<g id="edge4" class="edge">
<title>d0&#45;&gt;p2</title>
<path fill="none" stroke="#a855f7" stroke-dasharray="5,2" d="M476.4,-263.22C506.61,-260.97 539.83,-258.56 570.37,-256.5 636.4,-252.05 709.04,-247.57 772.51,-243.79"/>
<polygon fill="#a855f7" stroke="#a855f7" points="772.55,-247.29 782.33,-243.21 772.14,-240.31 772.55,-247.29"/>
<text xml:space="preserve" text-anchor="middle" x="591.74" y="-259.7" font-family="Times New Roman,serif" font-size="14.00">predicts</text>
</g>
<!-- a0 -->
<g id="node10" class="node">
<title>a0</title>
<polygon fill="#e2e8f0" stroke="black" points="1015.72,-198 866.22,-198 866.22,-162 1021.72,-162 1021.72,-192 1015.72,-198"/>
<polyline fill="none" stroke="black" points="1015.72,-198 1015.72,-192"/>
<polyline fill="none" stroke="black" points="1021.72,-192 1015.72,-192"/>
<text xml:space="preserve" text-anchor="middle" x="943.97" y="-174.57" font-family="Helvetica,sans-Serif" font-size="14.00">a0: bootstrap discovery</text>
</g>
<!-- d1&#45;&gt;a0 -->
<g id="edge6" class="edge">
<title>d1&#45;&gt;a0</title>
<path fill="none" stroke="#94a3b8" d="M528.68,-197.71C542.77,-196.93 556.83,-196.18 570.37,-195.5 667.55,-190.61 779.04,-186.12 854.55,-183.25"/>
<polygon fill="#94a3b8" stroke="#94a3b8" points="854.51,-186.75 864.37,-182.87 854.25,-179.75 854.51,-186.75"/>
<text xml:space="preserve" text-anchor="middle" x="591.74" y="-198.7" font-family="Times New Roman,serif" font-size="14.00">acts</text>
</g>
<!-- o0 -->
<g id="node11" class="node">
<title>o0</title>
<polygon fill="#bbf7d0" stroke="black" points="1506.83,-207.62 1325.08,-207.62 1325.08,-152.38 1506.83,-152.38 1506.83,-207.62"/>
<text xml:space="preserve" text-anchor="middle" x="1415.95" y="-190.32" font-family="Helvetica,sans-Serif" font-size="14.00">o0: === ACTIVE TASK ===</text>
<text xml:space="preserve" text-anchor="middle" x="1415.95" y="-174.57" font-family="Helvetica,sans-Serif" font-size="14.00">{</text>
<text xml:space="preserve" text-anchor="middle" x="1415.95" y="-158.82" font-family="Helvetica,sans-Serif" font-size="14.00"> &#39;instruction&#39;: &#39;H ...[+11]</text>
</g>
<!-- a0&#45;&gt;o0 -->
<g id="edge7" class="edge">
<title>a0&#45;&gt;o0</title>
<path fill="none" stroke="#94a3b8" d="M1022.05,-180C1101.64,-180 1226.19,-180 1313.68,-180"/>
<polygon fill="#94a3b8" stroke="#94a3b8" points="1313.45,-183.5 1323.45,-180 1313.45,-176.5 1313.45,-183.5"/>
<text xml:space="preserve" text-anchor="middle" x="1290.95" y="-183.2" font-family="Times New Roman,serif" font-size="14.00">yields</text>
</g>
<!-- s1 -->
<g id="node12" class="node">
<title>s1</title>
<polygon fill="#e2e8f0" stroke="black" points="1835.95,-198 1717.2,-198 1717.2,-162 1835.95,-162 1835.95,-198"/>
<text xml:space="preserve" text-anchor="middle" x="1776.58" y="-174.57" font-family="Helvetica,sans-Serif" font-size="14.00">s1: S1: grounded</text>
</g>
<!-- o0&#45;&gt;s1 -->
<g id="edge8" class="edge">
<title>o0&#45;&gt;s1</title>
<path fill="none" stroke="#64748b" d="M1506.98,-180C1568.42,-180 1648.63,-180 1705.35,-180"/>
<polygon fill="#64748b" stroke="#64748b" points="1705.21,-183.5 1715.21,-180 1705.21,-176.5 1705.21,-183.5"/>
<text xml:space="preserve" text-anchor="middle" x="1552.95" y="-183.2" font-family="Times New Roman,serif" font-size="14.00">transitions</text>
</g>
<!-- s1&#45;&gt;d2 -->
<g id="edge9" class="edge">
<title>s1&#45;&gt;d2</title>
<path fill="none" stroke="#94a3b8" d="M1836.35,-174.56C1871.03,-170.48 1915.55,-163.71 1954.08,-153 1982.21,-145.18 1988.4,-140.42 2014.83,-128 2021.39,-124.91 2028.3,-121.44 2034.9,-117.99"/>
<polygon fill="#94a3b8" stroke="#94a3b8" points="2036.42,-121.15 2043.61,-113.37 2033.14,-114.96 2036.42,-121.15"/>
<text xml:space="preserve" text-anchor="middle" x="1993.45" y="-150.53" font-family="Times New Roman,serif" font-size="14.00">decides</text>
</g>
<!-- a1 -->
<g id="node14" class="node">
<title>a1</title>
<polygon fill="#e2e8f0" stroke="black" points="2508.01,-117 2165.01,-117 2165.01,-81 2514.01,-81 2514.01,-111 2508.01,-117"/>
<polyline fill="none" stroke="black" points="2508.01,-117 2508.01,-111"/>
<polyline fill="none" stroke="black" points="2514.01,-111 2508.01,-111"/>
<text xml:space="preserve" text-anchor="middle" x="2339.51" y="-93.58" font-family="Helvetica,sans-Serif" font-size="14.00">a1: print(apis.api_docs.show_api_doc(app_nam ...[+23]</text>
</g>
<!-- d2&#45;&gt;a1 -->
<g id="edge13" class="edge">
<title>d2&#45;&gt;a1</title>
<path fill="none" stroke="#94a3b8" d="M2108.27,-99C2121.19,-99 2136.7,-99 2153.5,-99"/>
<polygon fill="#94a3b8" stroke="#94a3b8" points="2153.19,-102.5 2163.19,-99 2153.19,-95.5 2153.19,-102.5"/>
<text xml:space="preserve" text-anchor="middle" x="2136.51" y="-102.2" font-family="Times New Roman,serif" font-size="14.00">acts</text>
</g>
<!-- o1 -->
<g id="node15" class="node">
<title>o1</title>
<polygon fill="#bbf7d0" stroke="black" points="2728.76,-126.62 2582.26,-126.62 2582.26,-71.38 2728.76,-71.38 2728.76,-126.62"/>
<text xml:space="preserve" text-anchor="middle" x="2655.51" y="-109.33" font-family="Helvetica,sans-Serif" font-size="14.00">o1: {</text>
<text xml:space="preserve" text-anchor="middle" x="2655.51" y="-93.58" font-family="Helvetica,sans-Serif" font-size="14.00"> &#39;app_name&#39;: &#39;spotify&#39;,</text>
<text xml:space="preserve" text-anchor="middle" x="2655.51" y="-77.83" font-family="Helvetica,sans-Serif" font-size="14.00"> &#39;api_name&#39;: &#39; ...[+10]</text>
</g>
<!-- a1&#45;&gt;o1 -->
<g id="edge14" class="edge">
<title>a1&#45;&gt;o1</title>
<path fill="none" stroke="#94a3b8" d="M2514.5,-99C2534,-99 2553.14,-99 2570.71,-99"/>
<polygon fill="#94a3b8" stroke="#94a3b8" points="2570.51,-102.5 2580.51,-99 2570.51,-95.5 2570.51,-102.5"/>
<text xml:space="preserve" text-anchor="middle" x="2548.13" y="-102.2" font-family="Times New Roman,serif" font-size="14.00">yields</text>
</g>
<!-- s2 -->
<g id="node16" class="node">
<title>s2</title>
<polygon fill="#e2e8f0" stroke="black" points="2950.26,-117 2821.01,-117 2821.01,-81 2950.26,-81 2950.26,-117"/>
<text xml:space="preserve" text-anchor="middle" x="2885.63" y="-93.58" font-family="Helvetica,sans-Serif" font-size="14.00">s2: S2: progressed</text>
</g>
<!-- o1&#45;&gt;s2 -->
<g id="edge15" class="edge">
<title>o1&#45;&gt;s2</title>
<path fill="none" stroke="#64748b" d="M2729,-99C2754.69,-99 2783.63,-99 2809.53,-99"/>
<polygon fill="#64748b" stroke="#64748b" points="2809.29,-102.5 2819.29,-99 2809.29,-95.5 2809.29,-102.5"/>
<text xml:space="preserve" text-anchor="middle" x="2774.88" y="-102.2" font-family="Times New Roman,serif" font-size="14.00">transitions</text>
</g>
<!-- d3 -->
<g id="node17" class="node">
<title>d3</title>
<ellipse fill="#e2e8f0" stroke="black" cx="3064.35" cy="-99" rx="37.59" ry="18"/>
<text xml:space="preserve" text-anchor="middle" x="3064.35" y="-93.58" font-family="Helvetica,sans-Serif" font-size="14.00">d3: act</text>
</g>
<!-- s2&#45;&gt;d3 -->
<g id="edge16" class="edge">
<title>s2&#45;&gt;d3</title>
<path fill="none" stroke="#94a3b8" d="M2950.68,-99C2971.98,-99 2995.33,-99 3015.22,-99"/>
<polygon fill="#94a3b8" stroke="#94a3b8" points="3014.98,-102.5 3024.98,-99 3014.98,-95.5 3014.98,-102.5"/>
<text xml:space="preserve" text-anchor="middle" x="2988.51" y="-102.2" font-family="Times New Roman,serif" font-size="14.00">decides</text>
</g>
<!-- a2 -->
<g id="node18" class="node">
<title>a2</title>
<polygon fill="#e2e8f0" stroke="black" points="3479.44,-117 3158.94,-117 3158.94,-81 3485.44,-81 3485.44,-111 3479.44,-117"/>
<polyline fill="none" stroke="black" points="3479.44,-117 3479.44,-111"/>
<polyline fill="none" stroke="black" points="3485.44,-111 3479.44,-111"/>
<text xml:space="preserve" text-anchor="middle" x="3322.19" y="-93.58" font-family="Helvetica,sans-Serif" font-size="14.00">a2: login = apis.spotify.login(username=&#39;den ...[+23]</text>
</g>
<!-- d3&#45;&gt;a2 -->
<g id="edge17" class="edge">
<title>d3&#45;&gt;a2</title>
<path fill="none" stroke="#94a3b8" d="M3102.28,-99C3115.22,-99 3130.73,-99 3147.45,-99"/>
<polygon fill="#94a3b8" stroke="#94a3b8" points="3147.09,-102.5 3157.09,-99 3147.09,-95.5 3147.09,-102.5"/>
<text xml:space="preserve" text-anchor="middle" x="3130.44" y="-102.2" font-family="Times New Roman,serif" font-size="14.00">acts</text>
</g>
<!-- o2 -->
<g id="node19" class="node">
<title>o2</title>
<polygon fill="#bbf7d0" stroke="black" points="3910.94,-117 3553.69,-117 3553.69,-81 3910.94,-81 3910.94,-117"/>
<text xml:space="preserve" text-anchor="middle" x="3732.32" y="-93.58" font-family="Helvetica,sans-Serif" font-size="14.00">o2: eyJhbGciOiJIUzI1NiIsInR5cCI6IkpXVCJ9.eyJ ...[+11]</text>
</g>
<!-- a2&#45;&gt;o2 -->
<g id="edge18" class="edge">
<title>a2&#45;&gt;o2</title>
<path fill="none" stroke="#94a3b8" d="M3485.66,-99C3504.16,-99 3523.13,-99 3541.94,-99"/>
<polygon fill="#94a3b8" stroke="#94a3b8" points="3541.78,-102.5 3551.78,-99 3541.78,-95.5 3541.78,-102.5"/>
<text xml:space="preserve" text-anchor="middle" x="3519.57" y="-102.2" font-family="Times New Roman,serif" font-size="14.00">yields</text>
</g>
<!-- s3 -->
<g id="node20" class="node">
<title>s3</title>
<polygon fill="#e2e8f0" stroke="black" points="4132.44,-117 4003.19,-117 4003.19,-81 4132.44,-81 4132.44,-117"/>
<text xml:space="preserve" text-anchor="middle" x="4067.82" y="-93.58" font-family="Helvetica,sans-Serif" font-size="14.00">s3: S3: progressed</text>
</g>
<!-- o2&#45;&gt;s3 -->
<g id="edge19" class="edge">
<title>o2&#45;&gt;s3</title>
<path fill="none" stroke="#64748b" d="M3911.29,-99C3939.44,-99 3967.15,-99 3991.22,-99"/>
<polygon fill="#64748b" stroke="#64748b" points="3991.21,-102.5 4001.21,-99 3991.21,-95.5 3991.21,-102.5"/>
<text xml:space="preserve" text-anchor="middle" x="3957.07" y="-102.2" font-family="Times New Roman,serif" font-size="14.00">transitions</text>
</g>
<!-- d4 -->
<g id="node21" class="node">
<title>d4</title>
<ellipse fill="#e2e8f0" stroke="black" cx="4246.53" cy="-99" rx="37.59" ry="18"/>
<text xml:space="preserve" text-anchor="middle" x="4246.53" y="-93.58" font-family="Helvetica,sans-Serif" font-size="14.00">d4: act</text>
</g>
<!-- s3&#45;&gt;d4 -->
<g id="edge20" class="edge">
<title>s3&#45;&gt;d4</title>
<path fill="none" stroke="#94a3b8" d="M4132.86,-99C4154.17,-99 4177.51,-99 4197.4,-99"/>
<polygon fill="#94a3b8" stroke="#94a3b8" points="4197.16,-102.5 4207.16,-99 4197.16,-95.5 4197.16,-102.5"/>
<text xml:space="preserve" text-anchor="middle" x="4170.69" y="-102.2" font-family="Times New Roman,serif" font-size="14.00">decides</text>
</g>
<!-- a3 -->
<g id="node22" class="node">
<title>a3</title>
<polygon fill="#e2e8f0" stroke="black" points="4684.12,-117 4341.12,-117 4341.12,-81 4690.12,-81 4690.12,-111 4684.12,-117"/>
<polyline fill="none" stroke="black" points="4684.12,-117 4684.12,-111"/>
<polyline fill="none" stroke="black" points="4690.12,-111 4684.12,-111"/>
<text xml:space="preserve" text-anchor="middle" x="4515.62" y="-93.58" font-family="Helvetica,sans-Serif" font-size="14.00">a3: print(apis.api_docs.show_api_doc(app_nam ...[+23]</text>
</g>
<!-- d4&#45;&gt;a3 -->
<g id="edge21" class="edge">
<title>d4&#45;&gt;a3</title>
<path fill="none" stroke="#94a3b8" d="M4284.39,-99C4297.3,-99 4312.81,-99 4329.61,-99"/>
<polygon fill="#94a3b8" stroke="#94a3b8" points="4329.3,-102.5 4339.3,-99 4329.3,-95.5 4329.3,-102.5"/>
<text xml:space="preserve" text-anchor="middle" x="4312.62" y="-102.2" font-family="Times New Roman,serif" font-size="14.00">acts</text>
</g>
<!-- o3 -->
<g id="node23" class="node">
<title>o3</title>
<polygon fill="#bbf7d0" stroke="black" points="4904.87,-126.62 4758.37,-126.62 4758.37,-71.38 4904.87,-71.38 4904.87,-126.62"/>
<text xml:space="preserve" text-anchor="middle" x="4831.62" y="-109.33" font-family="Helvetica,sans-Serif" font-size="14.00">o3: {</text>
<text xml:space="preserve" text-anchor="middle" x="4831.62" y="-93.58" font-family="Helvetica,sans-Serif" font-size="14.00"> &#39;app_name&#39;: &#39;spotify&#39;,</text>
<text xml:space="preserve" text-anchor="middle" x="4831.62" y="-77.83" font-family="Helvetica,sans-Serif" font-size="14.00"> &#39;api_name&#39;: &#39; ...[+11]</text>
</g>
<!-- a3&#45;&gt;o3 -->
<g id="edge22" class="edge">
<title>a3&#45;&gt;o3</title>
<path fill="none" stroke="#94a3b8" d="M4690.61,-99C4710.11,-99 4729.26,-99 4746.83,-99"/>
<polygon fill="#94a3b8" stroke="#94a3b8" points="4746.62,-102.5 4756.62,-99 4746.62,-95.5 4746.62,-102.5"/>
<text xml:space="preserve" text-anchor="middle" x="4724.25" y="-102.2" font-family="Times New Roman,serif" font-size="14.00">yields</text>
</g>
<!-- s4 -->
<g id="node24" class="node">
<title>s4</title>
<polygon fill="#e2e8f0" stroke="black" points="5126.37,-117 4997.12,-117 4997.12,-81 5126.37,-81 5126.37,-117"/>
<text xml:space="preserve" text-anchor="middle" x="5061.75" y="-93.58" font-family="Helvetica,sans-Serif" font-size="14.00">s4: S4: progressed</text>
</g>
<!-- o3&#45;&gt;s4 -->
<g id="edge23" class="edge">
<title>o3&#45;&gt;s4</title>
<path fill="none" stroke="#64748b" d="M4905.12,-99C4930.8,-99 4959.74,-99 4985.64,-99"/>
<polygon fill="#64748b" stroke="#64748b" points="4985.4,-102.5 4995.4,-99 4985.4,-95.5 4985.4,-102.5"/>
<text xml:space="preserve" text-anchor="middle" x="4951" y="-102.2" font-family="Times New Roman,serif" font-size="14.00">transitions</text>
</g>
<!-- d5 -->
<g id="node25" class="node">
<title>d5</title>
<ellipse fill="#e2e8f0" stroke="black" cx="5240.46" cy="-99" rx="37.59" ry="18"/>
<text xml:space="preserve" text-anchor="middle" x="5240.46" y="-93.58" font-family="Helvetica,sans-Serif" font-size="14.00">d5: act</text>
</g>
<!-- s4&#45;&gt;d5 -->
<g id="edge24" class="edge">
<title>s4&#45;&gt;d5</title>
<path fill="none" stroke="#94a3b8" d="M5126.8,-99C5148.1,-99 5171.45,-99 5191.34,-99"/>
<polygon fill="#94a3b8" stroke="#94a3b8" points="5191.09,-102.5 5201.09,-99 5191.09,-95.5 5191.09,-102.5"/>
<text xml:space="preserve" text-anchor="middle" x="5164.62" y="-102.2" font-family="Times New Roman,serif" font-size="14.00">decides</text>
</g>
<!-- a4 -->
<g id="node26" class="node">
<title>a4</title>
<polygon fill="#e2e8f0" stroke="black" points="5464.3,-117 5335.05,-117 5335.05,-81 5470.3,-81 5470.3,-111 5464.3,-117"/>
<polyline fill="none" stroke="black" points="5464.3,-117 5464.3,-111"/>
<polyline fill="none" stroke="black" points="5470.3,-111 5464.3,-111"/>
<text xml:space="preserve" text-anchor="middle" x="5402.68" y="-93.58" font-family="Helvetica,sans-Serif" font-size="14.00">a4: song_ids = set()</text>
</g>
<!-- d5&#45;&gt;a4 -->
<g id="edge25" class="edge">
<title>d5&#45;&gt;a4</title>
<path fill="none" stroke="#94a3b8" d="M5278.22,-99C5291.68,-99 5307.47,-99 5323.18,-99"/>
<polygon fill="#94a3b8" stroke="#94a3b8" points="5323.05,-102.5 5333.05,-99 5323.05,-95.5 5323.05,-102.5"/>
<text xml:space="preserve" text-anchor="middle" x="5306.55" y="-102.2" font-family="Times New Roman,serif" font-size="14.00">acts</text>
</g>
<!-- o4 -->
<g id="node27" class="node">
<title>o4</title>
<polygon fill="#bbf7d0" stroke="black" points="5713.55,-117 5538.55,-117 5538.55,-81 5713.55,-81 5713.55,-117"/>
<text xml:space="preserve" text-anchor="middle" x="5626.05" y="-93.58" font-family="Helvetica,sans-Serif" font-size="14.00">o4: song library unique: 13</text>
</g>
<!-- a4&#45;&gt;o4 -->
<g id="edge26" class="edge">
<title>a4&#45;&gt;o4</title>
<path fill="none" stroke="#94a3b8" d="M5470.7,-99C5488.38,-99 5507.84,-99 5526.8,-99"/>
<polygon fill="#94a3b8" stroke="#94a3b8" points="5526.69,-102.5 5536.69,-99 5526.69,-95.5 5526.69,-102.5"/>
<text xml:space="preserve" text-anchor="middle" x="5504.43" y="-102.2" font-family="Times New Roman,serif" font-size="14.00">yields</text>
</g>
<!-- s5 -->
<g id="node28" class="node">
<title>s5</title>
<polygon fill="#e2e8f0" stroke="black" points="5935.05,-117 5805.8,-117 5805.8,-81 5935.05,-81 5935.05,-117"/>
<text xml:space="preserve" text-anchor="middle" x="5870.43" y="-93.58" font-family="Helvetica,sans-Serif" font-size="14.00">s5: S5: progressed</text>
</g>
<!-- o4&#45;&gt;s5 -->
<g id="edge27" class="edge">
<title>o4&#45;&gt;s5</title>
<path fill="none" stroke="#64748b" d="M5713.87,-99C5740.14,-99 5768.76,-99 5794.2,-99"/>
<polygon fill="#64748b" stroke="#64748b" points="5794.13,-102.5 5804.13,-99 5794.13,-95.5 5794.13,-102.5"/>
<text xml:space="preserve" text-anchor="middle" x="5759.68" y="-102.2" font-family="Times New Roman,serif" font-size="14.00">transitions</text>
</g>
<!-- d6 -->
<g id="node29" class="node">
<title>d6</title>
<ellipse fill="#e2e8f0" stroke="black" cx="6049.15" cy="-99" rx="37.59" ry="18"/>
<text xml:space="preserve" text-anchor="middle" x="6049.15" y="-93.58" font-family="Helvetica,sans-Serif" font-size="14.00">d6: act</text>
</g>
<!-- s5&#45;&gt;d6 -->
<g id="edge28" class="edge">
<title>s5&#45;&gt;d6</title>
<path fill="none" stroke="#94a3b8" d="M5935.48,-99C5956.78,-99 5980.13,-99 6000.02,-99"/>
<polygon fill="#94a3b8" stroke="#94a3b8" points="5999.77,-102.5 6009.77,-99 5999.77,-95.5 5999.77,-102.5"/>
<text xml:space="preserve" text-anchor="middle" x="5973.3" y="-102.2" font-family="Times New Roman,serif" font-size="14.00">decides</text>
</g>
<!-- a5 -->
<g id="node30" class="node">
<title>a5</title>
<polygon fill="#e2e8f0" stroke="black" points="6281.24,-117 6143.74,-117 6143.74,-81 6287.24,-81 6287.24,-111 6281.24,-117"/>
<polyline fill="none" stroke="black" points="6281.24,-117 6281.24,-111"/>
<polyline fill="none" stroke="black" points="6287.24,-111 6281.24,-111"/>
<text xml:space="preserve" text-anchor="middle" x="6215.49" y="-93.58" font-family="Helvetica,sans-Serif" font-size="14.00">a5: album_ids = set()</text>
</g>
<!-- d6&#45;&gt;a5 -->
<g id="edge29" class="edge">
<title>d6&#45;&gt;a5</title>
<path fill="none" stroke="#94a3b8" d="M6087.03,-99C6100.43,-99 6116.17,-99 6131.93,-99"/>
<polygon fill="#94a3b8" stroke="#94a3b8" points="6131.86,-102.5 6141.86,-99 6131.86,-95.5 6131.86,-102.5"/>
<text xml:space="preserve" text-anchor="middle" x="6115.24" y="-102.2" font-family="Times New Roman,serif" font-size="14.00">acts</text>
</g>
<!-- o5 -->
<g id="node31" class="node">
<title>o5</title>
<polygon fill="#bbf7d0" stroke="black" points="6562.74,-126.62 6355.49,-126.62 6355.49,-71.38 6562.74,-71.38 6562.74,-126.62"/>
<text xml:space="preserve" text-anchor="middle" x="6459.11" y="-109.33" font-family="Helvetica,sans-Serif" font-size="14.00">o5: albums: 6 {2, 3, 4, 7, 11, 16}</text>
<text xml:space="preserve" text-anchor="middle" x="6459.11" y="-93.58" font-family="Helvetica,sans-Serif" font-size="14.00">{</text>
<text xml:space="preserve" text-anchor="middle" x="6459.11" y="-77.83" font-family="Helvetica,sans-Serif" font-size="14.00"> &#39;app_n ...[+10]</text>
</g>
<!-- a5&#45;&gt;o5 -->
<g id="edge30" class="edge">
<title>a5&#45;&gt;o5</title>
<path fill="none" stroke="#94a3b8" d="M6287.67,-99C6305.36,-99 6324.77,-99 6343.95,-99"/>
<polygon fill="#94a3b8" stroke="#94a3b8" points="6343.69,-102.5 6353.69,-99 6343.69,-95.5 6343.69,-102.5"/>
<text xml:space="preserve" text-anchor="middle" x="6321.36" y="-102.2" font-family="Times New Roman,serif" font-size="14.00">yields</text>
</g>
<!-- s6 -->
<g id="node32" class="node">
<title>s6</title>
<polygon fill="#e2e8f0" stroke="black" points="6784.24,-117 6654.99,-117 6654.99,-81 6784.24,-81 6784.24,-117"/>
<text xml:space="preserve" text-anchor="middle" x="6719.61" y="-93.58" font-family="Helvetica,sans-Serif" font-size="14.00">s6: S6: progressed</text>
</g>
<!-- o5&#45;&gt;s6 -->
<g id="edge31" class="edge">
<title>o5&#45;&gt;s6</title>
<path fill="none" stroke="#64748b" d="M6563.02,-99C6589.88,-99 6618.33,-99 6643.45,-99"/>
<polygon fill="#64748b" stroke="#64748b" points="6643.22,-102.5 6653.22,-99 6643.22,-95.5 6643.22,-102.5"/>
<text xml:space="preserve" text-anchor="middle" x="6608.86" y="-102.2" font-family="Times New Roman,serif" font-size="14.00">transitions</text>
</g>
<!-- d7 -->
<g id="node33" class="node">
<title>d7</title>
<ellipse fill="#e2e8f0" stroke="black" cx="6898.33" cy="-99" rx="37.59" ry="18"/>
<text xml:space="preserve" text-anchor="middle" x="6898.33" y="-93.58" font-family="Helvetica,sans-Serif" font-size="14.00">d7: act</text>
</g>
<!-- s6&#45;&gt;d7 -->
<g id="edge32" class="edge">
<title>s6&#45;&gt;d7</title>
<path fill="none" stroke="#94a3b8" d="M6784.66,-99C6805.96,-99 6829.31,-99 6849.2,-99"/>
<polygon fill="#94a3b8" stroke="#94a3b8" points="6848.96,-102.5 6858.96,-99 6848.96,-95.5 6848.96,-102.5"/>
<text xml:space="preserve" text-anchor="middle" x="6822.49" y="-102.2" font-family="Times New Roman,serif" font-size="14.00">decides</text>
</g>
<!-- a6 -->
<g id="node34" class="node">
<title>a6</title>
<polygon fill="#e2e8f0" stroke="black" points="7146.92,-117 6992.92,-117 6992.92,-81 7152.92,-81 7152.92,-111 7146.92,-117"/>
<polyline fill="none" stroke="black" points="7146.92,-117 7146.92,-111"/>
<polyline fill="none" stroke="black" points="7152.92,-111 7146.92,-111"/>
<text xml:space="preserve" text-anchor="middle" x="7072.92" y="-93.58" font-family="Helvetica,sans-Serif" font-size="14.00">a6: for aid in album_ids:</text>
</g>
<!-- d7&#45;&gt;a6 -->
<g id="edge33" class="edge">
<title>d7&#45;&gt;a6</title>
<path fill="none" stroke="#94a3b8" d="M6936.35,-99C6949.79,-99 6965.63,-99 6981.65,-99"/>
<polygon fill="#94a3b8" stroke="#94a3b8" points="6981.23,-102.5 6991.23,-99 6981.23,-95.5 6981.23,-102.5"/>
<text xml:space="preserve" text-anchor="middle" x="6964.42" y="-102.2" font-family="Times New Roman,serif" font-size="14.00">acts</text>
</g>
<!-- o6 -->
<g id="node35" class="node">
<title>o6</title>
<polygon fill="#bbf7d0" stroke="black" points="7401.42,-126.62 7221.17,-126.62 7221.17,-71.38 7401.42,-71.38 7401.42,-126.62"/>
<text xml:space="preserve" text-anchor="middle" x="7311.29" y="-109.33" font-family="Helvetica,sans-Serif" font-size="14.00">o6: after albums unique: 38</text>
<text xml:space="preserve" text-anchor="middle" x="7311.29" y="-93.58" font-family="Helvetica,sans-Serif" font-size="14.00">{</text>
<text xml:space="preserve" text-anchor="middle" x="7311.29" y="-77.83" font-family="Helvetica,sans-Serif" font-size="14.00"> &#39;app_name&#39;: &#39; ...[+11]</text>
</g>
<!-- a6&#45;&gt;o6 -->
<g id="edge34" class="edge">
<title>a6&#45;&gt;o6</title>
<path fill="none" stroke="#94a3b8" d="M7153.29,-99C7171.36,-99 7190.8,-99 7209.64,-99"/>
<polygon fill="#94a3b8" stroke="#94a3b8" points="7209.44,-102.5 7219.44,-99 7209.44,-95.5 7209.44,-102.5"/>
<text xml:space="preserve" text-anchor="middle" x="7187.04" y="-102.2" font-family="Times New Roman,serif" font-size="14.00">yields</text>
</g>
<!-- s7 -->
<g id="node36" class="node">
<title>s7</title>
<polygon fill="#e2e8f0" stroke="black" points="7622.92,-117 7493.67,-117 7493.67,-81 7622.92,-81 7622.92,-117"/>
<text xml:space="preserve" text-anchor="middle" x="7558.29" y="-93.58" font-family="Helvetica,sans-Serif" font-size="14.00">s7: S7: progressed</text>
</g>
<!-- o6&#45;&gt;s7 -->
<g id="edge35" class="edge">
<title>o6&#45;&gt;s7</title>
<path fill="none" stroke="#64748b" d="M7401.78,-99C7428.1,-99 7456.61,-99 7481.95,-99"/>
<polygon fill="#64748b" stroke="#64748b" points="7481.83,-102.5 7491.83,-99 7481.83,-95.5 7481.83,-102.5"/>
<text xml:space="preserve" text-anchor="middle" x="7447.54" y="-102.2" font-family="Times New Roman,serif" font-size="14.00">transitions</text>
</g>
<!-- d8 -->
<g id="node37" class="node">
<title>d8</title>
<ellipse fill="#e2e8f0" stroke="black" cx="7737.01" cy="-99" rx="37.59" ry="18"/>
<text xml:space="preserve" text-anchor="middle" x="7737.01" y="-93.58" font-family="Helvetica,sans-Serif" font-size="14.00">d8: act</text>
</g>
<!-- s7&#45;&gt;d8 -->
<g id="edge36" class="edge">
<title>s7&#45;&gt;d8</title>
<path fill="none" stroke="#94a3b8" d="M7623.34,-99C7644.64,-99 7667.99,-99 7687.88,-99"/>
<polygon fill="#94a3b8" stroke="#94a3b8" points="7687.64,-102.5 7697.64,-99 7687.64,-95.5 7687.64,-102.5"/>
<text xml:space="preserve" text-anchor="middle" x="7661.17" y="-102.2" font-family="Times New Roman,serif" font-size="14.00">decides</text>
</g>
<!-- a7 -->
<g id="node38" class="node">
<title>a7</title>
<polygon fill="#e2e8f0" stroke="black" points="7972.85,-117 7831.6,-117 7831.6,-81 7978.85,-81 7978.85,-111 7972.85,-117"/>
<polyline fill="none" stroke="black" points="7972.85,-117 7972.85,-111"/>
<polyline fill="none" stroke="black" points="7978.85,-111 7972.85,-111"/>
<text xml:space="preserve" text-anchor="middle" x="7905.23" y="-93.58" font-family="Helvetica,sans-Serif" font-size="14.00">a7: playlist_ids = set()</text>
</g>
<!-- d8&#45;&gt;a7 -->
<g id="edge37" class="edge">
<title>d8&#45;&gt;a7</title>
<path fill="none" stroke="#94a3b8" d="M7774.9,-99C7788.29,-99 7804.03,-99 7819.83,-99"/>
<polygon fill="#94a3b8" stroke="#94a3b8" points="7819.8,-102.5 7829.8,-99 7819.8,-95.5 7819.8,-102.5"/>
<text xml:space="preserve" text-anchor="middle" x="7803.1" y="-102.2" font-family="Times New Roman,serif" font-size="14.00">acts</text>
</g>
<!-- o7 -->
<g id="node39" class="node">
<title>o7</title>
<polygon fill="#bbf7d0" stroke="black" points="8352.6,-117 8047.1,-117 8047.1,-81 8352.6,-81 8352.6,-117"/>
<text xml:space="preserve" text-anchor="middle" x="8199.85" y="-93.58" font-family="Helvetica,sans-Serif" font-size="14.00">o7: playlists: 8 {216, 217, 218, 219, 220, 2 ...[+9]</text>
</g>
<!-- a7&#45;&gt;o7 -->
<g id="edge38" class="edge">
<title>a7&#45;&gt;o7</title>
<path fill="none" stroke="#94a3b8" d="M7979.31,-99C7996.66,-99 8015.85,-99 8035.46,-99"/>
<polygon fill="#94a3b8" stroke="#94a3b8" points="8035.2,-102.5 8045.2,-99 8035.2,-95.5 8035.2,-102.5"/>
<text xml:space="preserve" text-anchor="middle" x="8012.98" y="-102.2" font-family="Times New Roman,serif" font-size="14.00">yields</text>
</g>
<!-- s8 -->
<g id="node40" class="node">
<title>s8</title>
<polygon fill="#e2e8f0" stroke="black" points="8574.1,-117 8444.85,-117 8444.85,-81 8574.1,-81 8574.1,-117"/>
<text xml:space="preserve" text-anchor="middle" x="8509.48" y="-93.58" font-family="Helvetica,sans-Serif" font-size="14.00">s8: S8: progressed</text>
</g>
<!-- o7&#45;&gt;s8 -->
<g id="edge39" class="edge">
<title>o7&#45;&gt;s8</title>
<path fill="none" stroke="#64748b" d="M8352.86,-99C8380.83,-99 8408.87,-99 8433.29,-99"/>
<polygon fill="#64748b" stroke="#64748b" points="8433.1,-102.5 8443.1,-99 8433.1,-95.5 8433.1,-102.5"/>
<text xml:space="preserve" text-anchor="middle" x="8398.73" y="-102.2" font-family="Times New Roman,serif" font-size="14.00">transitions</text>
</g>
<!-- d9 -->
<g id="node41" class="node">
<title>d9</title>
<ellipse fill="#e2e8f0" stroke="black" cx="8772.75" cy="-99" rx="122.15" ry="39.24"/>
<text xml:space="preserve" text-anchor="middle" x="8772.75" y="-109.45" font-family="Helvetica,sans-Serif" font-size="14.00">d9: user Execution output:</text>
<text xml:space="preserve" text-anchor="middle" x="8772.75" y="-77.7" font-family="Helvetica,sans-Serif" font-size="14.00">Continue with yo ...[+29]</text>
</g>
<!-- s8&#45;&gt;d9 -->
<g id="edge40" class="edge">
<title>s8&#45;&gt;d9</title>
<path fill="none" stroke="#94a3b8" d="M8574.39,-99C8594.04,-99 8616.43,-99 8638.91,-99"/>
<polygon fill="#94a3b8" stroke="#94a3b8" points="8638.79,-102.5 8648.79,-99 8638.79,-95.5 8638.79,-102.5"/>
<text xml:space="preserve" text-anchor="middle" x="8612.35" y="-102.2" font-family="Times New Roman,serif" font-size="14.00">decides</text>
</g>
<!-- a8 -->
<g id="node42" class="node">
<title>a8</title>
<polygon fill="#e2e8f0" stroke="black" points="9115.66,-117 8951.91,-117 8951.91,-81 9121.66,-81 9121.66,-111 9115.66,-117"/>
<polyline fill="none" stroke="black" points="9115.66,-117 9115.66,-111"/>
<polyline fill="none" stroke="black" points="9121.66,-111 9115.66,-111"/>
<text xml:space="preserve" text-anchor="middle" x="9036.78" y="-93.58" font-family="Helvetica,sans-Serif" font-size="14.00">a8: final unique songs: 50</text>
</g>
<!-- d9&#45;&gt;a8 -->
<g id="edge41" class="edge">
<title>d9&#45;&gt;a8</title>
<path fill="none" stroke="#94a3b8" d="M8895.18,-99C8910.33,-99 8925.65,-99 8940.32,-99"/>
<polygon fill="#94a3b8" stroke="#94a3b8" points="8939.89,-102.5 8949.89,-99 8939.89,-95.5 8939.89,-102.5"/>
<text xml:space="preserve" text-anchor="middle" x="8923.41" y="-102.2" font-family="Times New Roman,serif" font-size="14.00">acts</text>
</g>
<!-- o8 -->
<g id="node43" class="node">
<title>o8</title>
<polygon fill="#fecaca" stroke="black" points="9294.41,-117 9189.91,-117 9189.91,-81 9294.41,-81 9294.41,-117"/>
<text xml:space="preserve" text-anchor="middle" x="9242.16" y="-93.58" font-family="Helvetica,sans-Serif" font-size="14.00">o8: error: Error</text>
</g>
<!-- a8&#45;&gt;o8 -->
<g id="edge42" class="edge">
<title>a8&#45;&gt;o8</title>
<path fill="none" stroke="#94a3b8" d="M9121.97,-99C9140.79,-99 9160.44,-99 9178.23,-99"/>
<polygon fill="#94a3b8" stroke="#94a3b8" points="9178.11,-102.5 9188.11,-99 9178.11,-95.5 9178.11,-102.5"/>
<text xml:space="preserve" text-anchor="middle" x="9155.78" y="-102.2" font-family="Times New Roman,serif" font-size="14.00">yields</text>
</g>
<!-- s9 -->
<g id="node44" class="node">
<title>s9</title>
<polygon fill="#fecaca" stroke="black" points="9476.91,-117 9386.66,-117 9386.66,-81 9476.91,-81 9476.91,-117"/>
<text xml:space="preserve" text-anchor="middle" x="9431.78" y="-93.58" font-family="Helvetica,sans-Serif" font-size="14.00">s9: S9: error</text>
</g>
<!-- o8&#45;&gt;s9 -->
<g id="edge43" class="edge">
<title>o8&#45;&gt;s9</title>
<path fill="none" stroke="#64748b" d="M9294.43,-99C9319.36,-99 9349.38,-99 9374.9,-99"/>
<polygon fill="#64748b" stroke="#64748b" points="9374.76,-102.5 9384.76,-99 9374.76,-95.5 9374.76,-102.5"/>
<text xml:space="preserve" text-anchor="middle" x="9340.53" y="-102.2" font-family="Times New Roman,serif" font-size="14.00">transitions</text>
</g>
<!-- d10 -->
<g id="node45" class="node">
<title>d10</title>
<ellipse fill="#e2e8f0" stroke="black" cx="9595.99" cy="-99" rx="42.58" ry="18"/>
<text xml:space="preserve" text-anchor="middle" x="9595.99" y="-93.58" font-family="Helvetica,sans-Serif" font-size="14.00">d10: act</text>
</g>
<!-- s9&#45;&gt;d10 -->
<g id="edge44" class="edge">
<title>s9&#45;&gt;d10</title>
<path fill="none" stroke="#94a3b8" d="M9477.1,-99C9497.05,-99 9520.76,-99 9541.67,-99"/>
<polygon fill="#94a3b8" stroke="#94a3b8" points="9541.44,-102.5 9551.44,-99 9541.44,-95.5 9541.44,-102.5"/>
<text xml:space="preserve" text-anchor="middle" x="9515.16" y="-102.2" font-family="Times New Roman,serif" font-size="14.00">decides</text>
</g>
<!-- a9 -->
<g id="node46" class="node">
<title>a9</title>
<polygon fill="#e2e8f0" stroke="black" points="9985.32,-117 9695.57,-117 9695.57,-81 9991.32,-81 9991.32,-111 9985.32,-117"/>
<polyline fill="none" stroke="black" points="9985.32,-117 9985.32,-111"/>
<polyline fill="none" stroke="black" points="9991.32,-111 9985.32,-111"/>
<text xml:space="preserve" text-anchor="middle" x="9843.44" y="-93.58" font-family="Helvetica,sans-Serif" font-size="14.00">a9: apis.supervisor.complete_task(answer=50)</text>
</g>
<!-- d10&#45;&gt;a9 -->
<g id="edge45" class="edge">
<title>d10&#45;&gt;a9</title>
<path fill="none" stroke="#94a3b8" d="M9638.9,-99C9652.09,-99 9667.51,-99 9683.86,-99"/>
<polygon fill="#94a3b8" stroke="#94a3b8" points="9683.8,-102.5 9693.8,-99 9683.8,-95.5 9683.8,-102.5"/>
<text xml:space="preserve" text-anchor="middle" x="9667.07" y="-102.2" font-family="Times New Roman,serif" font-size="14.00">acts</text>
</g>
<!-- o9 -->
<g id="node47" class="node">
<title>o9</title>
<polygon fill="#fde68a" stroke="black" points="10181.32,-117 10059.57,-117 10059.57,-81 10181.32,-81 10181.32,-117"/>
<text xml:space="preserve" text-anchor="middle" x="10120.44" y="-93.58" font-family="Helvetica,sans-Serif" font-size="14.00">o9: ok (no output)</text>
</g>
<!-- a9&#45;&gt;o9 -->
<g id="edge46" class="edge">
<title>a9&#45;&gt;o9</title>
<path fill="none" stroke="#94a3b8" d="M9991.6,-99C10011.19,-99 10030.52,-99 10047.98,-99"/>
<polygon fill="#94a3b8" stroke="#94a3b8" points="10047.66,-102.5 10057.66,-99 10047.66,-95.5 10047.66,-102.5"/>
<text xml:space="preserve" text-anchor="middle" x="10025.44" y="-102.2" font-family="Times New Roman,serif" font-size="14.00">yields</text>
</g>
<!-- s10 -->
<g id="node48" class="node">
<title>s10</title>
<polygon fill="#e2e8f0" stroke="black" points="10417.82,-117 10273.57,-117 10273.57,-81 10417.82,-81 10417.82,-117"/>
<text xml:space="preserve" text-anchor="middle" x="10345.69" y="-93.58" font-family="Helvetica,sans-Serif" font-size="14.00">s10: S10: progressed</text>
</g>
<!-- o9&#45;&gt;s10 -->
<g id="edge47" class="edge">
<title>o9&#45;&gt;s10</title>
<path fill="none" stroke="#64748b" d="M10181.56,-99C10206.31,-99 10235.38,-99 10262.08,-99"/>
<polygon fill="#64748b" stroke="#64748b" points="10261.84,-102.5 10271.84,-99 10261.84,-95.5 10261.84,-102.5"/>
<text xml:space="preserve" text-anchor="middle" x="10227.44" y="-102.2" font-family="Times New Roman,serif" font-size="14.00">transitions</text>
</g>
</g>
</svg>
