<?xml version="1.0" encoding="UTF-8" standalone="no"?>
<!DOCTYPE svg PUBLIC "-//W3C//DTD SVG 1.1//EN"
 "http://www.w3.org/Graphics/SVG/1.1/DTD/svg11.dtd">
<!-- Generated by graphviz version 15.0.0 (20260523.1842)
 -->
<!-- Title: trajectory Pages: 1 -->
<svg width="12204pt" height="122pt"
 viewBox="0.00 0.00 12204.00 122.00" xmlns="http://www.w3.org/2000/svg" xmlns:xlink="http://www.w3.org/1999/xlink">
<g id="graph0" class="graph" transform="scale(1 1) rotate(0) translate(4 117.5)">
<title>trajectory</title>
<polygon fill="white" stroke="none" points="-4,4 -4,-117.5 12200.26,-117.5 12200.26,4 -4,4"/>
<text xml:space="preserve" text-anchor="middle" x="6098.13" y="-94.3" font-family="Times New Roman,serif" font-size="16.00">HELIX trajectory: 4ec8de5_2 | solved=False | steps=10 errors=1 recoveries=0</text>
<!-- s0 -->
<g id="node1" class="node">
<title>s0</title>
<polygon fill="#bfdbfe" stroke="black" points="120.25,-61.38 0,-61.38 0,-25.38 120.25,-25.38 120.25,-61.38"/>
<text xml:space="preserve" text-anchor="middle" x="60.12" y="-37.95" font-family="Helvetica,sans-Serif" font-size="14.00">s0: Task received</text>
</g>
<!-- d0 -->
<g id="node2" class="node">
<title>d0</title>
<ellipse fill="#e2e8f0" stroke="black" cx="374.56" cy="-43.38" rx="177.81" ry="18"/>
<text xml:space="preserve" text-anchor="middle" x="374.56" y="-37.95" font-family="Helvetica,sans-Serif" font-size="14.00">d0: Bootstrap: ground in real account data</text>
</g>
<!-- s0&#45;&gt;d0 -->
<g id="edge1" class="edge">
<title>s0&#45;&gt;d0</title>
<path fill="none" stroke="#94a3b8" d="M120.63,-43.38C139.65,-43.38 161.82,-43.38 184.98,-43.38"/>
<polygon fill="#94a3b8" stroke="#94a3b8" points="184.91,-46.88 194.91,-43.38 184.91,-39.88 184.91,-46.88"/>
<text xml:space="preserve" text-anchor="middle" x="158.5" y="-46.58" font-family="Times New Roman,serif" font-size="14.00">decides</text>
</g>
<!-- a0 -->
<g id="node3" class="node">
<title>a0</title>
<polygon fill="#e2e8f0" stroke="black" points="758.87,-61.38 609.37,-61.38 609.37,-25.38 764.87,-25.38 764.87,-55.38 758.87,-61.38"/>
<polyline fill="none" stroke="black" points="758.87,-61.38 758.87,-55.38"/>
<polyline fill="none" stroke="black" points="764.87,-55.38 758.87,-55.38"/>
<text xml:space="preserve" text-anchor="middle" x="687.12" y="-37.95" font-family="Helvetica,sans-Serif" font-size="14.00">a0: bootstrap discovery</text>
</g>
<!-- d0&#45;&gt;a0 -->
<g id="edge2" class="edge">
<title>d0&#45;&gt;a0</title>
<path fill="none" stroke="#94a3b8" d="M552.61,-43.38C568.2,-43.38 583.48,-43.38 597.83,-43.38"/>
<polygon fill="#94a3b8" stroke="#94a3b8" points="597.6,-46.88 607.6,-43.38 597.6,-39.88 597.6,-46.88"/>
<text xml:space="preserve" text-anchor="middle" x="580.87" y="-46.58" font-family="Times New Roman,serif" font-size="14.00">acts</text>
</g>
<!-- o0 -->
<g id="node4" class="node">
<title>o0</title>
<polygon fill="#bbf7d0" stroke="black" points="1014.87,-71 833.12,-71 833.12,-15.75 1014.87,-15.75 1014.87,-71"/>
<text xml:space="preserve" text-anchor="middle" x="923.99" y="-53.7" font-family="Helvetica,sans-Serif" font-size="14.00">o0: === ACTIVE TASK ===</text>
<text xml:space="preserve" text-anchor="middle" x="923.99" y="-37.95" font-family="Helvetica,sans-Serif" font-size="14.00">{</text>
<text xml:space="preserve" text-anchor="middle" x="923.99" y="-22.2" font-family="Helvetica,sans-Serif" font-size="14.00"> &#39;instruction&#39;: &#39;H ...[+11]</text>
</g>
<!-- a0&#45;&gt;o0 -->
<g id="edge3" class="edge">
<title>a0&#45;&gt;o0</title>
<path fill="none" stroke="#94a3b8" d="M765.35,-43.38C783.26,-43.38 802.59,-43.38 821.37,-43.38"/>
<polygon fill="#94a3b8" stroke="#94a3b8" points="821.15,-46.88 831.15,-43.38 821.15,-39.88 821.15,-46.88"/>
<text xml:space="preserve" text-anchor="middle" x="798.99" y="-46.58" font-family="Times New Roman,serif" font-size="14.00">yields</text>
</g>
<!-- s1 -->
<g id="node5" class="node">
<title>s1</title>
<polygon fill="#e2e8f0" stroke="black" points="1225.87,-61.38 1107.12,-61.38 1107.12,-25.38 1225.87,-25.38 1225.87,-61.38"/>
<text xml:space="preserve" text-anchor="middle" x="1166.49" y="-37.95" font-family="Helvetica,sans-Serif" font-size="14.00">s1: S1: grounded</text>
</g>
<!-- o0&#45;&gt;s1 -->
<g id="edge4" class="edge">
<title>o0&#45;&gt;s1</title>
<path fill="none" stroke="#64748b" d="M1015.23,-43.38C1041.81,-43.38 1070.49,-43.38 1095.59,-43.38"/>
<polygon fill="#64748b" stroke="#64748b" points="1095.34,-46.88 1105.34,-43.38 1095.34,-39.88 1095.34,-46.88"/>
<text xml:space="preserve" text-anchor="middle" x="1060.99" y="-46.58" font-family="Times New Roman,serif" font-size="14.00">transitions</text>
</g>
<!-- d1 -->
<g id="node6" class="node">
<title>d1</title>
<ellipse fill="#e2e8f0" stroke="black" cx="1509.12" cy="-43.38" rx="206.75" ry="18"/>
<text xml:space="preserve" text-anchor="middle" x="1509.12" y="-37.95" font-family="Helvetica,sans-Serif" font-size="14.00">d1: Let me check spotify login and library A ...[+4]</text>
</g>
<!-- s1&#45;&gt;d1 -->
<g id="edge5" class="edge">
<title>s1&#45;&gt;d1</title>
<path fill="none" stroke="#94a3b8" d="M1226.05,-43.38C1245.01,-43.38 1267.29,-43.38 1290.87,-43.38"/>
<polygon fill="#94a3b8" stroke="#94a3b8" points="1290.65,-46.88 1300.65,-43.38 1290.65,-39.88 1290.65,-46.88"/>
<text xml:space="preserve" text-anchor="middle" x="1264.12" y="-46.58" font-family="Times New Roman,serif" font-size="14.00">decides</text>
</g>
<!-- a1 -->
<g id="node7" class="node">
<title>a1</title>
<polygon fill="#e2e8f0" stroke="black" points="2115.87,-61.38 1772.87,-61.38 1772.87,-25.38 2121.87,-25.38 2121.87,-55.38 2115.87,-61.38"/>
<polyline fill="none" stroke="black" points="2115.87,-61.38 2115.87,-55.38"/>
<polyline fill="none" stroke="black" points="2121.87,-55.38 2115.87,-55.38"/>
<text xml:space="preserve" text-anchor="middle" x="1947.37" y="-37.95" font-family="Helvetica,sans-Serif" font-size="14.00">a1: print(apis.api_docs.show_api_doc(app_nam ...[+23]</text>
</g>
<!-- d1&#45;&gt;a1 -->
<g id="edge6" class="edge">
<title>d1&#45;&gt;a1</title>
<path fill="none" stroke="#94a3b8" d="M1716.11,-43.38C1731.14,-43.38 1746.25,-43.38 1761.14,-43.38"/>
<polygon fill="#94a3b8" stroke="#94a3b8" points="1760.98,-46.88 1770.98,-43.38 1760.98,-39.88 1760.98,-46.88"/>
<text xml:space="preserve" text-anchor="middle" x="1744.37" y="-46.58" font-family="Times New Roman,serif" font-size="14.00">acts</text>
</g>
<!-- o1 -->
<g id="node8" class="node">
<title>o1</title>
<polygon fill="#bbf7d0" stroke="black" points="2336.62,-71 2190.12,-71 2190.12,-15.75 2336.62,-15.75 2336.62,-71"/>
<text xml:space="preserve" text-anchor="middle" x="2263.37" y="-53.7" font-family="Helvetica,sans-Serif" font-size="14.00">o1: {</text>
<text xml:space="preserve" text-anchor="middle" x="2263.37" y="-37.95" font-family="Helvetica,sans-Serif" font-size="14.00"> &#39;app_name&#39;: &#39;spotify&#39;,</text>
<text xml:space="preserve" text-anchor="middle" x="2263.37" y="-22.2" font-family="Helvetica,sans-Serif" font-size="14.00"> &#39;api_name&#39;: &#39; ...[+11]</text>
</g>
<!-- a1&#45;&gt;o1 -->
<g id="edge7" class="edge">
<title>a1&#45;&gt;o1</title>
<path fill="none" stroke="#94a3b8" d="M2122.36,-43.38C2141.86,-43.38 2161,-43.38 2178.57,-43.38"/>
<polygon fill="#94a3b8" stroke="#94a3b8" points="2178.37,-46.88 2188.37,-43.38 2178.37,-39.88 2178.37,-46.88"/>
<text xml:space="preserve" text-anchor="middle" x="2155.99" y="-46.58" font-family="Times New Roman,serif" font-size="14.00">yields</text>
</g>
<!-- s2 -->
<g id="node9" class="node">
<title>s2</title>
<polygon fill="#e2e8f0" stroke="black" points="2558.12,-61.38 2428.87,-61.38 2428.87,-25.38 2558.12,-25.38 2558.12,-61.38"/>
<text xml:space="preserve" text-anchor="middle" x="2493.49" y="-37.95" font-family="Helvetica,sans-Serif" font-size="14.00">s2: S2: progressed</text>
</g>
<!-- o1&#45;&gt;s2 -->
<g id="edge8" class="edge">
<title>o1&#45;&gt;s2</title>
<path fill="none" stroke="#64748b" d="M2336.86,-43.38C2362.55,-43.38 2391.49,-43.38 2417.39,-43.38"/>
<polygon fill="#64748b" stroke="#64748b" points="2417.15,-46.88 2427.15,-43.38 2417.15,-39.88 2417.15,-46.88"/>
<text xml:space="preserve" text-anchor="middle" x="2382.74" y="-46.58" font-family="Times New Roman,serif" font-size="14.00">transitions</text>
</g>
<!-- d2 -->
<g id="node10" class="node">
<title>d2</title>
<ellipse fill="#e2e8f0" stroke="black" cx="2672.21" cy="-43.38" rx="37.59" ry="18"/>
<text xml:space="preserve" text-anchor="middle" x="2672.21" y="-37.95" font-family="Helvetica,sans-Serif" font-size="14.00">d2: act</text>
</g>
<!-- s2&#45;&gt;d2 -->
<g id="edge9" class="edge">
<title>s2&#45;&gt;d2</title>
<path fill="none" stroke="#94a3b8" d="M2558.54,-43.38C2579.85,-43.38 2603.19,-43.38 2623.08,-43.38"/>
<polygon fill="#94a3b8" stroke="#94a3b8" points="2622.84,-46.88 2632.84,-43.38 2622.84,-39.88 2622.84,-46.88"/>
<text xml:space="preserve" text-anchor="middle" x="2596.37" y="-46.58" font-family="Times New Roman,serif" font-size="14.00">decides</text>
</g>
<!-- a2 -->
<g id="node11" class="node">
<title>a2</title>
<polygon fill="#e2e8f0" stroke="black" points="3084.3,-61.38 2766.8,-61.38 2766.8,-25.38 3090.3,-25.38 3090.3,-55.38 3084.3,-61.38"/>
<polyline fill="none" stroke="black" points="3084.3,-61.38 3084.3,-55.38"/>
<polyline fill="none" stroke="black" points="3090.3,-55.38 3084.3,-55.38"/>
<text xml:space="preserve" text-anchor="middle" x="2928.55" y="-37.95" font-family="Helvetica,sans-Serif" font-size="14.00">a2: login = apis.spotify.login(username=&#39;bra ...[+23]</text>
</g>
<!-- d2&#45;&gt;a2 -->
<g id="edge10" class="edge">
<title>d2&#45;&gt;a2</title>
<path fill="none" stroke="#94a3b8" d="M2710.19,-43.38C2723.13,-43.38 2738.64,-43.38 2755.34,-43.38"/>
<polygon fill="#94a3b8" stroke="#94a3b8" points="2754.95,-46.88 2764.95,-43.38 2754.95,-39.88 2754.95,-46.88"/>
<text xml:space="preserve" text-anchor="middle" x="2738.3" y="-46.58" font-family="Times New Roman,serif" font-size="14.00">acts</text>
</g>
<!-- o2 -->
<g id="node12" class="node">
<title>o2</title>
<polygon fill="#bbf7d0" stroke="black" points="3515.8,-61.38 3158.55,-61.38 3158.55,-25.38 3515.8,-25.38 3515.8,-61.38"/>
<text xml:space="preserve" text-anchor="middle" x="3337.18" y="-37.95" font-family="Helvetica,sans-Serif" font-size="14.00">o2: eyJhbGciOiJIUzI1NiIsInR5cCI6IkpXVCJ9.eyJ ...[+11]</text>
</g>
<!-- a2&#45;&gt;o2 -->
<g id="edge11" class="edge">
<title>a2&#45;&gt;o2</title>
<path fill="none" stroke="#94a3b8" d="M3090.55,-43.38C3109.01,-43.38 3127.96,-43.38 3146.75,-43.38"/>
<polygon fill="#94a3b8" stroke="#94a3b8" points="3146.59,-46.88 3156.59,-43.38 3146.59,-39.88 3146.59,-46.88"/>
<text xml:space="preserve" text-anchor="middle" x="3124.43" y="-46.58" font-family="Times New Roman,serif" font-size="14.00">yields</text>
</g>
<!-- s3 -->
<g id="node13" class="node">
<title>s3</title>
<polygon fill="#e2e8f0" stroke="black" points="3737.3,-61.38 3608.05,-61.38 3608.05,-25.38 3737.3,-25.38 3737.3,-61.38"/>
<text xml:space="preserve" text-anchor="middle" x="3672.68" y="-37.95" font-family="Helvetica,sans-Serif" font-size="14.00">s3: S3: progressed</text>
</g>
<!-- o2&#45;&gt;s3 -->
<g id="edge12" class="edge">
<title>o2&#45;&gt;s3</title>
<path fill="none" stroke="#64748b" d="M3516.15,-43.38C3544.3,-43.38 3572.01,-43.38 3596.08,-43.38"/>
<polygon fill="#64748b" stroke="#64748b" points="3596.07,-46.88 3606.07,-43.38 3596.07,-39.88 3596.07,-46.88"/>
<text xml:space="preserve" text-anchor="middle" x="3561.93" y="-46.58" font-family="Times New Roman,serif" font-size="14.00">transitions</text>
</g>
<!-- d3 -->
<g id="node14" class="node">
<title>d3</title>
<ellipse fill="#e2e8f0" stroke="black" cx="4025.54" cy="-43.38" rx="211.74" ry="18"/>
<text xml:space="preserve" text-anchor="middle" x="4025.54" y="-37.95" font-family="Helvetica,sans-Serif" font-size="14.00">d3: The &#39;song library&#39; = liked songs, &#39;album ...[+30]</text>
</g>
<!-- s3&#45;&gt;d3 -->
<g id="edge13" class="edge">
<title>s3&#45;&gt;d3</title>
<path fill="none" stroke="#94a3b8" d="M3737.62,-43.38C3756.65,-43.38 3778.66,-43.38 3801.86,-43.38"/>
<polygon fill="#94a3b8" stroke="#94a3b8" points="3801.83,-46.88 3811.83,-43.38 3801.83,-39.88 3801.83,-46.88"/>
<text xml:space="preserve" text-anchor="middle" x="3775.55" y="-46.58" font-family="Times New Roman,serif" font-size="14.00">decides</text>
</g>
<!-- a3 -->
<g id="node15" class="node">
<title>a3</title>
<polygon fill="#e2e8f0" stroke="black" points="4404.03,-61.38 4294.28,-61.38 4294.28,-25.38 4410.03,-25.38 4410.03,-55.38 4404.03,-61.38"/>
<polyline fill="none" stroke="black" points="4404.03,-61.38 4404.03,-55.38"/>
<polyline fill="none" stroke="black" points="4410.03,-55.38 4404.03,-55.38"/>
<text xml:space="preserve" text-anchor="middle" x="4352.16" y="-37.95" font-family="Helvetica,sans-Serif" font-size="14.00">a3: song_ids = []</text>
</g>
<!-- d3&#45;&gt;a3 -->
<g id="edge14" class="edge">
<title>d3&#45;&gt;a3</title>
<path fill="none" stroke="#94a3b8" d="M4237.62,-43.38C4253.52,-43.38 4268.72,-43.38 4282.55,-43.38"/>
<polygon fill="#94a3b8" stroke="#94a3b8" points="4282.31,-46.88 4292.31,-43.38 4282.31,-39.88 4282.31,-46.88"/>
<text xml:space="preserve" text-anchor="middle" x="4265.78" y="-46.58" font-family="Times New Roman,serif" font-size="14.00">acts</text>
</g>
<!-- o3 -->
<g id="node16" class="node">
<title>o3</title>
<polygon fill="#fecaca" stroke="black" points="4612.03,-61.38 4478.28,-61.38 4478.28,-25.38 4612.03,-25.38 4612.03,-61.38"/>
<text xml:space="preserve" text-anchor="middle" x="4545.16" y="-37.95" font-family="Helvetica,sans-Serif" font-size="14.00">o3: error: TypeError</text>
</g>
<!-- a3&#45;&gt;o3 -->
<g id="edge15" class="edge">
<title>a3&#45;&gt;o3</title>
<path fill="none" stroke="#94a3b8" d="M4410.46,-43.38C4428.03,-43.38 4447.65,-43.38 4466.34,-43.38"/>
<polygon fill="#94a3b8" stroke="#94a3b8" points="4466.32,-46.88 4476.32,-43.38 4466.32,-39.88 4466.32,-46.88"/>
<text xml:space="preserve" text-anchor="middle" x="4444.16" y="-46.58" font-family="Times New Roman,serif" font-size="14.00">yields</text>
</g>
<!-- s4 -->
<g id="node17" class="node">
<title>s4</title>
<polygon fill="#fecaca" stroke="black" points="4794.53,-61.38 4704.28,-61.38 4704.28,-25.38 4794.53,-25.38 4794.53,-61.38"/>
<text xml:space="preserve" text-anchor="middle" x="4749.41" y="-37.95" font-family="Helvetica,sans-Serif" font-size="14.00">s4: S4: error</text>
</g>
<!-- o3&#45;&gt;s4 -->
<g id="edge16" class="edge">
<title>o3&#45;&gt;s4</title>
<path fill="none" stroke="#64748b" d="M4612.38,-43.38C4638.34,-43.38 4667.79,-43.38 4692.64,-43.38"/>
<polygon fill="#64748b" stroke="#64748b" points="4692.55,-46.88 4702.55,-43.38 4692.55,-39.88 4692.55,-46.88"/>
<text xml:space="preserve" text-anchor="middle" x="4658.16" y="-46.58" font-family="Times New Roman,serif" font-size="14.00">transitions</text>
</g>
<!-- d4 -->
<g id="node18" class="node">
<title>d4</title>
<ellipse fill="#e2e8f0" stroke="black" cx="5073.79" cy="-43.38" rx="202.76" ry="18"/>
<text xml:space="preserve" text-anchor="middle" x="5073.79" y="-37.95" font-family="Helvetica,sans-Serif" font-size="14.00">d4: The response is a list, not dict. Let me ...[+9]</text>
</g>
<!-- s4&#45;&gt;d4 -->
<g id="edge17" class="edge">
<title>s4&#45;&gt;d4</title>
<path fill="none" stroke="#94a3b8" d="M4794.89,-43.38C4813.02,-43.38 4835.39,-43.38 4859.5,-43.38"/>
<polygon fill="#94a3b8" stroke="#94a3b8" points="4859.17,-46.88 4869.17,-43.38 4859.17,-39.88 4859.17,-46.88"/>
<text xml:space="preserve" text-anchor="middle" x="4832.78" y="-46.58" font-family="Times New Roman,serif" font-size="14.00">decides</text>
</g>
<!-- a4 -->
<g id="node19" class="node">
<title>a4</title>
<polygon fill="#e2e8f0" stroke="black" points="5659.3,-61.38 5333.55,-61.38 5333.55,-25.38 5665.3,-25.38 5665.3,-55.38 5659.3,-61.38"/>
<polyline fill="none" stroke="black" points="5659.3,-61.38 5659.3,-55.38"/>
<polyline fill="none" stroke="black" points="5665.3,-55.38 5659.3,-55.38"/>
<text xml:space="preserve" text-anchor="middle" x="5499.42" y="-37.95" font-family="Helvetica,sans-Serif" font-size="14.00">a4: r = apis.spotify.show_liked_songs(access ...[+23]</text>
</g>
<!-- d4&#45;&gt;a4 -->
<g id="edge18" class="edge">
<title>d4&#45;&gt;a4</title>
<path fill="none" stroke="#94a3b8" d="M5276.99,-43.38C5292.01,-43.38 5307.09,-43.38 5321.93,-43.38"/>
<polygon fill="#94a3b8" stroke="#94a3b8" points="5321.71,-46.88 5331.71,-43.38 5321.71,-39.88 5321.71,-46.88"/>
<text xml:space="preserve" text-anchor="middle" x="5305.05" y="-46.58" font-family="Times New Roman,serif" font-size="14.00">acts</text>
</g>
<!-- o4 -->
<g id="node20" class="node">
<title>o4</title>
<polygon fill="#bbf7d0" stroke="black" points="5845.55,-86.75 5733.55,-86.75 5733.55,0 5845.55,0 5845.55,-86.75"/>
<text xml:space="preserve" text-anchor="middle" x="5789.55" y="-69.45" font-family="Helvetica,sans-Serif" font-size="14.00">o4: &lt;class &#39;list&#39;&gt;</text>
<text xml:space="preserve" text-anchor="middle" x="5789.55" y="-53.7" font-family="Helvetica,sans-Serif" font-size="14.00">[</text>
<text xml:space="preserve" text-anchor="middle" x="5789.55" y="-37.95" font-family="Helvetica,sans-Serif" font-size="14.00"> {</text>
<text xml:space="preserve" text-anchor="middle" x="5789.55" y="-22.2" font-family="Helvetica,sans-Serif" font-size="14.00"> &#160;&#39;song_id&#39;: 18,</text>
<text xml:space="preserve" text-anchor="middle" x="5789.55" y="-6.45" font-family="Helvetica,sans-Serif" font-size="14.00"> &#160;&#39; ...[+11]</text>
</g>
<!-- a4&#45;&gt;o4 -->
<g id="edge19" class="edge">
<title>a4&#45;&gt;o4</title>
<path fill="none" stroke="#94a3b8" d="M5665.52,-43.38C5685.53,-43.38 5704.99,-43.38 5722.3,-43.38"/>
<polygon fill="#94a3b8" stroke="#94a3b8" points="5721.84,-46.88 5731.84,-43.38 5721.84,-39.88 5721.84,-46.88"/>
<text xml:space="preserve" text-anchor="middle" x="5699.42" y="-46.58" font-family="Times New Roman,serif" font-size="14.00">yields</text>
</g>
<!-- s5 -->
<g id="node21" class="node">
<title>s5</title>
<polygon fill="#e2e8f0" stroke="black" points="6067.05,-61.38 5937.8,-61.38 5937.8,-25.38 6067.05,-25.38 6067.05,-61.38"/>
<text xml:space="preserve" text-anchor="middle" x="6002.42" y="-37.95" font-family="Helvetica,sans-Serif" font-size="14.00">s5: S5: progressed</text>
</g>
<!-- o4&#45;&gt;s5 -->
<g id="edge20" class="edge">
<title>o4&#45;&gt;s5</title>
<path fill="none" stroke="#64748b" d="M5845.95,-43.38C5870.51,-43.38 5899.78,-43.38 5926.27,-43.38"/>
<polygon fill="#64748b" stroke="#64748b" points="5925.92,-46.88 5935.92,-43.38 5925.92,-39.88 5925.92,-46.88"/>
<text xml:space="preserve" text-anchor="middle" x="5891.67" y="-46.58" font-family="Times New Roman,serif" font-size="14.00">transitions</text>
</g>
<!-- d5 -->
<g id="node22" class="node">
<title>d5</title>
<ellipse fill="#e2e8f0" stroke="black" cx="6347.31" cy="-43.38" rx="203.76" ry="18"/>
<text xml:space="preserve" text-anchor="middle" x="6347.31" y="-37.95" font-family="Helvetica,sans-Serif" font-size="14.00">d5: The list returns song objects directly. &#160;...[+29]</text>
</g>
<!-- s5&#45;&gt;d5 -->
<g id="edge21" class="edge">
<title>s5&#45;&gt;d5</title>
<path fill="none" stroke="#94a3b8" d="M6067.51,-43.38C6086.59,-43.38 6108.63,-43.38 6131.79,-43.38"/>
<polygon fill="#94a3b8" stroke="#94a3b8" points="6131.73,-46.88 6141.73,-43.38 6131.73,-39.88 6131.73,-46.88"/>
<text xml:space="preserve" text-anchor="middle" x="6105.3" y="-46.58" font-family="Times New Roman,serif" font-size="14.00">decides</text>
</g>
<!-- a5 -->
<g id="node23" class="node">
<title>a5</title>
<polygon fill="#e2e8f0" stroke="black" points="6735.06,-61.38 6608.06,-61.38 6608.06,-25.38 6741.06,-25.38 6741.06,-55.38 6735.06,-61.38"/>
<polyline fill="none" stroke="black" points="6735.06,-61.38 6735.06,-55.38"/>
<polyline fill="none" stroke="black" points="6741.06,-55.38 6735.06,-55.38"/>
<text xml:space="preserve" text-anchor="middle" x="6674.56" y="-37.95" font-family="Helvetica,sans-Serif" font-size="14.00">a5: liked_songs = []</text>
</g>
<!-- d5&#45;&gt;a5 -->
<g id="edge22" class="edge">
<title>d5&#45;&gt;a5</title>
<path fill="none" stroke="#94a3b8" d="M6551.52,-43.38C6567.17,-43.38 6582.29,-43.38 6596.23,-43.38"/>
<polygon fill="#94a3b8" stroke="#94a3b8" points="6596.15,-46.88 6606.15,-43.38 6596.15,-39.88 6596.15,-46.88"/>
<text xml:space="preserve" text-anchor="middle" x="6579.56" y="-46.58" font-family="Times New Roman,serif" font-size="14.00">acts</text>
</g>
<!-- o5 -->
<g id="node24" class="node">
<title>o5</title>
<polygon fill="#bbf7d0" stroke="black" points="6991.06,-63.12 6809.31,-63.12 6809.31,-23.62 6991.06,-23.62 6991.06,-63.12"/>
<text xml:space="preserve" text-anchor="middle" x="6900.19" y="-45.83" font-family="Helvetica,sans-Serif" font-size="14.00">o5: liked songs collected 12</text>
<text xml:space="preserve" text-anchor="middle" x="6900.19" y="-30.07" font-family="Helvetica,sans-Serif" font-size="14.00">liked albums co ...[+10]</text>
</g>
<!-- a5&#45;&gt;o5 -->
<g id="edge23" class="edge">
<title>a5&#45;&gt;o5</title>
<path fill="none" stroke="#94a3b8" d="M6741.45,-43.38C6759.03,-43.38 6778.44,-43.38 6797.46,-43.38"/>
<polygon fill="#94a3b8" stroke="#94a3b8" points="6797.4,-46.88 6807.4,-43.38 6797.4,-39.88 6797.4,-46.88"/>
<text xml:space="preserve" text-anchor="middle" x="6775.19" y="-46.58" font-family="Times New Roman,serif" font-size="14.00">yields</text>
</g>
<!-- s6 -->
<g id="node25" class="node">
<title>s6</title>
<polygon fill="#e2e8f0" stroke="black" points="7212.56,-61.38 7083.31,-61.38 7083.31,-25.38 7212.56,-25.38 7212.56,-61.38"/>
<text xml:space="preserve" text-anchor="middle" x="7147.94" y="-37.95" font-family="Helvetica,sans-Serif" font-size="14.00">s6: S6: progressed</text>
</g>
<!-- o5&#45;&gt;s6 -->
<g id="edge24" class="edge">
<title>o5&#45;&gt;s6</title>
<path fill="none" stroke="#64748b" d="M6991.3,-43.38C7017.67,-43.38 7046.22,-43.38 7071.57,-43.38"/>
<polygon fill="#64748b" stroke="#64748b" points="7071.46,-46.88 7081.46,-43.38 7071.46,-39.88 7071.46,-46.88"/>
<text xml:space="preserve" text-anchor="middle" x="7037.19" y="-46.58" font-family="Times New Roman,serif" font-size="14.00">transitions</text>
</g>
<!-- d6 -->
<g id="node26" class="node">
<title>d6</title>
<ellipse fill="#e2e8f0" stroke="black" cx="7517.77" cy="-43.38" rx="228.71" ry="18"/>
<text xml:space="preserve" text-anchor="middle" x="7517.77" y="-37.95" font-family="Helvetica,sans-Serif" font-size="14.00">d6: Albums have release_date and song_ids. F ...[+30]</text>
</g>
<!-- s6&#45;&gt;d6 -->
<g id="edge25" class="edge">
<title>s6&#45;&gt;d6</title>
<path fill="none" stroke="#94a3b8" d="M7213.01,-43.38C7231.94,-43.38 7253.86,-43.38 7277.1,-43.38"/>
<polygon fill="#94a3b8" stroke="#94a3b8" points="7277.09,-46.88 7287.09,-43.38 7277.09,-39.88 7277.09,-46.88"/>
<text xml:space="preserve" text-anchor="middle" x="7250.81" y="-46.58" font-family="Times New Roman,serif" font-size="14.00">decides</text>
</g>
<!-- a6 -->
<g id="node27" class="node">
<title>a6</title>
<polygon fill="#e2e8f0" stroke="black" points="8146.47,-61.38 7803.47,-61.38 7803.47,-25.38 8152.47,-25.38 8152.47,-55.38 8146.47,-61.38"/>
<polyline fill="none" stroke="black" points="8146.47,-61.38 8146.47,-55.38"/>
<polyline fill="none" stroke="black" points="8152.47,-55.38 8146.47,-55.38"/>
<text xml:space="preserve" text-anchor="middle" x="7977.97" y="-37.95" font-family="Helvetica,sans-Serif" font-size="14.00">a6: print(apis.api_docs.show_api_doc(app_nam ...[+23]</text>
</g>
<!-- d6&#45;&gt;a6 -->
<g id="edge26" class="edge">
<title>d6&#45;&gt;a6</title>
<path fill="none" stroke="#94a3b8" d="M7746.86,-43.38C7761.97,-43.38 7777.09,-43.38 7791.95,-43.38"/>
<polygon fill="#94a3b8" stroke="#94a3b8" points="7791.74,-46.88 7801.74,-43.38 7791.74,-39.88 7791.74,-46.88"/>
<text xml:space="preserve" text-anchor="middle" x="7774.97" y="-46.58" font-family="Times New Roman,serif" font-size="14.00">acts</text>
</g>
<!-- o6 -->
<g id="node28" class="node">
<title>o6</title>
<polygon fill="#bbf7d0" stroke="black" points="8367.22,-71 8220.72,-71 8220.72,-15.75 8367.22,-15.75 8367.22,-71"/>
<text xml:space="preserve" text-anchor="middle" x="8293.97" y="-53.7" font-family="Helvetica,sans-Serif" font-size="14.00">o6: {</text>
<text xml:space="preserve" text-anchor="middle" x="8293.97" y="-37.95" font-family="Helvetica,sans-Serif" font-size="14.00"> &#39;app_name&#39;: &#39;spotify&#39;,</text>
<text xml:space="preserve" text-anchor="middle" x="8293.97" y="-22.2" font-family="Helvetica,sans-Serif" font-size="14.00"> &#39;api_name&#39;: &#39; ...[+10]</text>
</g>
<!-- a6&#45;&gt;o6 -->
<g id="edge27" class="edge">
<title>a6&#45;&gt;o6</title>
<path fill="none" stroke="#94a3b8" d="M8152.96,-43.38C8172.46,-43.38 8191.61,-43.38 8209.18,-43.38"/>
<polygon fill="#94a3b8" stroke="#94a3b8" points="8208.97,-46.88 8218.97,-43.38 8208.97,-39.88 8208.97,-46.88"/>
<text xml:space="preserve" text-anchor="middle" x="8186.6" y="-46.58" font-family="Times New Roman,serif" font-size="14.00">yields</text>
</g>
<!-- s7 -->
<g id="node29" class="node">
<title>s7</title>
<polygon fill="#e2e8f0" stroke="black" points="8588.72,-61.38 8459.47,-61.38 8459.47,-25.38 8588.72,-25.38 8588.72,-61.38"/>
<text xml:space="preserve" text-anchor="middle" x="8524.1" y="-37.95" font-family="Helvetica,sans-Serif" font-size="14.00">s7: S7: progressed</text>
</g>
<!-- o6&#45;&gt;s7 -->
<g id="edge28" class="edge">
<title>o6&#45;&gt;s7</title>
<path fill="none" stroke="#64748b" d="M8367.47,-43.38C8393.15,-43.38 8422.09,-43.38 8447.99,-43.38"/>
<polygon fill="#64748b" stroke="#64748b" points="8447.75,-46.88 8457.75,-43.38 8447.75,-39.88 8447.75,-46.88"/>
<text xml:space="preserve" text-anchor="middle" x="8413.35" y="-46.58" font-family="Times New Roman,serif" font-size="14.00">transitions</text>
</g>
<!-- d7 -->
<g id="node30" class="node">
<title>d7</title>
<ellipse fill="#e2e8f0" stroke="black" cx="8892.93" cy="-43.38" rx="227.71" ry="18"/>
<text xml:space="preserve" text-anchor="middle" x="8892.93" y="-37.95" font-family="Helvetica,sans-Serif" font-size="14.00">d7: show_song gives per&#45;song release_date. T ...[+30]</text>
</g>
<!-- s7&#45;&gt;d7 -->
<g id="edge29" class="edge">
<title>s7&#45;&gt;d7</title>
<path fill="none" stroke="#94a3b8" d="M8589,-43.38C8608.05,-43.38 8630.14,-43.38 8653.56,-43.38"/>
<polygon fill="#94a3b8" stroke="#94a3b8" points="8653.26,-46.88 8663.26,-43.38 8653.26,-39.88 8653.26,-46.88"/>
<text xml:space="preserve" text-anchor="middle" x="8626.97" y="-46.58" font-family="Times New Roman,serif" font-size="14.00">decides</text>
</g>
<!-- a7 -->
<g id="node31" class="node">
<title>a7</title>
<polygon fill="#e2e8f0" stroke="black" points="9419.39,-61.38 9177.64,-61.38 9177.64,-25.38 9425.39,-25.38 9425.39,-55.38 9419.39,-61.38"/>
<polyline fill="none" stroke="black" points="9419.39,-61.38 9419.39,-55.38"/>
<polyline fill="none" stroke="black" points="9425.39,-55.38 9419.39,-55.38"/>
<text xml:space="preserve" text-anchor="middle" x="9301.52" y="-37.95" font-family="Helvetica,sans-Serif" font-size="14.00">a7: # Collect song ids from liked songs</text>
</g>
<!-- d7&#45;&gt;a7 -->
<g id="edge30" class="edge">
<title>d7&#45;&gt;a7</title>
<path fill="none" stroke="#94a3b8" d="M9121,-43.38C9136.36,-43.38 9151.55,-43.38 9166.19,-43.38"/>
<polygon fill="#94a3b8" stroke="#94a3b8" points="9165.76,-46.88 9175.76,-43.38 9165.76,-39.88 9165.76,-46.88"/>
<text xml:space="preserve" text-anchor="middle" x="9149.14" y="-46.58" font-family="Times New Roman,serif" font-size="14.00">acts</text>
</g>
<!-- o7 -->
<g id="node32" class="node">
<title>o7</title>
<polygon fill="#bbf7d0" stroke="black" points="9679.89,-63.12 9493.64,-63.12 9493.64,-23.62 9679.89,-23.62 9679.89,-63.12"/>
<text xml:space="preserve" text-anchor="middle" x="9586.77" y="-45.83" font-family="Helvetica,sans-Serif" font-size="14.00">o7: unique song ids 57</text>
<text xml:space="preserve" text-anchor="middle" x="9586.77" y="-30.07" font-family="Helvetica,sans-Serif" font-size="14.00">songs released in 202 ...[+8]</text>
</g>
<!-- a7&#45;&gt;o7 -->
<g id="edge31" class="edge">
<title>a7&#45;&gt;o7</title>
<path fill="none" stroke="#94a3b8" d="M9425.52,-43.38C9444.31,-43.38 9463.55,-43.38 9481.88,-43.38"/>
<polygon fill="#94a3b8" stroke="#94a3b8" points="9481.65,-46.88 9491.65,-43.38 9481.65,-39.88 9481.65,-46.88"/>
<text xml:space="preserve" text-anchor="middle" x="9459.52" y="-46.58" font-family="Times New Roman,serif" font-size="14.00">yields</text>
</g>
<!-- s8 -->
<g id="node33" class="node">
<title>s8</title>
<polygon fill="#e2e8f0" stroke="black" points="9901.39,-61.38 9772.14,-61.38 9772.14,-25.38 9901.39,-25.38 9901.39,-61.38"/>
<text xml:space="preserve" text-anchor="middle" x="9836.77" y="-37.95" font-family="Helvetica,sans-Serif" font-size="14.00">s8: S8: progressed</text>
</g>
<!-- o7&#45;&gt;s8 -->
<g id="edge32" class="edge">
<title>o7&#45;&gt;s8</title>
<path fill="none" stroke="#64748b" d="M9680.11,-43.38C9706.62,-43.38 9735.21,-43.38 9760.55,-43.38"/>
<polygon fill="#64748b" stroke="#64748b" points="9760.44,-46.88 9770.44,-43.38 9760.44,-39.88 9760.44,-46.88"/>
<text xml:space="preserve" text-anchor="middle" x="9726.02" y="-46.58" font-family="Times New Roman,serif" font-size="14.00">transitions</text>
</g>
<!-- d8 -->
<g id="node34" class="node">
<title>d8</title>
<ellipse fill="#e2e8f0" stroke="black" cx="10201.61" cy="-43.38" rx="223.72" ry="18"/>
<text xml:space="preserve" text-anchor="middle" x="10201.61" y="-37.95" font-family="Helvetica,sans-Serif" font-size="14.00">d8: Let me verify—the question may treat son ...[+30]</text>
</g>
<!-- s8&#45;&gt;d8 -->
<g id="edge33" class="edge">
<title>s8&#45;&gt;d8</title>
<path fill="none" stroke="#94a3b8" d="M9901.8,-43.38C9920.77,-43.38 9942.74,-43.38 9965.99,-43.38"/>
<polygon fill="#94a3b8" stroke="#94a3b8" points="9965.98,-46.88 9975.98,-43.38 9965.98,-39.88 9965.98,-46.88"/>
<text xml:space="preserve" text-anchor="middle" x="9939.64" y="-46.58" font-family="Times New Roman,serif" font-size="14.00">decides</text>
</g>
<!-- a8 -->
<g id="node35" class="node">
<title>a8</title>
<polygon fill="#e2e8f0" stroke="black" points="10672.32,-61.38 10482.32,-61.38 10482.32,-25.38 10678.32,-25.38 10678.32,-55.38 10672.32,-61.38"/>
<polyline fill="none" stroke="black" points="10672.32,-61.38 10672.32,-55.38"/>
<polyline fill="none" stroke="black" points="10678.32,-55.38 10672.32,-55.38"/>
<text xml:space="preserve" text-anchor="middle" x="10580.32" y="-37.95" font-family="Helvetica,sans-Serif" font-size="14.00">a8: yrs = [y for _,_,y in details]</text>
</g>
<!-- d8&#45;&gt;a8 -->
<g id="edge34" class="edge">
<title>d8&#45;&gt;a8</title>
<path fill="none" stroke="#94a3b8" d="M10425.56,-43.38C10441.1,-43.38 10456.32,-43.38 10470.77,-43.38"/>
<polygon fill="#94a3b8" stroke="#94a3b8" points="10470.67,-46.88 10480.67,-43.38 10470.67,-39.88 10470.67,-46.88"/>
<text xml:space="preserve" text-anchor="middle" x="10453.82" y="-46.58" font-family="Times New Roman,serif" font-size="14.00">acts</text>
</g>
<!-- o8 -->
<g id="node36" class="node">
<title>o8</title>
<polygon fill="#bbf7d0" stroke="black" points="11043.82,-61.38 10746.57,-61.38 10746.57,-25.38 11043.82,-25.38 11043.82,-61.38"/>
<text xml:space="preserve" text-anchor="middle" x="10895.2" y="-37.95" font-family="Helvetica,sans-Serif" font-size="14.00">o8: {&#39;2023&#39;: 17, &#39;2021&#39;: 16, &#39;2022&#39;: 22, &#39;20 ...[+9]</text>
</g>
<!-- a8&#45;&gt;o8 -->
<g id="edge35" class="edge">
<title>a8&#45;&gt;o8</title>
<path fill="none" stroke="#94a3b8" d="M10678.6,-43.38C10696.52,-43.38 10715.66,-43.38 10734.85,-43.38"/>
<polygon fill="#94a3b8" stroke="#94a3b8" points="10734.64,-46.88 10744.64,-43.38 10734.64,-39.88 10734.64,-46.88"/>
<text xml:space="preserve" text-anchor="middle" x="10712.45" y="-46.58" font-family="Times New Roman,serif" font-size="14.00">yields</text>
</g>
<!-- s9 -->
<g id="node37" class="node">
<title>s9</title>
<polygon fill="#e2e8f0" stroke="black" points="11265.32,-61.38 11136.07,-61.38 11136.07,-25.38 11265.32,-25.38 11265.32,-61.38"/>
<text xml:space="preserve" text-anchor="middle" x="11200.7" y="-37.95" font-family="Helvetica,sans-Serif" font-size="14.00">s9: S9: progressed</text>
</g>
<!-- o8&#45;&gt;s9 -->
<g id="edge36" class="edge">
<title>o8&#45;&gt;s9</title>
<path fill="none" stroke="#64748b" d="M11043.95,-43.38C11071.8,-43.38 11099.83,-43.38 11124.28,-43.38"/>
<polygon fill="#64748b" stroke="#64748b" points="11124.1,-46.88 11134.1,-43.38 11124.1,-39.88 11124.1,-46.88"/>
<text xml:space="preserve" text-anchor="middle" x="11089.95" y="-46.58" font-family="Times New Roman,serif" font-size="14.00">transitions</text>
</g>
<!-- d9 -->
<g id="node38" class="node">
<title>d9</title>
<ellipse fill="#e2e8f0" stroke="black" cx="11379.42" cy="-43.38" rx="37.59" ry="18"/>
<text xml:space="preserve" text-anchor="middle" x="11379.42" y="-37.95" font-family="Helvetica,sans-Serif" font-size="14.00">d9: act</text>
</g>
<!-- s9&#45;&gt;d9 -->
<g id="edge37" class="edge">
<title>s9&#45;&gt;d9</title>
<path fill="none" stroke="#94a3b8" d="M11265.75,-43.38C11287.05,-43.38 11310.4,-43.38 11330.29,-43.38"/>
<polygon fill="#94a3b8" stroke="#94a3b8" points="11330.04,-46.88 11340.04,-43.38 11330.04,-39.88 11330.04,-46.88"/>
<text xml:space="preserve" text-anchor="middle" x="11303.57" y="-46.58" font-family="Times New Roman,serif" font-size="14.00">decides</text>
</g>
<!-- a9 -->
<g id="node39" class="node">
<title>a9</title>
<polygon fill="#e2e8f0" stroke="black" points="11763.76,-61.38 11474.01,-61.38 11474.01,-25.38 11769.76,-25.38 11769.76,-55.38 11763.76,-61.38"/>
<polyline fill="none" stroke="black" points="11763.76,-61.38 11763.76,-55.38"/>
<polyline fill="none" stroke="black" points="11769.76,-55.38 11763.76,-55.38"/>
<text xml:space="preserve" text-anchor="middle" x="11621.88" y="-37.95" font-family="Helvetica,sans-Serif" font-size="14.00">a9: apis.supervisor.complete_task(answer=17)</text>
</g>
<!-- d9&#45;&gt;a9 -->
<g id="edge38" class="edge">
<title>d9&#45;&gt;a9</title>
<path fill="none" stroke="#94a3b8" d="M11417.46,-43.38C11430.31,-43.38 11445.64,-43.38 11462.04,-43.38"/>
<polygon fill="#94a3b8" stroke="#94a3b8" points="11462.03,-46.88 11472.03,-43.38 11462.03,-39.88 11462.03,-46.88"/>
<text xml:space="preserve" text-anchor="middle" x="11445.51" y="-46.58" font-family="Times New Roman,serif" font-size="14.00">acts</text>
</g>
<!-- o9 -->
<g id="node40" class="node">
<title>o9</title>
<polygon fill="#fde68a" stroke="black" points="11959.76,-61.38 11838.01,-61.38 11838.01,-25.38 11959.76,-25.38 11959.76,-61.38"/>
<text xml:space="preserve" text-anchor="middle" x="11898.88" y="-37.95" font-family="Helvetica,sans-Serif" font-size="14.00">o9: ok (no output)</text>
</g>
<!-- a9&#45;&gt;o9 -->
<g id="edge39" class="edge">
<title>a9&#45;&gt;o9</title>
<path fill="none" stroke="#94a3b8" d="M11770.04,-43.38C11789.63,-43.38 11808.96,-43.38 11826.42,-43.38"/>
<polygon fill="#94a3b8" stroke="#94a3b8" points="11826.1,-46.88 11836.1,-43.38 11826.1,-39.88 11826.1,-46.88"/>
<text xml:space="preserve" text-anchor="middle" x="11803.88" y="-46.58" font-family="Times New Roman,serif" font-size="14.00">yields</text>
</g>
<!-- s10 -->
<g id="node41" class="node">
<title>s10</title>
<polygon fill="#e2e8f0" stroke="black" points="12196.26,-61.38 12052.01,-61.38 12052.01,-25.38 12196.26,-25.38 12196.26,-61.38"/>
<text xml:space="preserve" text-anchor="middle" x="12124.13" y="-37.95" font-family="Helvetica,sans-Serif" font-size="14.00">s10: S10: progressed</text>
</g>
<!-- o9&#45;&gt;s10 -->
<g id="edge40" class="edge">
<title>o9&#45;&gt;s10</title>
<path fill="none" stroke="#64748b" d="M11960,-43.38C11984.75,-43.38 12013.82,-43.38 12040.52,-43.38"/>
<polygon fill="#64748b" stroke="#64748b" points="12040.28,-46.88 12050.28,-43.38 12040.28,-39.88 12040.28,-46.88"/>
<text xml:space="preserve" text-anchor="middle" x="12005.88" y="-46.58" font-family="Times New Roman,serif" font-size="14.00">transitions</text>
</g>
</g>
</svg>
