<?xml version="1.0" encoding="UTF-8" standalone="no"?>
<!DOCTYPE svg PUBLIC "-//W3C//DTD SVG 1.1//EN"
 "http://www.w3.org/Graphics/SVG/1.1/DTD/svg11.dtd">
<!-- Generated by graphviz version 15.0.0 (20260523.1842)
 -->
<!-- Title: trajectory Pages: 1 -->
<svg width="13109pt" height="122pt"
 viewBox="0.00 0.00 13109.00 122.00" xmlns="http://www.w3.org/2000/svg" xmlns:xlink="http://www.w3.org/1999/xlink">
<g id="graph0" class="graph" transform="scale(1 1) rotate(0) translate(4 117.5)">
<title>trajectory</title>
<polygon fill="white" stroke="none" points="-4,4 -4,-117.5 13105.09,-117.5 13105.09,4 -4,4"/>
<text xml:space="preserve" text-anchor="middle" x="6550.54" y="-94.3" font-family="Times New Roman,serif" font-size="16.00">HELIX trajectory: 4ec8de5_1 | solved=False | steps=11 errors=0 recoveries=0</text>
<!-- s0 -->
<g id="node1" class="node">
<title>s0</title>
<polygon fill="#bfdbfe" stroke="black" points="120.25,-61.38 0,-61.38 0,-25.38 120.25,-25.38 120.25,-61.38"/>
<text xml:space="preserve" text-anchor="middle" x="60.12" y="-37.95" font-family="Helvetica,sans-Serif" font-size="14.00">s0: Task received</text>
</g>
<!-- d0 -->
<g id="node2" class="node">
<title>d0</title>
<ellipse fill="#e2e8f0" stroke="black" cx="374.56" cy="-43.38" rx="177.81" ry="18"/>
<text xml:space="preserve" text-anchor="middle" x="374.56" y="-37.95" font-family="Helvetica,sans-Serif" font-size="14.00">d0: Bootstrap: ground in real account data</text>
</g>
<!-- s0&#45;&gt;d0 -->
<g id="edge1" class="edge">
<title>s0&#45;&gt;d0</title>
<path fill="none" stroke="#94a3b8" d="M120.63,-43.38C139.65,-43.38 161.82,-43.38 184.98,-43.38"/>
<polygon fill="#94a3b8" stroke="#94a3b8" points="184.91,-46.88 194.91,-43.38 184.91,-39.88 184.91,-46.88"/>
<text xml:space="preserve" text-anchor="middle" x="158.5" y="-46.58" font-family="Times New Roman,serif" font-size="14.00">decides</text>
</g>
<!-- a0 -->
<g id="node3" class="node">
<title>a0</title>
<polygon fill="#e2e8f0" stroke="black" points="758.87,-61.38 609.37,-61.38 609.37,-25.38 764.87,-25.38 764.87,-55.38 758.87,-61.38"/>
<polyline fill="none" stroke="black" points="758.87,-61.38 758.87,-55.38"/>
<polyline fill="none" stroke="black" points="764.87,-55.38 758.87,-55.38"/>
<text xml:space="preserve" text-anchor="middle" x="687.12" y="-37.95" font-family="Helvetica,sans-Serif" font-size="14.00">a0: bootstrap discovery</text>
</g>
<!-- d0&#45;&gt;a0 -->
<g id="edge2" class="edge">
<title>d0&#45;&gt;a0</title>
<path fill="none" stroke="#94a3b8" d="M552.61,-43.38C568.2,-43.38 583.48,-43.38 597.83,-43.38"/>
<polygon fill="#94a3b8" stroke="#94a3b8" points="597.6,-46.88 607.6,-43.38 597.6,-39.88 597.6,-46.88"/>
<text xml:space="preserve" text-anchor="middle" x="580.87" y="-46.58" font-family="Times New Roman,serif" font-size="14.00">acts</text>
</g>
<!-- o0 -->
<g id="node4" class="node">
<title>o0</title>
<polygon fill="#bbf7d0" stroke="black" points="1014.87,-71 833.12,-71 833.12,-15.75 1014.87,-15.75 1014.87,-71"/>
<text xml:space="preserve" text-anchor="middle" x="923.99" y="-53.7" font-family="Helvetica,sans-Serif" font-size="14.00">o0: === ACTIVE TASK ===</text>
<text xml:space="preserve" text-anchor="middle" x="923.99" y="-37.95" font-family="Helvetica,sans-Serif" font-size="14.00">{</text>
<text xml:space="preserve" text-anchor="middle" x="923.99" y="-22.2" font-family="Helvetica,sans-Serif" font-size="14.00"> &#39;instruction&#39;: &#39;H ...[+11]</text>
</g>
<!-- a0&#45;&gt;o0 -->
<g id="edge3" class="edge">
<title>a0&#45;&gt;o0</title>
<path fill="none" stroke="#94a3b8" d="M765.35,-43.38C783.26,-43.38 802.59,-43.38 821.37,-43.38"/>
<polygon fill="#94a3b8" stroke="#94a3b8" points="821.15,-46.88 831.15,-43.38 821.15,-39.88 821.15,-46.88"/>
<text xml:space="preserve" text-anchor="middle" x="798.99" y="-46.58" font-family="Times New Roman,serif" font-size="14.00">yields</text>
</g>
<!-- s1 -->
<g id="node5" class="node">
<title>s1</title>
<polygon fill="#e2e8f0" stroke="black" points="1225.87,-61.38 1107.12,-61.38 1107.12,-25.38 1225.87,-25.38 1225.87,-61.38"/>
<text xml:space="preserve" text-anchor="middle" x="1166.49" y="-37.95" font-family="Helvetica,sans-Serif" font-size="14.00">s1: S1: grounded</text>
</g>
<!-- o0&#45;&gt;s1 -->
<g id="edge4" class="edge">
<title>o0&#45;&gt;s1</title>
<path fill="none" stroke="#64748b" d="M1015.23,-43.38C1041.81,-43.38 1070.49,-43.38 1095.59,-43.38"/>
<polygon fill="#64748b" stroke="#64748b" points="1095.34,-46.88 1105.34,-43.38 1095.34,-39.88 1095.34,-46.88"/>
<text xml:space="preserve" text-anchor="middle" x="1060.99" y="-46.58" font-family="Times New Roman,serif" font-size="14.00">transitions</text>
</g>
<!-- d1 -->
<g id="node6" class="node">
<title>d1</title>
<ellipse fill="#e2e8f0" stroke="black" cx="1339.96" cy="-43.38" rx="37.59" ry="18"/>
<text xml:space="preserve" text-anchor="middle" x="1339.96" y="-37.95" font-family="Helvetica,sans-Serif" font-size="14.00">d1: act</text>
</g>
<!-- s1&#45;&gt;d1 -->
<g id="edge5" class="edge">
<title>s1&#45;&gt;d1</title>
<path fill="none" stroke="#94a3b8" d="M1226.02,-43.38C1247.03,-43.38 1270.46,-43.38 1290.52,-43.38"/>
<polygon fill="#94a3b8" stroke="#94a3b8" points="1290.38,-46.88 1300.38,-43.38 1290.38,-39.88 1290.38,-46.88"/>
<text xml:space="preserve" text-anchor="middle" x="1264.12" y="-46.58" font-family="Times New Roman,serif" font-size="14.00">decides</text>
</g>
<!-- a1 -->
<g id="node7" class="node">
<title>a1</title>
<polygon fill="#e2e8f0" stroke="black" points="1777.55,-61.38 1434.55,-61.38 1434.55,-25.38 1783.55,-25.38 1783.55,-55.38 1777.55,-61.38"/>
<polyline fill="none" stroke="black" points="1777.55,-61.38 1777.55,-55.38"/>
<polyline fill="none" stroke="black" points="1783.55,-55.38 1777.55,-55.38"/>
<text xml:space="preserve" text-anchor="middle" x="1609.05" y="-37.95" font-family="Helvetica,sans-Serif" font-size="14.00">a1: print(apis.api_docs.show_api_doc(app_nam ...[+23]</text>
</g>
<!-- d1&#45;&gt;a1 -->
<g id="edge6" class="edge">
<title>d1&#45;&gt;a1</title>
<path fill="none" stroke="#94a3b8" d="M1377.82,-43.38C1390.73,-43.38 1406.24,-43.38 1423.04,-43.38"/>
<polygon fill="#94a3b8" stroke="#94a3b8" points="1422.73,-46.88 1432.73,-43.38 1422.73,-39.88 1422.73,-46.88"/>
<text xml:space="preserve" text-anchor="middle" x="1406.05" y="-46.58" font-family="Times New Roman,serif" font-size="14.00">acts</text>
</g>
<!-- o1 -->
<g id="node8" class="node">
<title>o1</title>
<polygon fill="#bbf7d0" stroke="black" points="1998.3,-71 1851.8,-71 1851.8,-15.75 1998.3,-15.75 1998.3,-71"/>
<text xml:space="preserve" text-anchor="middle" x="1925.05" y="-53.7" font-family="Helvetica,sans-Serif" font-size="14.00">o1: {</text>
<text xml:space="preserve" text-anchor="middle" x="1925.05" y="-37.95" font-family="Helvetica,sans-Serif" font-size="14.00"> &#39;app_name&#39;: &#39;spotify&#39;,</text>
<text xml:space="preserve" text-anchor="middle" x="1925.05" y="-22.2" font-family="Helvetica,sans-Serif" font-size="14.00"> &#39;api_name&#39;: &#39; ...[+10]</text>
</g>
<!-- a1&#45;&gt;o1 -->
<g id="edge7" class="edge">
<title>a1&#45;&gt;o1</title>
<path fill="none" stroke="#94a3b8" d="M1784.04,-43.38C1803.54,-43.38 1822.69,-43.38 1840.26,-43.38"/>
<polygon fill="#94a3b8" stroke="#94a3b8" points="1840.05,-46.88 1850.05,-43.38 1840.05,-39.88 1840.05,-46.88"/>
<text xml:space="preserve" text-anchor="middle" x="1817.67" y="-46.58" font-family="Times New Roman,serif" font-size="14.00">yields</text>
</g>
<!-- s2 -->
<g id="node9" class="node">
<title>s2</title>
<polygon fill="#e2e8f0" stroke="black" points="2219.8,-61.38 2090.55,-61.38 2090.55,-25.38 2219.8,-25.38 2219.8,-61.38"/>
<text xml:space="preserve" text-anchor="middle" x="2155.17" y="-37.95" font-family="Helvetica,sans-Serif" font-size="14.00">s2: S2: progressed</text>
</g>
<!-- o1&#45;&gt;s2 -->
<g id="edge8" class="edge">
<title>o1&#45;&gt;s2</title>
<path fill="none" stroke="#64748b" d="M1998.54,-43.38C2024.23,-43.38 2053.17,-43.38 2079.07,-43.38"/>
<polygon fill="#64748b" stroke="#64748b" points="2078.83,-46.88 2088.83,-43.38 2078.83,-39.88 2078.83,-46.88"/>
<text xml:space="preserve" text-anchor="middle" x="2044.42" y="-46.58" font-family="Times New Roman,serif" font-size="14.00">transitions</text>
</g>
<!-- d2 -->
<g id="node10" class="node">
<title>d2</title>
<ellipse fill="#e2e8f0" stroke="black" cx="2333.89" cy="-43.38" rx="37.59" ry="18"/>
<text xml:space="preserve" text-anchor="middle" x="2333.89" y="-37.95" font-family="Helvetica,sans-Serif" font-size="14.00">d2: act</text>
</g>
<!-- s2&#45;&gt;d2 -->
<g id="edge9" class="edge">
<title>s2&#45;&gt;d2</title>
<path fill="none" stroke="#94a3b8" d="M2220.22,-43.38C2241.53,-43.38 2264.87,-43.38 2284.76,-43.38"/>
<polygon fill="#94a3b8" stroke="#94a3b8" points="2284.52,-46.88 2294.52,-43.38 2284.52,-39.88 2284.52,-46.88"/>
<text xml:space="preserve" text-anchor="middle" x="2258.05" y="-46.58" font-family="Times New Roman,serif" font-size="14.00">decides</text>
</g>
<!-- a2 -->
<g id="node11" class="node">
<title>a2</title>
<polygon fill="#e2e8f0" stroke="black" points="2748.23,-61.38 2428.48,-61.38 2428.48,-25.38 2754.23,-25.38 2754.23,-55.38 2748.23,-61.38"/>
<polyline fill="none" stroke="black" points="2748.23,-61.38 2748.23,-55.38"/>
<polyline fill="none" stroke="black" points="2754.23,-55.38 2748.23,-55.38"/>
<text xml:space="preserve" text-anchor="middle" x="2591.36" y="-37.95" font-family="Helvetica,sans-Serif" font-size="14.00">a2: login = apis.spotify.login(username=&#39;che ...[+23]</text>
</g>
<!-- d2&#45;&gt;a2 -->
<g id="edge10" class="edge">
<title>d2&#45;&gt;a2</title>
<path fill="none" stroke="#94a3b8" d="M2371.76,-43.38C2384.69,-43.38 2400.18,-43.38 2416.88,-43.38"/>
<polygon fill="#94a3b8" stroke="#94a3b8" points="2416.49,-46.88 2426.49,-43.38 2416.49,-39.88 2416.49,-46.88"/>
<text xml:space="preserve" text-anchor="middle" x="2399.98" y="-46.58" font-family="Times New Roman,serif" font-size="14.00">acts</text>
</g>
<!-- o2 -->
<g id="node12" class="node">
<title>o2</title>
<polygon fill="#bbf7d0" stroke="black" points="3180.48,-61.38 2822.48,-61.38 2822.48,-25.38 3180.48,-25.38 3180.48,-61.38"/>
<text xml:space="preserve" text-anchor="middle" x="3001.48" y="-37.95" font-family="Helvetica,sans-Serif" font-size="14.00">o2: eyJhbGciOiJIUzI1NiIsInR5cCI6IkpXVCJ9.eyJ ...[+10]</text>
</g>
<!-- a2&#45;&gt;o2 -->
<g id="edge11" class="edge">
<title>a2&#45;&gt;o2</title>
<path fill="none" stroke="#94a3b8" d="M2754.54,-43.38C2773.04,-43.38 2792.03,-43.38 2810.85,-43.38"/>
<polygon fill="#94a3b8" stroke="#94a3b8" points="2810.71,-46.88 2820.71,-43.38 2810.71,-39.88 2810.71,-46.88"/>
<text xml:space="preserve" text-anchor="middle" x="2788.36" y="-46.58" font-family="Times New Roman,serif" font-size="14.00">yields</text>
</g>
<!-- s3 -->
<g id="node13" class="node">
<title>s3</title>
<polygon fill="#e2e8f0" stroke="black" points="3401.98,-61.38 3272.73,-61.38 3272.73,-25.38 3401.98,-25.38 3401.98,-61.38"/>
<text xml:space="preserve" text-anchor="middle" x="3337.36" y="-37.95" font-family="Helvetica,sans-Serif" font-size="14.00">s3: S3: progressed</text>
</g>
<!-- o2&#45;&gt;s3 -->
<g id="edge12" class="edge">
<title>o2&#45;&gt;s3</title>
<path fill="none" stroke="#64748b" d="M3180.66,-43.38C3209.1,-43.38 3237.1,-43.38 3261.34,-43.38"/>
<polygon fill="#64748b" stroke="#64748b" points="3261.05,-46.88 3271.05,-43.38 3261.05,-39.88 3261.05,-46.88"/>
<text xml:space="preserve" text-anchor="middle" x="3226.61" y="-46.58" font-family="Times New Roman,serif" font-size="14.00">transitions</text>
</g>
<!-- d3 -->
<g id="node14" class="node">
<title>d3</title>
<ellipse fill="#e2e8f0" stroke="black" cx="3600.63" cy="-43.38" rx="122.15" ry="39.24"/>
<text xml:space="preserve" text-anchor="middle" x="3600.63" y="-53.83" font-family="Helvetica,sans-Serif" font-size="14.00">d3: user Execution output:</text>
<text xml:space="preserve" text-anchor="middle" x="3600.63" y="-22.07" font-family="Helvetica,sans-Serif" font-size="14.00">Continue with yo ...[+29]</text>
</g>
<!-- s3&#45;&gt;d3 -->
<g id="edge13" class="edge">
<title>s3&#45;&gt;d3</title>
<path fill="none" stroke="#94a3b8" d="M3402.27,-43.38C3421.92,-43.38 3444.31,-43.38 3466.8,-43.38"/>
<polygon fill="#94a3b8" stroke="#94a3b8" points="3466.67,-46.88 3476.67,-43.38 3466.67,-39.88 3466.67,-46.88"/>
<text xml:space="preserve" text-anchor="middle" x="3440.23" y="-46.58" font-family="Times New Roman,serif" font-size="14.00">decides</text>
</g>
<!-- a3 -->
<g id="node15" class="node">
<title>a3</title>
<polygon fill="#e2e8f0" stroke="black" points="4122.79,-61.38 3779.79,-61.38 3779.79,-25.38 4128.79,-25.38 4128.79,-55.38 4122.79,-61.38"/>
<polyline fill="none" stroke="black" points="4122.79,-61.38 4122.79,-55.38"/>
<polyline fill="none" stroke="black" points="4128.79,-55.38 4122.79,-55.38"/>
<text xml:space="preserve" text-anchor="middle" x="3954.29" y="-37.95" font-family="Helvetica,sans-Serif" font-size="14.00">a3: print(apis.api_docs.show_api_doc(app_nam ...[+23]</text>
</g>
<!-- d3&#45;&gt;a3 -->
<g id="edge14" class="edge">
<title>d3&#45;&gt;a3</title>
<path fill="none" stroke="#94a3b8" d="M3723.15,-43.38C3737.76,-43.38 3752.93,-43.38 3768.2,-43.38"/>
<polygon fill="#94a3b8" stroke="#94a3b8" points="3767.81,-46.88 3777.81,-43.38 3767.81,-39.88 3767.81,-46.88"/>
<text xml:space="preserve" text-anchor="middle" x="3751.29" y="-46.58" font-family="Times New Roman,serif" font-size="14.00">acts</text>
</g>
<!-- o3 -->
<g id="node16" class="node">
<title>o3</title>
<polygon fill="#bbf7d0" stroke="black" points="4343.54,-71 4197.04,-71 4197.04,-15.75 4343.54,-15.75 4343.54,-71"/>
<text xml:space="preserve" text-anchor="middle" x="4270.29" y="-53.7" font-family="Helvetica,sans-Serif" font-size="14.00">o3: {</text>
<text xml:space="preserve" text-anchor="middle" x="4270.29" y="-37.95" font-family="Helvetica,sans-Serif" font-size="14.00"> &#39;app_name&#39;: &#39;spotify&#39;,</text>
<text xml:space="preserve" text-anchor="middle" x="4270.29" y="-22.2" font-family="Helvetica,sans-Serif" font-size="14.00"> &#39;api_name&#39;: &#39; ...[+11]</text>
</g>
<!-- a3&#45;&gt;o3 -->
<g id="edge15" class="edge">
<title>a3&#45;&gt;o3</title>
<path fill="none" stroke="#94a3b8" d="M4129.28,-43.38C4148.78,-43.38 4167.92,-43.38 4185.49,-43.38"/>
<polygon fill="#94a3b8" stroke="#94a3b8" points="4185.29,-46.88 4195.29,-43.38 4185.29,-39.88 4185.29,-46.88"/>
<text xml:space="preserve" text-anchor="middle" x="4162.91" y="-46.58" font-family="Times New Roman,serif" font-size="14.00">yields</text>
</g>
<!-- s4 -->
<g id="node17" class="node">
<title>s4</title>
<polygon fill="#e2e8f0" stroke="black" points="4565.04,-61.38 4435.79,-61.38 4435.79,-25.38 4565.04,-25.38 4565.04,-61.38"/>
<text xml:space="preserve" text-anchor="middle" x="4500.41" y="-37.95" font-family="Helvetica,sans-Serif" font-size="14.00">s4: S4: progressed</text>
</g>
<!-- o3&#45;&gt;s4 -->
<g id="edge16" class="edge">
<title>o3&#45;&gt;s4</title>
<path fill="none" stroke="#64748b" d="M4343.78,-43.38C4369.46,-43.38 4398.41,-43.38 4424.3,-43.38"/>
<polygon fill="#64748b" stroke="#64748b" points="4424.07,-46.88 4434.07,-43.38 4424.07,-39.88 4424.07,-46.88"/>
<text xml:space="preserve" text-anchor="middle" x="4389.66" y="-46.58" font-family="Times New Roman,serif" font-size="14.00">transitions</text>
</g>
<!-- d4 -->
<g id="node18" class="node">
<title>d4</title>
<ellipse fill="#e2e8f0" stroke="black" cx="4861.26" cy="-43.38" rx="219.72" ry="18"/>
<text xml:space="preserve" text-anchor="middle" x="4861.26" y="-37.95" font-family="Helvetica,sans-Serif" font-size="14.00">d4: The song library doesn&#39;t show release da ...[+29]</text>
</g>
<!-- s4&#45;&gt;d4 -->
<g id="edge17" class="edge">
<title>s4&#45;&gt;d4</title>
<path fill="none" stroke="#94a3b8" d="M4565.15,-43.38C4584.28,-43.38 4606.46,-43.38 4629.91,-43.38"/>
<polygon fill="#94a3b8" stroke="#94a3b8" points="4629.62,-46.88 4639.62,-43.38 4629.62,-39.88 4629.62,-46.88"/>
<text xml:space="preserve" text-anchor="middle" x="4603.29" y="-46.58" font-family="Times New Roman,serif" font-size="14.00">decides</text>
</g>
<!-- a4 -->
<g id="node19" class="node">
<title>a4</title>
<polygon fill="#e2e8f0" stroke="black" points="5229.74,-61.38 5137.99,-61.38 5137.99,-25.38 5235.74,-25.38 5235.74,-55.38 5229.74,-61.38"/>
<polyline fill="none" stroke="black" points="5229.74,-61.38 5229.74,-55.38"/>
<polyline fill="none" stroke="black" points="5235.74,-55.38 5229.74,-55.38"/>
<text xml:space="preserve" text-anchor="middle" x="5186.86" y="-37.95" font-family="Helvetica,sans-Serif" font-size="14.00">a4: songs = []</text>
</g>
<!-- d4&#45;&gt;a4 -->
<g id="edge18" class="edge">
<title>d4&#45;&gt;a4</title>
<path fill="none" stroke="#94a3b8" d="M5081.24,-43.38C5097.51,-43.38 5112.88,-43.38 5126.59,-43.38"/>
<polygon fill="#94a3b8" stroke="#94a3b8" points="5126.18,-46.88 5136.18,-43.38 5126.18,-39.88 5126.18,-46.88"/>
<text xml:space="preserve" text-anchor="middle" x="5109.49" y="-46.58" font-family="Times New Roman,serif" font-size="14.00">acts</text>
</g>
<!-- o4 -->
<g id="node20" class="node">
<title>o4</title>
<polygon fill="#bbf7d0" stroke="black" points="5463.24,-78.88 5303.99,-78.88 5303.99,-7.88 5463.24,-7.88 5463.24,-78.88"/>
<text xml:space="preserve" text-anchor="middle" x="5383.61" y="-61.58" font-family="Helvetica,sans-Serif" font-size="14.00">o4: 22</text>
<text xml:space="preserve" text-anchor="middle" x="5383.61" y="-45.83" font-family="Helvetica,sans-Serif" font-size="14.00">{</text>
<text xml:space="preserve" text-anchor="middle" x="5383.61" y="-30.07" font-family="Helvetica,sans-Serif" font-size="14.00"> &#39;song_id&#39;: 20,</text>
<text xml:space="preserve" text-anchor="middle" x="5383.61" y="-14.32" font-family="Helvetica,sans-Serif" font-size="14.00"> &#39;title&#39;: &#39;Between &#160;...[+10]</text>
</g>
<!-- a4&#45;&gt;o4 -->
<g id="edge19" class="edge">
<title>a4&#45;&gt;o4</title>
<path fill="none" stroke="#94a3b8" d="M5236,-43.38C5253.04,-43.38 5272.82,-43.38 5292.22,-43.38"/>
<polygon fill="#94a3b8" stroke="#94a3b8" points="5292.06,-46.88 5302.06,-43.38 5292.06,-39.88 5292.06,-46.88"/>
<text xml:space="preserve" text-anchor="middle" x="5269.86" y="-46.58" font-family="Times New Roman,serif" font-size="14.00">yields</text>
</g>
<!-- s5 -->
<g id="node21" class="node">
<title>s5</title>
<polygon fill="#e2e8f0" stroke="black" points="5684.74,-61.38 5555.49,-61.38 5555.49,-25.38 5684.74,-25.38 5684.74,-61.38"/>
<text xml:space="preserve" text-anchor="middle" x="5620.11" y="-37.95" font-family="Helvetica,sans-Serif" font-size="14.00">s5: S5: progressed</text>
</g>
<!-- o4&#45;&gt;s5 -->
<g id="edge20" class="edge">
<title>o4&#45;&gt;s5</title>
<path fill="none" stroke="#64748b" d="M5463.67,-43.38C5489.5,-43.38 5518.11,-43.38 5543.66,-43.38"/>
<polygon fill="#64748b" stroke="#64748b" points="5543.65,-46.88 5553.65,-43.38 5543.65,-39.88 5543.65,-46.88"/>
<text xml:space="preserve" text-anchor="middle" x="5509.36" y="-46.58" font-family="Times New Roman,serif" font-size="14.00">transitions</text>
</g>
<!-- d5 -->
<g id="node22" class="node">
<title>d5</title>
<ellipse fill="#e2e8f0" stroke="black" cx="5982.96" cy="-43.38" rx="221.72" ry="18"/>
<text xml:space="preserve" text-anchor="middle" x="5982.96" y="-37.95" font-family="Helvetica,sans-Serif" font-size="14.00">d5: No release date in song. Let me check sh ...[+29]</text>
</g>
<!-- s5&#45;&gt;d5 -->
<g id="edge21" class="edge">
<title>s5&#45;&gt;d5</title>
<path fill="none" stroke="#94a3b8" d="M5685.21,-43.38C5704.18,-43.38 5726.14,-43.38 5749.36,-43.38"/>
<polygon fill="#94a3b8" stroke="#94a3b8" points="5749.34,-46.88 5759.34,-43.38 5749.34,-39.88 5749.34,-46.88"/>
<text xml:space="preserve" text-anchor="middle" x="5722.99" y="-46.58" font-family="Times New Roman,serif" font-size="14.00">decides</text>
</g>
<!-- a5 -->
<g id="node23" class="node">
<title>a5</title>
<polygon fill="#e2e8f0" stroke="black" points="6604.68,-61.38 6261.68,-61.38 6261.68,-25.38 6610.68,-25.38 6610.68,-55.38 6604.68,-61.38"/>
<polyline fill="none" stroke="black" points="6604.68,-61.38 6604.68,-55.38"/>
<polyline fill="none" stroke="black" points="6610.68,-55.38 6604.68,-55.38"/>
<text xml:space="preserve" text-anchor="middle" x="6436.18" y="-37.95" font-family="Helvetica,sans-Serif" font-size="14.00">a5: print(apis.api_docs.show_api_doc(app_nam ...[+23]</text>
</g>
<!-- d5&#45;&gt;a5 -->
<g id="edge22" class="edge">
<title>d5&#45;&gt;a5</title>
<path fill="none" stroke="#94a3b8" d="M6204.94,-43.38C6220.06,-43.38 6235.22,-43.38 6250.12,-43.38"/>
<polygon fill="#94a3b8" stroke="#94a3b8" points="6249.96,-46.88 6259.96,-43.38 6249.96,-39.88 6249.96,-46.88"/>
<text xml:space="preserve" text-anchor="middle" x="6233.18" y="-46.58" font-family="Times New Roman,serif" font-size="14.00">acts</text>
</g>
<!-- o5 -->
<g id="node24" class="node">
<title>o5</title>
<polygon fill="#bbf7d0" stroke="black" points="6825.43,-71 6678.93,-71 6678.93,-15.75 6825.43,-15.75 6825.43,-71"/>
<text xml:space="preserve" text-anchor="middle" x="6752.18" y="-53.7" font-family="Helvetica,sans-Serif" font-size="14.00">o5: {</text>
<text xml:space="preserve" text-anchor="middle" x="6752.18" y="-37.95" font-family="Helvetica,sans-Serif" font-size="14.00"> &#39;app_name&#39;: &#39;spotify&#39;,</text>
<text xml:space="preserve" text-anchor="middle" x="6752.18" y="-22.2" font-family="Helvetica,sans-Serif" font-size="14.00"> &#39;api_name&#39;: &#39; ...[+10]</text>
</g>
<!-- a5&#45;&gt;o5 -->
<g id="edge23" class="edge">
<title>a5&#45;&gt;o5</title>
<path fill="none" stroke="#94a3b8" d="M6611.17,-43.38C6630.67,-43.38 6649.81,-43.38 6667.38,-43.38"/>
<polygon fill="#94a3b8" stroke="#94a3b8" points="6667.18,-46.88 6677.18,-43.38 6667.18,-39.88 6667.18,-46.88"/>
<text xml:space="preserve" text-anchor="middle" x="6644.8" y="-46.58" font-family="Times New Roman,serif" font-size="14.00">yields</text>
</g>
<!-- s6 -->
<g id="node25" class="node">
<title>s6</title>
<polygon fill="#e2e8f0" stroke="black" points="7046.93,-61.38 6917.68,-61.38 6917.68,-25.38 7046.93,-25.38 7046.93,-61.38"/>
<text xml:space="preserve" text-anchor="middle" x="6982.3" y="-37.95" font-family="Helvetica,sans-Serif" font-size="14.00">s6: S6: progressed</text>
</g>
<!-- o5&#45;&gt;s6 -->
<g id="edge24" class="edge">
<title>o5&#45;&gt;s6</title>
<path fill="none" stroke="#64748b" d="M6825.67,-43.38C6851.35,-43.38 6880.3,-43.38 6906.19,-43.38"/>
<polygon fill="#64748b" stroke="#64748b" points="6905.96,-46.88 6915.96,-43.38 6905.96,-39.88 6905.96,-46.88"/>
<text xml:space="preserve" text-anchor="middle" x="6871.55" y="-46.58" font-family="Times New Roman,serif" font-size="14.00">transitions</text>
</g>
<!-- d6 -->
<g id="node26" class="node">
<title>d6</title>
<ellipse fill="#e2e8f0" stroke="black" cx="7354.13" cy="-43.38" rx="230.7" ry="18"/>
<text xml:space="preserve" text-anchor="middle" x="7354.13" y="-37.95" font-family="Helvetica,sans-Serif" font-size="14.00">d6: show_song has release_date. Now let me g ...[+29]</text>
</g>
<!-- s6&#45;&gt;d6 -->
<g id="edge25" class="edge">
<title>s6&#45;&gt;d6</title>
<path fill="none" stroke="#94a3b8" d="M7047.3,-43.38C7066.39,-43.38 7088.56,-43.38 7112.05,-43.38"/>
<polygon fill="#94a3b8" stroke="#94a3b8" points="7111.8,-46.88 7121.8,-43.38 7111.8,-39.88 7111.8,-46.88"/>
<text xml:space="preserve" text-anchor="middle" x="7085.18" y="-46.58" font-family="Times New Roman,serif" font-size="14.00">decides</text>
</g>
<!-- a6 -->
<g id="node27" class="node">
<title>a6</title>
<polygon fill="#e2e8f0" stroke="black" points="7984.83,-61.38 7641.83,-61.38 7641.83,-25.38 7990.83,-25.38 7990.83,-55.38 7984.83,-61.38"/>
<polyline fill="none" stroke="black" points="7984.83,-61.38 7984.83,-55.38"/>
<polyline fill="none" stroke="black" points="7990.83,-55.38 7984.83,-55.38"/>
<text xml:space="preserve" text-anchor="middle" x="7816.33" y="-37.95" font-family="Helvetica,sans-Serif" font-size="14.00">a6: print(apis.api_docs.show_api_doc(app_nam ...[+23]</text>
</g>
<!-- d6&#45;&gt;a6 -->
<g id="edge26" class="edge">
<title>d6&#45;&gt;a6</title>
<path fill="none" stroke="#94a3b8" d="M7585.23,-43.38C7600.27,-43.38 7615.31,-43.38 7630.1,-43.38"/>
<polygon fill="#94a3b8" stroke="#94a3b8" points="7629.84,-46.88 7639.83,-43.38 7629.83,-39.88 7629.84,-46.88"/>
<text xml:space="preserve" text-anchor="middle" x="7613.33" y="-46.58" font-family="Times New Roman,serif" font-size="14.00">acts</text>
</g>
<!-- o6 -->
<g id="node28" class="node">
<title>o6</title>
<polygon fill="#bbf7d0" stroke="black" points="8205.58,-71 8059.08,-71 8059.08,-15.75 8205.58,-15.75 8205.58,-71"/>
<text xml:space="preserve" text-anchor="middle" x="8132.33" y="-53.7" font-family="Helvetica,sans-Serif" font-size="14.00">o6: {</text>
<text xml:space="preserve" text-anchor="middle" x="8132.33" y="-37.95" font-family="Helvetica,sans-Serif" font-size="14.00"> &#39;app_name&#39;: &#39;spotify&#39;,</text>
<text xml:space="preserve" text-anchor="middle" x="8132.33" y="-22.2" font-family="Helvetica,sans-Serif" font-size="14.00"> &#39;api_name&#39;: &#39; ...[+11]</text>
</g>
<!-- a6&#45;&gt;o6 -->
<g id="edge27" class="edge">
<title>a6&#45;&gt;o6</title>
<path fill="none" stroke="#94a3b8" d="M7991.32,-43.38C8010.82,-43.38 8029.97,-43.38 8047.54,-43.38"/>
<polygon fill="#94a3b8" stroke="#94a3b8" points="8047.33,-46.88 8057.33,-43.38 8047.33,-39.88 8047.33,-46.88"/>
<text xml:space="preserve" text-anchor="middle" x="8024.96" y="-46.58" font-family="Times New Roman,serif" font-size="14.00">yields</text>
</g>
<!-- s7 -->
<g id="node29" class="node">
<title>s7</title>
<polygon fill="#e2e8f0" stroke="black" points="8427.08,-61.38 8297.83,-61.38 8297.83,-25.38 8427.08,-25.38 8427.08,-61.38"/>
<text xml:space="preserve" text-anchor="middle" x="8362.46" y="-37.95" font-family="Helvetica,sans-Serif" font-size="14.00">s7: S7: progressed</text>
</g>
<!-- o6&#45;&gt;s7 -->
<g id="edge28" class="edge">
<title>o6&#45;&gt;s7</title>
<path fill="none" stroke="#64748b" d="M8205.82,-43.38C8231.51,-43.38 8260.45,-43.38 8286.35,-43.38"/>
<polygon fill="#64748b" stroke="#64748b" points="8286.11,-46.88 8296.11,-43.38 8286.11,-39.88 8286.11,-46.88"/>
<text xml:space="preserve" text-anchor="middle" x="8251.71" y="-46.58" font-family="Times New Roman,serif" font-size="14.00">transitions</text>
</g>
<!-- d7 -->
<g id="node30" class="node">
<title>d7</title>
<ellipse fill="#e2e8f0" stroke="black" cx="8729.79" cy="-43.38" rx="226.21" ry="18"/>
<text xml:space="preserve" text-anchor="middle" x="8729.79" y="-37.95" font-family="Helvetica,sans-Serif" font-size="14.00">d7: Album has release_date and song_ids. Let ...[+28]</text>
</g>
<!-- s7&#45;&gt;d7 -->
<g id="edge29" class="edge">
<title>s7&#45;&gt;d7</title>
<path fill="none" stroke="#94a3b8" d="M8427.51,-43.38C8446.59,-43.38 8468.71,-43.38 8492.13,-43.38"/>
<polygon fill="#94a3b8" stroke="#94a3b8" points="8491.84,-46.88 8501.84,-43.38 8491.84,-39.88 8491.84,-46.88"/>
<text xml:space="preserve" text-anchor="middle" x="8465.33" y="-46.58" font-family="Times New Roman,serif" font-size="14.00">decides</text>
</g>
<!-- a7 -->
<g id="node31" class="node">
<title>a7</title>
<polygon fill="#e2e8f0" stroke="black" points="9113,-61.38 9013,-61.38 9013,-25.38 9119,-25.38 9119,-55.38 9113,-61.38"/>
<polyline fill="none" stroke="black" points="9113,-61.38 9113,-55.38"/>
<polyline fill="none" stroke="black" points="9119,-55.38 9113,-55.38"/>
<text xml:space="preserve" text-anchor="middle" x="9066" y="-37.95" font-family="Helvetica,sans-Serif" font-size="14.00">a7: albums = []</text>
</g>
<!-- d7&#45;&gt;a7 -->
<g id="edge30" class="edge">
<title>d7&#45;&gt;a7</title>
<path fill="none" stroke="#94a3b8" d="M8956.5,-43.38C8972.52,-43.38 8987.73,-43.38 9001.41,-43.38"/>
<polygon fill="#94a3b8" stroke="#94a3b8" points="9001.01,-46.88 9011.01,-43.38 9001.01,-39.88 9001.01,-46.88"/>
<text xml:space="preserve" text-anchor="middle" x="8984.5" y="-46.58" font-family="Times New Roman,serif" font-size="14.00">acts</text>
</g>
<!-- o7 -->
<g id="node32" class="node">
<title>o7</title>
<polygon fill="#bbf7d0" stroke="black" points="9499.5,-63.12 9187.25,-63.12 9187.25,-23.62 9499.5,-23.62 9499.5,-63.12"/>
<text xml:space="preserve" text-anchor="middle" x="9343.38" y="-45.83" font-family="Helvetica,sans-Serif" font-size="14.00">o7: 15</text>
<text xml:space="preserve" text-anchor="middle" x="9343.38" y="-30.07" font-family="Helvetica,sans-Serif" font-size="14.00">1 Echo Chamber Chronicles 2022&#45;12&#45;08T ...[+10]</text>
</g>
<!-- a7&#45;&gt;o7 -->
<g id="edge31" class="edge">
<title>a7&#45;&gt;o7</title>
<path fill="none" stroke="#94a3b8" d="M9119.45,-43.38C9136.04,-43.38 9155.35,-43.38 9175.54,-43.38"/>
<polygon fill="#94a3b8" stroke="#94a3b8" points="9175.32,-46.88 9185.32,-43.38 9175.32,-39.88 9175.32,-46.88"/>
<text xml:space="preserve" text-anchor="middle" x="9153.13" y="-46.58" font-family="Times New Roman,serif" font-size="14.00">yields</text>
</g>
<!-- s8 -->
<g id="node33" class="node">
<title>s8</title>
<polygon fill="#e2e8f0" stroke="black" points="9721,-61.38 9591.75,-61.38 9591.75,-25.38 9721,-25.38 9721,-61.38"/>
<text xml:space="preserve" text-anchor="middle" x="9656.38" y="-37.95" font-family="Helvetica,sans-Serif" font-size="14.00">s8: S8: progressed</text>
</g>
<!-- o7&#45;&gt;s8 -->
<g id="edge32" class="edge">
<title>o7&#45;&gt;s8</title>
<path fill="none" stroke="#64748b" d="M9499.88,-43.38C9527.8,-43.38 9555.73,-43.38 9580.05,-43.38"/>
<polygon fill="#64748b" stroke="#64748b" points="9579.8,-46.88 9589.8,-43.38 9579.8,-39.88 9579.8,-46.88"/>
<text xml:space="preserve" text-anchor="middle" x="9545.63" y="-46.58" font-family="Times New Roman,serif" font-size="14.00">transitions</text>
</g>
<!-- d8 -->
<g id="node34" class="node">
<title>d8</title>
<ellipse fill="#e2e8f0" stroke="black" cx="10007.75" cy="-43.38" rx="210.24" ry="18"/>
<text xml:space="preserve" text-anchor="middle" x="10007.75" y="-37.95" font-family="Helvetica,sans-Serif" font-size="14.00">d8: The task asks for &#39;songs&#39; from both libr ...[+30]</text>
</g>
<!-- s8&#45;&gt;d8 -->
<g id="edge33" class="edge">
<title>s8&#45;&gt;d8</title>
<path fill="none" stroke="#94a3b8" d="M9721.46,-43.38C9740.5,-43.38 9762.53,-43.38 9785.73,-43.38"/>
<polygon fill="#94a3b8" stroke="#94a3b8" points="9785.69,-46.88 9795.69,-43.38 9785.69,-39.88 9785.69,-46.88"/>
<text xml:space="preserve" text-anchor="middle" x="9759.25" y="-46.58" font-family="Times New Roman,serif" font-size="14.00">decides</text>
</g>
<!-- a8 -->
<g id="node35" class="node">
<title>a8</title>
<polygon fill="#e2e8f0" stroke="black" points="10593.24,-61.38 10274.99,-61.38 10274.99,-25.38 10599.24,-25.38 10599.24,-55.38 10593.24,-61.38"/>
<polyline fill="none" stroke="black" points="10593.24,-61.38 10593.24,-55.38"/>
<polyline fill="none" stroke="black" points="10599.24,-55.38 10593.24,-55.38"/>
<text xml:space="preserve" text-anchor="middle" x="10437.12" y="-37.95" font-family="Helvetica,sans-Serif" font-size="14.00">a8: # Collect all unique song_ids from song &#160;...[+23]</text>
</g>
<!-- d8&#45;&gt;a8 -->
<g id="edge34" class="edge">
<title>d8&#45;&gt;a8</title>
<path fill="none" stroke="#94a3b8" d="M10218.36,-43.38C10233.43,-43.38 10248.53,-43.38 10263.35,-43.38"/>
<polygon fill="#94a3b8" stroke="#94a3b8" points="10263.12,-46.88 10273.12,-43.38 10263.12,-39.88 10263.12,-46.88"/>
<text xml:space="preserve" text-anchor="middle" x="10246.49" y="-46.58" font-family="Times New Roman,serif" font-size="14.00">acts</text>
</g>
<!-- o8 -->
<g id="node36" class="node">
<title>o8</title>
<polygon fill="#bbf7d0" stroke="black" points="10981.24,-61.38 10667.49,-61.38 10667.49,-25.38 10981.24,-25.38 10981.24,-61.38"/>
<text xml:space="preserve" text-anchor="middle" x="10824.37" y="-37.95" font-family="Helvetica,sans-Serif" font-size="14.00">o8: song lib ids: 22 album song ids: 68 uniq ...[+9]</text>
</g>
<!-- a8&#45;&gt;o8 -->
<g id="edge35" class="edge">
<title>a8&#45;&gt;o8</title>
<path fill="none" stroke="#94a3b8" d="M10599.54,-43.38C10618.14,-43.38 10637.14,-43.38 10655.82,-43.38"/>
<polygon fill="#94a3b8" stroke="#94a3b8" points="10655.58,-46.88 10665.58,-43.38 10655.58,-39.88 10655.58,-46.88"/>
<text xml:space="preserve" text-anchor="middle" x="10633.37" y="-46.58" font-family="Times New Roman,serif" font-size="14.00">yields</text>
</g>
<!-- s9 -->
<g id="node37" class="node">
<title>s9</title>
<polygon fill="#e2e8f0" stroke="black" points="11202.74,-61.38 11073.49,-61.38 11073.49,-25.38 11202.74,-25.38 11202.74,-61.38"/>
<text xml:space="preserve" text-anchor="middle" x="11138.12" y="-37.95" font-family="Helvetica,sans-Serif" font-size="14.00">s9: S9: progressed</text>
</g>
<!-- o8&#45;&gt;s9 -->
<g id="edge36" class="edge">
<title>o8&#45;&gt;s9</title>
<path fill="none" stroke="#64748b" d="M10981.7,-43.38C11009.63,-43.38 11037.55,-43.38 11061.86,-43.38"/>
<polygon fill="#64748b" stroke="#64748b" points="11061.61,-46.88 11071.61,-43.38 11061.61,-39.88 11061.61,-46.88"/>
<text xml:space="preserve" text-anchor="middle" x="11027.37" y="-46.58" font-family="Times New Roman,serif" font-size="14.00">transitions</text>
</g>
<!-- d9 -->
<g id="node38" class="node">
<title>d9</title>
<ellipse fill="#e2e8f0" stroke="black" cx="11316.83" cy="-43.38" rx="37.59" ry="18"/>
<text xml:space="preserve" text-anchor="middle" x="11316.83" y="-37.95" font-family="Helvetica,sans-Serif" font-size="14.00">d9: act</text>
</g>
<!-- s9&#45;&gt;d9 -->
<g id="edge37" class="edge">
<title>s9&#45;&gt;d9</title>
<path fill="none" stroke="#94a3b8" d="M11203.16,-43.38C11224.47,-43.38 11247.82,-43.38 11267.7,-43.38"/>
<polygon fill="#94a3b8" stroke="#94a3b8" points="11267.46,-46.88 11277.46,-43.38 11267.46,-39.88 11267.46,-46.88"/>
<text xml:space="preserve" text-anchor="middle" x="11240.99" y="-46.58" font-family="Times New Roman,serif" font-size="14.00">decides</text>
</g>
<!-- a9 -->
<g id="node39" class="node">
<title>a9</title>
<polygon fill="#e2e8f0" stroke="black" points="11546.67,-61.38 11411.42,-61.38 11411.42,-25.38 11552.67,-25.38 11552.67,-55.38 11546.67,-61.38"/>
<polyline fill="none" stroke="black" points="11546.67,-61.38 11546.67,-55.38"/>
<polyline fill="none" stroke="black" points="11552.67,-55.38 11546.67,-55.38"/>
<text xml:space="preserve" text-anchor="middle" x="11482.05" y="-37.95" font-family="Helvetica,sans-Serif" font-size="14.00">a9: release_year = {}</text>
</g>
<!-- d9&#45;&gt;a9 -->
<g id="edge38" class="edge">
<title>d9&#45;&gt;a9</title>
<path fill="none" stroke="#94a3b8" d="M11354.87,-43.38C11368.26,-43.38 11383.97,-43.38 11399.67,-43.38"/>
<polygon fill="#94a3b8" stroke="#94a3b8" points="11399.55,-46.88 11409.55,-43.38 11399.55,-39.88 11399.55,-46.88"/>
<text xml:space="preserve" text-anchor="middle" x="11382.92" y="-46.58" font-family="Times New Roman,serif" font-size="14.00">acts</text>
</g>
<!-- o9 -->
<g id="node40" class="node">
<title>o9</title>
<polygon fill="#bbf7d0" stroke="black" points="11740.42,-86.75 11620.92,-86.75 11620.92,0 11740.42,0 11740.42,-86.75"/>
<text xml:space="preserve" text-anchor="middle" x="11680.67" y="-69.45" font-family="Helvetica,sans-Serif" font-size="14.00">o9: 86</text>
<text xml:space="preserve" text-anchor="middle" x="11680.67" y="-53.7" font-family="Helvetica,sans-Serif" font-size="14.00">{</text>
<text xml:space="preserve" text-anchor="middle" x="11680.67" y="-37.95" font-family="Helvetica,sans-Serif" font-size="14.00"> &#39;1&#39;: 2022,</text>
<text xml:space="preserve" text-anchor="middle" x="11680.67" y="-22.2" font-family="Helvetica,sans-Serif" font-size="14.00"> &#39;2&#39;: 2022,</text>
<text xml:space="preserve" text-anchor="middle" x="11680.67" y="-6.45" font-family="Helvetica,sans-Serif" font-size="14.00"> &#39;3&#39;: 2022, ...[+11]</text>
</g>
<!-- a9&#45;&gt;o9 -->
<g id="edge39" class="edge">
<title>a9&#45;&gt;o9</title>
<path fill="none" stroke="#94a3b8" d="M11552.92,-43.38C11571.12,-43.38 11590.74,-43.38 11608.98,-43.38"/>
<polygon fill="#94a3b8" stroke="#94a3b8" points="11608.92,-46.88 11618.92,-43.38 11608.92,-39.88 11608.92,-46.88"/>
<text xml:space="preserve" text-anchor="middle" x="11586.8" y="-46.58" font-family="Times New Roman,serif" font-size="14.00">yields</text>
</g>
<!-- s10 -->
<g id="node41" class="node">
<title>s10</title>
<polygon fill="#e2e8f0" stroke="black" points="11976.92,-61.38 11832.67,-61.38 11832.67,-25.38 11976.92,-25.38 11976.92,-61.38"/>
<text xml:space="preserve" text-anchor="middle" x="11904.8" y="-37.95" font-family="Helvetica,sans-Serif" font-size="14.00">s10: S10: progressed</text>
</g>
<!-- o9&#45;&gt;s10 -->
<g id="edge40" class="edge">
<title>o9&#45;&gt;s10</title>
<path fill="none" stroke="#64748b" d="M11740.91,-43.38C11765.53,-43.38 11794.54,-43.38 11821.21,-43.38"/>
<polygon fill="#64748b" stroke="#64748b" points="11820.96,-46.88 11830.96,-43.38 11820.96,-39.88 11820.96,-46.88"/>
<text xml:space="preserve" text-anchor="middle" x="11786.55" y="-46.58" font-family="Times New Roman,serif" font-size="14.00">transitions</text>
</g>
<!-- d10 -->
<g id="node42" class="node">
<title>d10</title>
<ellipse fill="#e2e8f0" stroke="black" cx="12180.88" cy="-43.38" rx="127.46" ry="39.24"/>
<text xml:space="preserve" text-anchor="middle" x="12180.88" y="-53.83" font-family="Helvetica,sans-Serif" font-size="14.00">d10: user Execution output:</text>
<text xml:space="preserve" text-anchor="middle" x="12180.88" y="-22.07" font-family="Helvetica,sans-Serif" font-size="14.00">Continue with yo ...[+29]</text>
</g>
<!-- s10&#45;&gt;d10 -->
<g id="edge41" class="edge">
<title>s10&#45;&gt;d10</title>
<path fill="none" stroke="#94a3b8" d="M11977.09,-43.38C11996.97,-43.38 12019.27,-43.38 12041.61,-43.38"/>
<polygon fill="#94a3b8" stroke="#94a3b8" points="12041.41,-46.88 12051.41,-43.38 12041.41,-39.88 12041.41,-46.88"/>
<text xml:space="preserve" text-anchor="middle" x="12015.17" y="-46.58" font-family="Times New Roman,serif" font-size="14.00">decides</text>
</g>
<!-- a10 -->
<g id="node43" class="node">
<title>a10</title>
<polygon fill="#e2e8f0" stroke="black" points="12662.59,-61.38 12365.34,-61.38 12365.34,-25.38 12668.59,-25.38 12668.59,-55.38 12662.59,-61.38"/>
<polyline fill="none" stroke="black" points="12662.59,-61.38 12662.59,-55.38"/>
<polyline fill="none" stroke="black" points="12668.59,-55.38 12662.59,-55.38"/>
<text xml:space="preserve" text-anchor="middle" x="12516.96" y="-37.95" font-family="Helvetica,sans-Serif" font-size="14.00">a10: apis.supervisor.complete_task(answer=59)</text>
</g>
<!-- d10&#45;&gt;a10 -->
<g id="edge42" class="edge">
<title>d10&#45;&gt;a10</title>
<path fill="none" stroke="#94a3b8" d="M12308.66,-43.38C12323.29,-43.38 12338.37,-43.38 12353.39,-43.38"/>
<polygon fill="#94a3b8" stroke="#94a3b8" points="12353.35,-46.88 12363.35,-43.38 12353.35,-39.88 12353.35,-46.88"/>
<text xml:space="preserve" text-anchor="middle" x="12336.84" y="-46.58" font-family="Times New Roman,serif" font-size="14.00">acts</text>
</g>
<!-- o10 -->
<g id="node44" class="node">
<title>o10</title>
<polygon fill="#fde68a" stroke="black" points="12866.09,-61.38 12736.84,-61.38 12736.84,-25.38 12866.09,-25.38 12866.09,-61.38"/>
<text xml:space="preserve" text-anchor="middle" x="12801.46" y="-37.95" font-family="Helvetica,sans-Serif" font-size="14.00">o10: ok (no output)</text>
</g>
<!-- a10&#45;&gt;o10 -->
<g id="edge43" class="edge">
<title>a10&#45;&gt;o10</title>
<path fill="none" stroke="#94a3b8" d="M12668.72,-43.38C12688.35,-43.38 12707.73,-43.38 12725.35,-43.38"/>
<polygon fill="#94a3b8" stroke="#94a3b8" points="12725.13,-46.88 12735.13,-43.38 12725.13,-39.88 12725.13,-46.88"/>
<text xml:space="preserve" text-anchor="middle" x="12702.71" y="-46.58" font-family="Times New Roman,serif" font-size="14.00">yields</text>
</g>
<!-- s11 -->
<g id="node45" class="node">
<title>s11</title>
<polygon fill="#e2e8f0" stroke="black" points="13101.09,-61.38 12958.34,-61.38 12958.34,-25.38 13101.09,-25.38 13101.09,-61.38"/>
<text xml:space="preserve" text-anchor="middle" x="13029.71" y="-37.95" font-family="Helvetica,sans-Serif" font-size="14.00">s11: S11: progressed</text>
</g>
<!-- o10&#45;&gt;s11 -->
<g id="edge44" class="edge">
<title>o10&#45;&gt;s11</title>
<path fill="none" stroke="#64748b" d="M12866.39,-43.38C12891.43,-43.38 12920.46,-43.38 12946.99,-43.38"/>
<polygon fill="#64748b" stroke="#64748b" points="12946.68,-46.88 12956.68,-43.38 12946.68,-39.88 12946.68,-46.88"/>
<text xml:space="preserve" text-anchor="middle" x="12912.21" y="-46.58" font-family="Times New Roman,serif" font-size="14.00">transitions</text>
</g>
</g>
</svg>
