<?xml version="1.0" encoding="UTF-8" standalone="no"?>
<!DOCTYPE svg PUBLIC "-//W3C//DTD SVG 1.1//EN"
 "http://www.w3.org/Graphics/SVG/1.1/DTD/svg11.dtd">
<!-- Generated by graphviz version 15.0.0 (20260523.1842)
 -->
<!-- Title: trajectory Pages: 1 -->
<svg width="13978pt" height="169pt"
 viewBox="0.00 0.00 13978.00 169.00" xmlns="http://www.w3.org/2000/svg" xmlns:xlink="http://www.w3.org/1999/xlink">
<g id="graph0" class="graph" transform="scale(1 1) rotate(0) translate(4 164.75)">
<title>trajectory</title>
<polygon fill="white" stroke="none" points="-4,4 -4,-164.75 13973.8,-164.75 13973.8,4 -4,4"/>
<text xml:space="preserve" text-anchor="middle" x="6984.9" y="-141.55" font-family="Times New Roman,serif" font-size="16.00">HELIX trajectory: d4e9306_3 | solved=True | steps=12 errors=1 recoveries=0</text>
<!-- s0 -->
<g id="node1" class="node">
<title>s0</title>
<polygon fill="#bfdbfe" stroke="black" points="120.25,-85 0,-85 0,-49 120.25,-49 120.25,-85"/>
<text xml:space="preserve" text-anchor="middle" x="60.12" y="-61.58" font-family="Helvetica,sans-Serif" font-size="14.00">s0: Task received</text>
</g>
<!-- d0 -->
<g id="node2" class="node">
<title>d0</title>
<ellipse fill="#e2e8f0" stroke="black" cx="374.56" cy="-67" rx="177.81" ry="18"/>
<text xml:space="preserve" text-anchor="middle" x="374.56" y="-61.58" font-family="Helvetica,sans-Serif" font-size="14.00">d0: Bootstrap: ground in real account data</text>
</g>
<!-- s0&#45;&gt;d0 -->
<g id="edge1" class="edge">
<title>s0&#45;&gt;d0</title>
<path fill="none" stroke="#94a3b8" d="M120.63,-67C139.65,-67 161.82,-67 184.98,-67"/>
<polygon fill="#94a3b8" stroke="#94a3b8" points="184.91,-70.5 194.91,-67 184.91,-63.5 184.91,-70.5"/>
<text xml:space="preserve" text-anchor="middle" x="158.5" y="-70.2" font-family="Times New Roman,serif" font-size="14.00">decides</text>
</g>
<!-- a0 -->
<g id="node3" class="node">
<title>a0</title>
<polygon fill="#e2e8f0" stroke="black" points="758.87,-85 609.37,-85 609.37,-49 764.87,-49 764.87,-79 758.87,-85"/>
<polyline fill="none" stroke="black" points="758.87,-85 758.87,-79"/>
<polyline fill="none" stroke="black" points="764.87,-79 758.87,-79"/>
<text xml:space="preserve" text-anchor="middle" x="687.12" y="-61.58" font-family="Helvetica,sans-Serif" font-size="14.00">a0: bootstrap discovery</text>
</g>
<!-- d0&#45;&gt;a0 -->
<g id="edge2" class="edge">
<title>d0&#45;&gt;a0</title>
<path fill="none" stroke="#94a3b8" d="M552.61,-67C568.2,-67 583.48,-67 597.83,-67"/>
<polygon fill="#94a3b8" stroke="#94a3b8" points="597.6,-70.5 607.6,-67 597.6,-63.5 597.6,-70.5"/>
<text xml:space="preserve" text-anchor="middle" x="580.87" y="-70.2" font-family="Times New Roman,serif" font-size="14.00">acts</text>
</g>
<!-- o0 -->
<g id="node4" class="node">
<title>o0</title>
<polygon fill="#bbf7d0" stroke="black" points="1014.87,-94.62 833.12,-94.62 833.12,-39.38 1014.87,-39.38 1014.87,-94.62"/>
<text xml:space="preserve" text-anchor="middle" x="923.99" y="-77.33" font-family="Helvetica,sans-Serif" font-size="14.00">o0: === ACTIVE TASK ===</text>
<text xml:space="preserve" text-anchor="middle" x="923.99" y="-61.58" font-family="Helvetica,sans-Serif" font-size="14.00">{</text>
<text xml:space="preserve" text-anchor="middle" x="923.99" y="-45.83" font-family="Helvetica,sans-Serif" font-size="14.00"> &#39;instruction&#39;: &#39;F ...[+11]</text>
</g>
<!-- a0&#45;&gt;o0 -->
<g id="edge3" class="edge">
<title>a0&#45;&gt;o0</title>
<path fill="none" stroke="#94a3b8" d="M765.35,-67C783.26,-67 802.59,-67 821.37,-67"/>
<polygon fill="#94a3b8" stroke="#94a3b8" points="821.15,-70.5 831.15,-67 821.15,-63.5 821.15,-70.5"/>
<text xml:space="preserve" text-anchor="middle" x="798.99" y="-70.2" font-family="Times New Roman,serif" font-size="14.00">yields</text>
</g>
<!-- s1 -->
<g id="node5" class="node">
<title>s1</title>
<polygon fill="#e2e8f0" stroke="black" points="1225.87,-85 1107.12,-85 1107.12,-49 1225.87,-49 1225.87,-85"/>
<text xml:space="preserve" text-anchor="middle" x="1166.49" y="-61.58" font-family="Helvetica,sans-Serif" font-size="14.00">s1: S1: grounded</text>
</g>
<!-- o0&#45;&gt;s1 -->
<g id="edge4" class="edge">
<title>o0&#45;&gt;s1</title>
<path fill="none" stroke="#64748b" d="M1015.23,-67C1041.81,-67 1070.49,-67 1095.59,-67"/>
<polygon fill="#64748b" stroke="#64748b" points="1095.34,-70.5 1105.34,-67 1095.34,-63.5 1095.34,-70.5"/>
<text xml:space="preserve" text-anchor="middle" x="1060.99" y="-70.2" font-family="Times New Roman,serif" font-size="14.00">transitions</text>
</g>
<!-- d1 -->
<g id="node6" class="node">
<title>d1</title>
<ellipse fill="#e2e8f0" stroke="black" cx="1511.61" cy="-67" rx="209.25" ry="18"/>
<text xml:space="preserve" text-anchor="middle" x="1511.61" y="-61.58" font-family="Helvetica,sans-Serif" font-size="14.00">d1: Let me check the spotify login signature ...[+1]</text>
</g>
<!-- s1&#45;&gt;d1 -->
<g id="edge5" class="edge">
<title>s1&#45;&gt;d1</title>
<path fill="none" stroke="#94a3b8" d="M1226.09,-67C1245.01,-67 1267.23,-67 1290.77,-67"/>
<polygon fill="#94a3b8" stroke="#94a3b8" points="1290.53,-70.5 1300.53,-67 1290.53,-63.5 1290.53,-70.5"/>
<text xml:space="preserve" text-anchor="middle" x="1264.12" y="-70.2" font-family="Times New Roman,serif" font-size="14.00">decides</text>
</g>
<!-- a1 -->
<g id="node7" class="node">
<title>a1</title>
<polygon fill="#e2e8f0" stroke="black" points="2120.86,-85 1777.86,-85 1777.86,-49 2126.86,-49 2126.86,-79 2120.86,-85"/>
<polyline fill="none" stroke="black" points="2120.86,-85 2120.86,-79"/>
<polyline fill="none" stroke="black" points="2126.86,-79 2120.86,-79"/>
<text xml:space="preserve" text-anchor="middle" x="1952.36" y="-61.58" font-family="Helvetica,sans-Serif" font-size="14.00">a1: print(apis.api_docs.show_api_doc(app_nam ...[+23]</text>
</g>
<!-- d1&#45;&gt;a1 -->
<g id="edge6" class="edge">
<title>d1&#45;&gt;a1</title>
<path fill="none" stroke="#94a3b8" d="M1721.06,-67C1736.13,-67 1751.26,-67 1766.18,-67"/>
<polygon fill="#94a3b8" stroke="#94a3b8" points="1766.02,-70.5 1776.02,-67 1766.02,-63.5 1766.02,-70.5"/>
<text xml:space="preserve" text-anchor="middle" x="1749.36" y="-70.2" font-family="Times New Roman,serif" font-size="14.00">acts</text>
</g>
<!-- o1 -->
<g id="node8" class="node">
<title>o1</title>
<polygon fill="#bbf7d0" stroke="black" points="2341.61,-94.62 2195.11,-94.62 2195.11,-39.38 2341.61,-39.38 2341.61,-94.62"/>
<text xml:space="preserve" text-anchor="middle" x="2268.36" y="-77.33" font-family="Helvetica,sans-Serif" font-size="14.00">o1: {</text>
<text xml:space="preserve" text-anchor="middle" x="2268.36" y="-61.58" font-family="Helvetica,sans-Serif" font-size="14.00"> &#39;app_name&#39;: &#39;spotify&#39;,</text>
<text xml:space="preserve" text-anchor="middle" x="2268.36" y="-45.83" font-family="Helvetica,sans-Serif" font-size="14.00"> &#39;api_name&#39;: &#39; ...[+10]</text>
</g>
<!-- a1&#45;&gt;o1 -->
<g id="edge7" class="edge">
<title>a1&#45;&gt;o1</title>
<path fill="none" stroke="#94a3b8" d="M2127.35,-67C2146.85,-67 2165.99,-67 2183.56,-67"/>
<polygon fill="#94a3b8" stroke="#94a3b8" points="2183.36,-70.5 2193.36,-67 2183.36,-63.5 2183.36,-70.5"/>
<text xml:space="preserve" text-anchor="middle" x="2160.98" y="-70.2" font-family="Times New Roman,serif" font-size="14.00">yields</text>
</g>
<!-- s2 -->
<g id="node9" class="node">
<title>s2</title>
<polygon fill="#e2e8f0" stroke="black" points="2563.11,-85 2433.86,-85 2433.86,-49 2563.11,-49 2563.11,-85"/>
<text xml:space="preserve" text-anchor="middle" x="2498.48" y="-61.58" font-family="Helvetica,sans-Serif" font-size="14.00">s2: S2: progressed</text>
</g>
<!-- o1&#45;&gt;s2 -->
<g id="edge8" class="edge">
<title>o1&#45;&gt;s2</title>
<path fill="none" stroke="#64748b" d="M2341.85,-67C2367.54,-67 2396.48,-67 2422.38,-67"/>
<polygon fill="#64748b" stroke="#64748b" points="2422.14,-70.5 2432.14,-67 2422.14,-63.5 2422.14,-70.5"/>
<text xml:space="preserve" text-anchor="middle" x="2387.73" y="-70.2" font-family="Times New Roman,serif" font-size="14.00">transitions</text>
</g>
<!-- d2 -->
<g id="node10" class="node">
<title>d2</title>
<ellipse fill="#e2e8f0" stroke="black" cx="2761.76" cy="-67" rx="122.15" ry="39.24"/>
<text xml:space="preserve" text-anchor="middle" x="2761.76" y="-77.45" font-family="Helvetica,sans-Serif" font-size="14.00">d2: user Execution output:</text>
<text xml:space="preserve" text-anchor="middle" x="2761.76" y="-45.7" font-family="Helvetica,sans-Serif" font-size="14.00">Continue with yo ...[+30]</text>
</g>
<!-- s2&#45;&gt;d2 -->
<g id="edge9" class="edge">
<title>s2&#45;&gt;d2</title>
<path fill="none" stroke="#94a3b8" d="M2563.4,-67C2583.04,-67 2605.44,-67 2627.92,-67"/>
<polygon fill="#94a3b8" stroke="#94a3b8" points="2627.8,-70.5 2637.8,-67 2627.8,-63.5 2627.8,-70.5"/>
<text xml:space="preserve" text-anchor="middle" x="2601.36" y="-70.2" font-family="Times New Roman,serif" font-size="14.00">decides</text>
</g>
<!-- a2 -->
<g id="node11" class="node">
<title>a2</title>
<polygon fill="#e2e8f0" stroke="black" points="3091.16,-85 2940.91,-85 2940.91,-49 3097.16,-49 3097.16,-79 3091.16,-85"/>
<polyline fill="none" stroke="black" points="3091.16,-85 3091.16,-79"/>
<polyline fill="none" stroke="black" points="3097.16,-79 3091.16,-79"/>
<text xml:space="preserve" text-anchor="middle" x="3019.04" y="-61.58" font-family="Helvetica,sans-Serif" font-size="14.00">a2: print(access_token)</text>
</g>
<!-- d2&#45;&gt;a2 -->
<g id="edge10" class="edge">
<title>d2&#45;&gt;a2</title>
<path fill="none" stroke="#94a3b8" d="M2884.05,-67C2899.42,-67 2914.92,-67 2929.65,-67"/>
<polygon fill="#94a3b8" stroke="#94a3b8" points="2929.23,-70.5 2939.23,-67 2929.23,-63.5 2929.23,-70.5"/>
<text xml:space="preserve" text-anchor="middle" x="2912.41" y="-70.2" font-family="Times New Roman,serif" font-size="14.00">acts</text>
</g>
<!-- o2 -->
<g id="node12" class="node">
<title>o2</title>
<polygon fill="#fecaca" stroke="black" points="3306.66,-85 3165.41,-85 3165.41,-49 3306.66,-49 3306.66,-85"/>
<text xml:space="preserve" text-anchor="middle" x="3236.04" y="-61.58" font-family="Helvetica,sans-Serif" font-size="14.00">o2: error: NameError</text>
</g>
<!-- a2&#45;&gt;o2 -->
<g id="edge11" class="edge">
<title>a2&#45;&gt;o2</title>
<path fill="none" stroke="#94a3b8" d="M3097.66,-67C3115.89,-67 3135.36,-67 3153.75,-67"/>
<polygon fill="#94a3b8" stroke="#94a3b8" points="3153.52,-70.5 3163.52,-67 3153.52,-63.5 3153.52,-70.5"/>
<text xml:space="preserve" text-anchor="middle" x="3131.29" y="-70.2" font-family="Times New Roman,serif" font-size="14.00">yields</text>
</g>
<!-- s3 -->
<g id="node13" class="node">
<title>s3</title>
<polygon fill="#fecaca" stroke="black" points="3489.16,-85 3398.91,-85 3398.91,-49 3489.16,-49 3489.16,-85"/>
<text xml:space="preserve" text-anchor="middle" x="3444.04" y="-61.58" font-family="Helvetica,sans-Serif" font-size="14.00">s3: S3: error</text>
</g>
<!-- o2&#45;&gt;s3 -->
<g id="edge12" class="edge">
<title>o2&#45;&gt;s3</title>
<path fill="none" stroke="#64748b" d="M3307.07,-67C3333.25,-67 3362.61,-67 3387.32,-67"/>
<polygon fill="#64748b" stroke="#64748b" points="3387.17,-70.5 3397.17,-67 3387.17,-63.5 3387.17,-70.5"/>
<text xml:space="preserve" text-anchor="middle" x="3352.79" y="-70.2" font-family="Times New Roman,serif" font-size="14.00">transitions</text>
</g>
<!-- d3 -->
<g id="node14" class="node">
<title>d3</title>
<ellipse fill="#e2e8f0" stroke="black" cx="3784.39" cy="-67" rx="218.73" ry="18"/>
<text xml:space="preserve" text-anchor="middle" x="3784.39" y="-61.58" font-family="Helvetica,sans-Serif" font-size="14.00">d3: The previous block failed because the as ...[+29]</text>
</g>
<!-- s3&#45;&gt;d3 -->
<g id="edge13" class="edge">
<title>s3&#45;&gt;d3</title>
<path fill="none" stroke="#94a3b8" d="M3489.62,-67C3507.67,-67 3529.97,-67 3554.15,-67"/>
<polygon fill="#94a3b8" stroke="#94a3b8" points="3553.87,-70.5 3563.87,-67 3553.87,-63.5 3553.87,-70.5"/>
<text xml:space="preserve" text-anchor="middle" x="3527.41" y="-70.2" font-family="Times New Roman,serif" font-size="14.00">decides</text>
</g>
<!-- a3 -->
<g id="node15" class="node">
<title>a3</title>
<polygon fill="#e2e8f0" stroke="black" points="4380.62,-85 4060.12,-85 4060.12,-49 4386.62,-49 4386.62,-79 4380.62,-85"/>
<polyline fill="none" stroke="black" points="4380.62,-85 4380.62,-79"/>
<polyline fill="none" stroke="black" points="4386.62,-79 4380.62,-79"/>
<text xml:space="preserve" text-anchor="middle" x="4223.37" y="-61.58" font-family="Helvetica,sans-Serif" font-size="14.00">a3: login = apis.spotify.login(username=&#39;ang ...[+23]</text>
</g>
<!-- d3&#45;&gt;a3 -->
<g id="edge14" class="edge">
<title>d3&#45;&gt;a3</title>
<path fill="none" stroke="#94a3b8" d="M4003.56,-67C4018.62,-67 4033.68,-67 4048.46,-67"/>
<polygon fill="#94a3b8" stroke="#94a3b8" points="4048.19,-70.5 4058.19,-67 4048.19,-63.5 4048.19,-70.5"/>
<text xml:space="preserve" text-anchor="middle" x="4031.62" y="-70.2" font-family="Times New Roman,serif" font-size="14.00">acts</text>
</g>
<!-- o3 -->
<g id="node16" class="node">
<title>o3</title>
<polygon fill="#bbf7d0" stroke="black" points="4515.87,-85 4454.87,-85 4454.87,-49 4515.87,-49 4515.87,-85"/>
<text xml:space="preserve" text-anchor="middle" x="4485.37" y="-61.58" font-family="Helvetica,sans-Serif" font-size="14.00">o3: 159</text>
</g>
<!-- a3&#45;&gt;o3 -->
<g id="edge15" class="edge">
<title>a3&#45;&gt;o3</title>
<path fill="none" stroke="#94a3b8" d="M4386.81,-67C4407.63,-67 4427.26,-67 4443.38,-67"/>
<polygon fill="#94a3b8" stroke="#94a3b8" points="4442.94,-70.5 4452.94,-67 4442.94,-63.5 4442.94,-70.5"/>
<text xml:space="preserve" text-anchor="middle" x="4420.74" y="-70.2" font-family="Times New Roman,serif" font-size="14.00">yields</text>
</g>
<!-- s4 -->
<g id="node17" class="node">
<title>s4</title>
<polygon fill="#e2e8f0" stroke="black" points="4737.37,-85 4608.12,-85 4608.12,-49 4737.37,-49 4737.37,-85"/>
<text xml:space="preserve" text-anchor="middle" x="4672.74" y="-61.58" font-family="Helvetica,sans-Serif" font-size="14.00">s4: S4: progressed</text>
</g>
<!-- o3&#45;&gt;s4 -->
<g id="edge16" class="edge">
<title>o3&#45;&gt;s4</title>
<path fill="none" stroke="#64748b" d="M4516.15,-67C4537.83,-67 4568.2,-67 4596.36,-67"/>
<polygon fill="#64748b" stroke="#64748b" points="4596.33,-70.5 4606.33,-67 4596.33,-63.5 4596.33,-70.5"/>
<text xml:space="preserve" text-anchor="middle" x="4561.99" y="-70.2" font-family="Times New Roman,serif" font-size="14.00">transitions</text>
</g>
<!-- d4 -->
<g id="node18" class="node">
<title>d4</title>
<ellipse fill="#e2e8f0" stroke="black" cx="5031.6" cy="-67" rx="217.73" ry="18"/>
<text xml:space="preserve" text-anchor="middle" x="5031.6" y="-61.58" font-family="Helvetica,sans-Serif" font-size="14.00">d4: Now let me discover the relevant APIs fo ...[+29]</text>
</g>
<!-- s4&#45;&gt;d4 -->
<g id="edge17" class="edge">
<title>s4&#45;&gt;d4</title>
<path fill="none" stroke="#94a3b8" d="M4737.54,-67C4756.66,-67 4778.83,-67 4802.25,-67"/>
<polygon fill="#94a3b8" stroke="#94a3b8" points="4801.95,-70.5 4811.95,-67 4801.95,-63.5 4801.95,-70.5"/>
<text xml:space="preserve" text-anchor="middle" x="4775.62" y="-70.2" font-family="Times New Roman,serif" font-size="14.00">decides</text>
</g>
<!-- a4 -->
<g id="node19" class="node">
<title>a4</title>
<polygon fill="#e2e8f0" stroke="black" points="5631.32,-85 5306.32,-85 5306.32,-49 5637.32,-49 5637.32,-79 5631.32,-85"/>
<polyline fill="none" stroke="black" points="5631.32,-85 5631.32,-79"/>
<polyline fill="none" stroke="black" points="5637.32,-79 5631.32,-79"/>
<text xml:space="preserve" text-anchor="middle" x="5471.82" y="-61.58" font-family="Helvetica,sans-Serif" font-size="14.00">a4: print(apis.api_docs.show_api_description ...[+23]</text>
</g>
<!-- d4&#45;&gt;a4 -->
<g id="edge18" class="edge">
<title>d4&#45;&gt;a4</title>
<path fill="none" stroke="#94a3b8" d="M5249.78,-67C5264.88,-67 5279.98,-67 5294.81,-67"/>
<polygon fill="#94a3b8" stroke="#94a3b8" points="5294.58,-70.5 5304.58,-67 5294.58,-63.5 5294.58,-70.5"/>
<text xml:space="preserve" text-anchor="middle" x="5277.82" y="-70.2" font-family="Times New Roman,serif" font-size="14.00">acts</text>
</g>
<!-- o4 -->
<g id="node20" class="node">
<title>o4</title>
<polygon fill="#bbf7d0" stroke="black" points="5873.07,-102.5 5705.57,-102.5 5705.57,-31.5 5873.07,-31.5 5873.07,-102.5"/>
<text xml:space="preserve" text-anchor="middle" x="5789.32" y="-85.2" font-family="Helvetica,sans-Serif" font-size="14.00">o4: [</text>
<text xml:space="preserve" text-anchor="middle" x="5789.32" y="-69.45" font-family="Helvetica,sans-Serif" font-size="14.00"> {</text>
<text xml:space="preserve" text-anchor="middle" x="5789.32" y="-53.7" font-family="Helvetica,sans-Serif" font-size="14.00"> &#160;&#39;name&#39;: &#39;show_account&#39;,</text>
<text xml:space="preserve" text-anchor="middle" x="5789.32" y="-37.95" font-family="Helvetica,sans-Serif" font-size="14.00"> &#160;&#39;descri ...[+11]</text>
</g>
<!-- a4&#45;&gt;o4 -->
<g id="edge19" class="edge">
<title>a4&#45;&gt;o4</title>
<path fill="none" stroke="#94a3b8" d="M5637.5,-67C5656.75,-67 5675.85,-67 5693.67,-67"/>
<polygon fill="#94a3b8" stroke="#94a3b8" points="5693.67,-70.5 5703.67,-67 5693.67,-63.5 5693.67,-70.5"/>
<text xml:space="preserve" text-anchor="middle" x="5671.45" y="-70.2" font-family="Times New Roman,serif" font-size="14.00">yields</text>
</g>
<!-- s5 -->
<g id="node21" class="node">
<title>s5</title>
<polygon fill="#e2e8f0" stroke="black" points="6094.57,-85 5965.32,-85 5965.32,-49 6094.57,-49 6094.57,-85"/>
<text xml:space="preserve" text-anchor="middle" x="6029.95" y="-61.58" font-family="Helvetica,sans-Serif" font-size="14.00">s5: S5: progressed</text>
</g>
<!-- o4&#45;&gt;s5 -->
<g id="edge20" class="edge">
<title>o4&#45;&gt;s5</title>
<path fill="none" stroke="#64748b" d="M5873.45,-67C5899.46,-67 5928,-67 5953.46,-67"/>
<polygon fill="#64748b" stroke="#64748b" points="5953.4,-70.5 5963.4,-67 5953.4,-63.5 5953.4,-70.5"/>
<text xml:space="preserve" text-anchor="middle" x="5919.2" y="-70.2" font-family="Times New Roman,serif" font-size="14.00">transitions</text>
</g>
<!-- d5 -->
<g id="node22" class="node">
<title>d5</title>
<ellipse fill="#e2e8f0" stroke="black" cx="6391.3" cy="-67" rx="220.22" ry="18"/>
<text xml:space="preserve" text-anchor="middle" x="6391.3" y="-61.58" font-family="Helvetica,sans-Serif" font-size="14.00">d5: Let me search for the relevant APIs more ...[+14]</text>
</g>
<!-- s5&#45;&gt;d5 -->
<g id="edge21" class="edge">
<title>s5&#45;&gt;d5</title>
<path fill="none" stroke="#94a3b8" d="M6094.78,-67C6113.93,-67 6136.14,-67 6159.62,-67"/>
<polygon fill="#94a3b8" stroke="#94a3b8" points="6159.36,-70.5 6169.36,-67 6159.36,-63.5 6159.36,-70.5"/>
<text xml:space="preserve" text-anchor="middle" x="6132.82" y="-70.2" font-family="Times New Roman,serif" font-size="14.00">decides</text>
</g>
<!-- a5 -->
<g id="node23" class="node">
<title>a5</title>
<polygon fill="#e2e8f0" stroke="black" points="6962.02,-85 6668.52,-85 6668.52,-49 6968.02,-49 6968.02,-79 6962.02,-85"/>
<polyline fill="none" stroke="black" points="6962.02,-85 6962.02,-79"/>
<polyline fill="none" stroke="black" points="6968.02,-79 6962.02,-79"/>
<text xml:space="preserve" text-anchor="middle" x="6818.27" y="-61.58" font-family="Helvetica,sans-Serif" font-size="14.00">a5: for q in [&#39;liked songs&#39;, &#39;liked albums&#39;, ...[+23]</text>
</g>
<!-- d5&#45;&gt;a5 -->
<g id="edge22" class="edge">
<title>d5&#45;&gt;a5</title>
<path fill="none" stroke="#94a3b8" d="M6611.94,-67C6627.13,-67 6642.27,-67 6657.04,-67"/>
<polygon fill="#94a3b8" stroke="#94a3b8" points="6656.76,-70.5 6666.76,-67 6656.76,-63.5 6656.76,-70.5"/>
<text xml:space="preserve" text-anchor="middle" x="6640.02" y="-70.2" font-family="Times New Roman,serif" font-size="14.00">acts</text>
</g>
<!-- o5 -->
<g id="node24" class="node">
<title>o5</title>
<polygon fill="#bbf7d0" stroke="black" points="7215.02,-102.5 7036.27,-102.5 7036.27,-31.5 7215.02,-31.5 7215.02,-102.5"/>
<text xml:space="preserve" text-anchor="middle" x="7125.65" y="-85.2" font-family="Helvetica,sans-Serif" font-size="14.00">o5: == liked songs</text>
<text xml:space="preserve" text-anchor="middle" x="7125.65" y="-69.45" font-family="Helvetica,sans-Serif" font-size="14.00">[</text>
<text xml:space="preserve" text-anchor="middle" x="7125.65" y="-53.7" font-family="Helvetica,sans-Serif" font-size="14.00"> {</text>
<text xml:space="preserve" text-anchor="middle" x="7125.65" y="-37.95" font-family="Helvetica,sans-Serif" font-size="14.00"> &#160;&#39;app_name&#39;: &#39;spoti ...[+12]</text>
</g>
<!-- a5&#45;&gt;o5 -->
<g id="edge23" class="edge">
<title>a5&#45;&gt;o5</title>
<path fill="none" stroke="#94a3b8" d="M6968.38,-67C6987.47,-67 7006.64,-67 7024.69,-67"/>
<polygon fill="#94a3b8" stroke="#94a3b8" points="7024.56,-70.5 7034.56,-67 7024.55,-63.5 7024.56,-70.5"/>
<text xml:space="preserve" text-anchor="middle" x="7002.15" y="-70.2" font-family="Times New Roman,serif" font-size="14.00">yields</text>
</g>
<!-- s6 -->
<g id="node25" class="node">
<title>s6</title>
<polygon fill="#e2e8f0" stroke="black" points="7436.52,-85 7307.27,-85 7307.27,-49 7436.52,-49 7436.52,-85"/>
<text xml:space="preserve" text-anchor="middle" x="7371.9" y="-61.58" font-family="Helvetica,sans-Serif" font-size="14.00">s6: S6: progressed</text>
</g>
<!-- o5&#45;&gt;s6 -->
<g id="edge24" class="edge">
<title>o5&#45;&gt;s6</title>
<path fill="none" stroke="#64748b" d="M7215.52,-67C7241.78,-67 7270.26,-67 7295.57,-67"/>
<polygon fill="#64748b" stroke="#64748b" points="7295.45,-70.5 7305.45,-67 7295.45,-63.5 7295.45,-70.5"/>
<text xml:space="preserve" text-anchor="middle" x="7261.15" y="-70.2" font-family="Times New Roman,serif" font-size="14.00">transitions</text>
</g>
<!-- d6 -->
<g id="node26" class="node">
<title>d6</title>
<ellipse fill="#e2e8f0" stroke="black" cx="7550.61" cy="-67" rx="37.59" ry="18"/>
<text xml:space="preserve" text-anchor="middle" x="7550.61" y="-61.58" font-family="Helvetica,sans-Serif" font-size="14.00">d6: act</text>
</g>
<!-- s6&#45;&gt;d6 -->
<g id="edge25" class="edge">
<title>s6&#45;&gt;d6</title>
<path fill="none" stroke="#94a3b8" d="M7436.94,-67C7458.25,-67 7481.59,-67 7501.48,-67"/>
<polygon fill="#94a3b8" stroke="#94a3b8" points="7501.24,-70.5 7511.24,-67 7501.24,-63.5 7501.24,-70.5"/>
<text xml:space="preserve" text-anchor="middle" x="7474.77" y="-70.2" font-family="Times New Roman,serif" font-size="14.00">decides</text>
</g>
<!-- a6 -->
<g id="node27" class="node">
<title>a6</title>
<polygon fill="#e2e8f0" stroke="black" points="7988.2,-85 7645.2,-85 7645.2,-49 7994.2,-49 7994.2,-79 7988.2,-85"/>
<polyline fill="none" stroke="black" points="7988.2,-85 7988.2,-79"/>
<polyline fill="none" stroke="black" points="7994.2,-79 7988.2,-79"/>
<text xml:space="preserve" text-anchor="middle" x="7819.7" y="-61.58" font-family="Helvetica,sans-Serif" font-size="14.00">a6: print(apis.api_docs.show_api_doc(app_nam ...[+23]</text>
</g>
<!-- d6&#45;&gt;a6 -->
<g id="edge26" class="edge">
<title>d6&#45;&gt;a6</title>
<path fill="none" stroke="#94a3b8" d="M7588.47,-67C7601.38,-67 7616.89,-67 7633.69,-67"/>
<polygon fill="#94a3b8" stroke="#94a3b8" points="7633.38,-70.5 7643.38,-67 7633.38,-63.5 7633.38,-70.5"/>
<text xml:space="preserve" text-anchor="middle" x="7616.7" y="-70.2" font-family="Times New Roman,serif" font-size="14.00">acts</text>
</g>
<!-- o6 -->
<g id="node28" class="node">
<title>o6</title>
<polygon fill="#bbf7d0" stroke="black" points="8208.95,-94.62 8062.45,-94.62 8062.45,-39.38 8208.95,-39.38 8208.95,-94.62"/>
<text xml:space="preserve" text-anchor="middle" x="8135.7" y="-77.33" font-family="Helvetica,sans-Serif" font-size="14.00">o6: {</text>
<text xml:space="preserve" text-anchor="middle" x="8135.7" y="-61.58" font-family="Helvetica,sans-Serif" font-size="14.00"> &#39;app_name&#39;: &#39;spotify&#39;,</text>
<text xml:space="preserve" text-anchor="middle" x="8135.7" y="-45.83" font-family="Helvetica,sans-Serif" font-size="14.00"> &#39;api_name&#39;: &#39; ...[+11]</text>
</g>
<!-- a6&#45;&gt;o6 -->
<g id="edge27" class="edge">
<title>a6&#45;&gt;o6</title>
<path fill="none" stroke="#94a3b8" d="M7994.69,-67C8014.19,-67 8033.34,-67 8050.91,-67"/>
<polygon fill="#94a3b8" stroke="#94a3b8" points="8050.7,-70.5 8060.7,-67 8050.7,-63.5 8050.7,-70.5"/>
<text xml:space="preserve" text-anchor="middle" x="8028.33" y="-70.2" font-family="Times New Roman,serif" font-size="14.00">yields</text>
</g>
<!-- s7 -->
<g id="node29" class="node">
<title>s7</title>
<polygon fill="#e2e8f0" stroke="black" points="8430.45,-85 8301.2,-85 8301.2,-49 8430.45,-49 8430.45,-85"/>
<text xml:space="preserve" text-anchor="middle" x="8365.83" y="-61.58" font-family="Helvetica,sans-Serif" font-size="14.00">s7: S7: progressed</text>
</g>
<!-- o6&#45;&gt;s7 -->
<g id="edge28" class="edge">
<title>o6&#45;&gt;s7</title>
<path fill="none" stroke="#64748b" d="M8209.2,-67C8234.88,-67 8263.82,-67 8289.72,-67"/>
<polygon fill="#64748b" stroke="#64748b" points="8289.48,-70.5 8299.48,-67 8289.48,-63.5 8289.48,-70.5"/>
<text xml:space="preserve" text-anchor="middle" x="8255.08" y="-70.2" font-family="Times New Roman,serif" font-size="14.00">transitions</text>
</g>
<!-- d7 -->
<g id="node30" class="node">
<title>d7</title>
<ellipse fill="#e2e8f0" stroke="black" cx="8544.54" cy="-67" rx="37.59" ry="18"/>
<text xml:space="preserve" text-anchor="middle" x="8544.54" y="-61.58" font-family="Helvetica,sans-Serif" font-size="14.00">d7: act</text>
</g>
<!-- s7&#45;&gt;d7 -->
<g id="edge29" class="edge">
<title>s7&#45;&gt;d7</title>
<path fill="none" stroke="#94a3b8" d="M8430.88,-67C8452.18,-67 8475.53,-67 8495.42,-67"/>
<polygon fill="#94a3b8" stroke="#94a3b8" points="8495.17,-70.5 8505.17,-67 8495.17,-63.5 8495.17,-70.5"/>
<text xml:space="preserve" text-anchor="middle" x="8468.7" y="-70.2" font-family="Times New Roman,serif" font-size="14.00">decides</text>
</g>
<!-- a7 -->
<g id="node31" class="node">
<title>a7</title>
<polygon fill="#e2e8f0" stroke="black" points="8982.13,-85 8639.13,-85 8639.13,-49 8988.13,-49 8988.13,-79 8982.13,-85"/>
<polyline fill="none" stroke="black" points="8982.13,-85 8982.13,-79"/>
<polyline fill="none" stroke="black" points="8988.13,-79 8982.13,-79"/>
<text xml:space="preserve" text-anchor="middle" x="8813.63" y="-61.58" font-family="Helvetica,sans-Serif" font-size="14.00">a7: print(apis.api_docs.show_api_doc(app_nam ...[+23]</text>
</g>
<!-- d7&#45;&gt;a7 -->
<g id="edge30" class="edge">
<title>d7&#45;&gt;a7</title>
<path fill="none" stroke="#94a3b8" d="M8582.4,-67C8595.31,-67 8610.83,-67 8627.62,-67"/>
<polygon fill="#94a3b8" stroke="#94a3b8" points="8627.32,-70.5 8637.32,-67 8627.32,-63.5 8627.32,-70.5"/>
<text xml:space="preserve" text-anchor="middle" x="8610.63" y="-70.2" font-family="Times New Roman,serif" font-size="14.00">acts</text>
</g>
<!-- o7 -->
<g id="node32" class="node">
<title>o7</title>
<polygon fill="#bbf7d0" stroke="black" points="9155.63,-110.38 9056.38,-110.38 9056.38,-23.62 9155.63,-23.62 9155.63,-110.38"/>
<text xml:space="preserve" text-anchor="middle" x="9106.01" y="-93.08" font-family="Helvetica,sans-Serif" font-size="14.00">o7: {</text>
<text xml:space="preserve" text-anchor="middle" x="9106.01" y="-77.33" font-family="Helvetica,sans-Serif" font-size="14.00"> &#39;success&#39;: [</text>
<text xml:space="preserve" text-anchor="middle" x="9106.01" y="-61.58" font-family="Helvetica,sans-Serif" font-size="14.00"> &#160;{</text>
<text xml:space="preserve" text-anchor="middle" x="9106.01" y="-45.83" font-family="Helvetica,sans-Serif" font-size="14.00"> &#160;&#160;&#39;song_id&#39;: 1,</text>
<text xml:space="preserve" text-anchor="middle" x="9106.01" y="-30.07" font-family="Helvetica,sans-Serif" font-size="14.00"> &#160;&#160;&#160;...[+10]</text>
</g>
<!-- a7&#45;&gt;o7 -->
<g id="edge31" class="edge">
<title>a7&#45;&gt;o7</title>
<path fill="none" stroke="#94a3b8" d="M8988.58,-67C9008.6,-67 9027.86,-67 9044.75,-67"/>
<polygon fill="#94a3b8" stroke="#94a3b8" points="9044.54,-70.5 9054.54,-67 9044.54,-63.5 9044.54,-70.5"/>
<text xml:space="preserve" text-anchor="middle" x="9022.26" y="-70.2" font-family="Times New Roman,serif" font-size="14.00">yields</text>
</g>
<!-- s8 -->
<g id="node33" class="node">
<title>s8</title>
<polygon fill="#e2e8f0" stroke="black" points="9377.13,-85 9247.88,-85 9247.88,-49 9377.13,-49 9377.13,-85"/>
<text xml:space="preserve" text-anchor="middle" x="9312.51" y="-61.58" font-family="Helvetica,sans-Serif" font-size="14.00">s8: S8: progressed</text>
</g>
<!-- o7&#45;&gt;s8 -->
<g id="edge32" class="edge">
<title>o7&#45;&gt;s8</title>
<path fill="none" stroke="#64748b" d="M9155.99,-67C9179.98,-67 9209.39,-67 9236.16,-67"/>
<polygon fill="#64748b" stroke="#64748b" points="9235.93,-70.5 9245.93,-67 9235.93,-63.5 9235.93,-70.5"/>
<text xml:space="preserve" text-anchor="middle" x="9201.76" y="-70.2" font-family="Times New Roman,serif" font-size="14.00">transitions</text>
</g>
<!-- d8 -->
<g id="node34" class="node">
<title>d8</title>
<ellipse fill="#e2e8f0" stroke="black" cx="9663.38" cy="-67" rx="209.74" ry="18"/>
<text xml:space="preserve" text-anchor="middle" x="9663.38" y="-61.58" font-family="Helvetica,sans-Serif" font-size="14.00">d8: Both responses include `artists` with id ...[+29]</text>
</g>
<!-- s8&#45;&gt;d8 -->
<g id="edge33" class="edge">
<title>s8&#45;&gt;d8</title>
<path fill="none" stroke="#94a3b8" d="M9377.5,-67C9396.52,-67 9418.51,-67 9441.68,-67"/>
<polygon fill="#94a3b8" stroke="#94a3b8" points="9441.62,-70.5 9451.62,-67 9441.62,-63.5 9441.62,-70.5"/>
<text xml:space="preserve" text-anchor="middle" x="9415.38" y="-70.2" font-family="Times New Roman,serif" font-size="14.00">decides</text>
</g>
<!-- a8 -->
<g id="node35" class="node">
<title>a8</title>
<polygon fill="#e2e8f0" stroke="black" points="10057.12,-85 9930.12,-85 9930.12,-49 10063.12,-49 10063.12,-79 10057.12,-85"/>
<polyline fill="none" stroke="black" points="10057.12,-85 10057.12,-79"/>
<polyline fill="none" stroke="black" points="10063.12,-79 10057.12,-79"/>
<text xml:space="preserve" text-anchor="middle" x="9996.62" y="-61.58" font-family="Helvetica,sans-Serif" font-size="14.00">a8: liked_songs = []</text>
</g>
<!-- d8&#45;&gt;a8 -->
<g id="edge34" class="edge">
<title>d8&#45;&gt;a8</title>
<path fill="none" stroke="#94a3b8" d="M9873.22,-67C9889.23,-67 9904.65,-67 9918.84,-67"/>
<polygon fill="#94a3b8" stroke="#94a3b8" points="9918.43,-70.5 9928.43,-67 9918.43,-63.5 9918.43,-70.5"/>
<text xml:space="preserve" text-anchor="middle" x="9901.62" y="-70.2" font-family="Times New Roman,serif" font-size="14.00">acts</text>
</g>
<!-- o8 -->
<g id="node36" class="node">
<title>o8</title>
<polygon fill="#bbf7d0" stroke="black" points="10291.37,-85 10131.37,-85 10131.37,-49 10291.37,-49 10291.37,-85"/>
<text xml:space="preserve" text-anchor="middle" x="10211.37" y="-61.58" font-family="Helvetica,sans-Serif" font-size="14.00">o8: songs: 18 albums: 6</text>
</g>
<!-- a8&#45;&gt;o8 -->
<g id="edge35" class="edge">
<title>a8&#45;&gt;o8</title>
<path fill="none" stroke="#94a3b8" d="M10063.48,-67C10081.25,-67 10100.79,-67 10119.66,-67"/>
<polygon fill="#94a3b8" stroke="#94a3b8" points="10119.48,-70.5 10129.48,-67 10119.48,-63.5 10119.48,-70.5"/>
<text xml:space="preserve" text-anchor="middle" x="10097.25" y="-70.2" font-family="Times New Roman,serif" font-size="14.00">yields</text>
</g>
<!-- s9 -->
<g id="node37" class="node">
<title>s9</title>
<polygon fill="#e2e8f0" stroke="black" points="10512.87,-85 10383.62,-85 10383.62,-49 10512.87,-49 10512.87,-85"/>
<text xml:space="preserve" text-anchor="middle" x="10448.25" y="-61.58" font-family="Helvetica,sans-Serif" font-size="14.00">s9: S9: progressed</text>
</g>
<!-- o8&#45;&gt;s9 -->
<g id="edge36" class="edge">
<title>o8&#45;&gt;s9</title>
<path fill="none" stroke="#64748b" d="M10291.56,-67C10317.55,-67 10346.34,-67 10372.02,-67"/>
<polygon fill="#64748b" stroke="#64748b" points="10371.69,-70.5 10381.69,-67 10371.69,-63.5 10371.69,-70.5"/>
<text xml:space="preserve" text-anchor="middle" x="10337.5" y="-70.2" font-family="Times New Roman,serif" font-size="14.00">transitions</text>
</g>
<!-- d9 -->
<g id="node38" class="node">
<title>d9</title>
<ellipse fill="#e2e8f0" stroke="black" cx="10711.53" cy="-67" rx="122.15" ry="39.24"/>
<text xml:space="preserve" text-anchor="middle" x="10711.53" y="-77.45" font-family="Helvetica,sans-Serif" font-size="14.00">d9: user Execution output:</text>
<text xml:space="preserve" text-anchor="middle" x="10711.53" y="-45.7" font-family="Helvetica,sans-Serif" font-size="14.00">Continue with yo ...[+30]</text>
</g>
<!-- s9&#45;&gt;d9 -->
<g id="edge37" class="edge">
<title>s9&#45;&gt;d9</title>
<path fill="none" stroke="#94a3b8" d="M10513.16,-67C10532.81,-67 10555.21,-67 10577.69,-67"/>
<polygon fill="#94a3b8" stroke="#94a3b8" points="10577.56,-70.5 10587.56,-67 10577.56,-63.5 10577.56,-70.5"/>
<text xml:space="preserve" text-anchor="middle" x="10551.12" y="-70.2" font-family="Times New Roman,serif" font-size="14.00">decides</text>
</g>
<!-- a9 -->
<g id="node39" class="node">
<title>a9</title>
<polygon fill="#e2e8f0" stroke="black" points="11019.93,-85 10890.68,-85 10890.68,-49 11025.93,-49 11025.93,-79 11019.93,-85"/>
<polyline fill="none" stroke="black" points="11019.93,-85 11019.93,-79"/>
<polyline fill="none" stroke="black" points="11025.93,-79 11019.93,-79"/>
<text xml:space="preserve" text-anchor="middle" x="10958.3" y="-61.58" font-family="Helvetica,sans-Serif" font-size="14.00">a9: artist_ids = set()</text>
</g>
<!-- d9&#45;&gt;a9 -->
<g id="edge38" class="edge">
<title>d9&#45;&gt;a9</title>
<path fill="none" stroke="#94a3b8" d="M10833.84,-67C10849.21,-67 10864.6,-67 10879.04,-67"/>
<polygon fill="#94a3b8" stroke="#94a3b8" points="10878.89,-70.5 10888.89,-67 10878.89,-63.5 10878.89,-70.5"/>
<text xml:space="preserve" text-anchor="middle" x="10862.18" y="-70.2" font-family="Times New Roman,serif" font-size="14.00">acts</text>
</g>
<!-- o9 -->
<g id="node40" class="node">
<title>o9</title>
<polygon fill="#bbf7d0" stroke="black" points="11209.18,-134 11094.18,-134 11094.18,0 11209.18,0 11209.18,-134"/>
<text xml:space="preserve" text-anchor="middle" x="11151.68" y="-116.7" font-family="Helvetica,sans-Serif" font-size="14.00">o9: 20</text>
<text xml:space="preserve" text-anchor="middle" x="11151.68" y="-100.95" font-family="Helvetica,sans-Serif" font-size="14.00">[</text>
<text xml:space="preserve" text-anchor="middle" x="11151.68" y="-85.2" font-family="Helvetica,sans-Serif" font-size="14.00"> [</text>
<text xml:space="preserve" text-anchor="middle" x="11151.68" y="-69.45" font-family="Helvetica,sans-Serif" font-size="14.00"> &#160;1,</text>
<text xml:space="preserve" text-anchor="middle" x="11151.68" y="-53.7" font-family="Helvetica,sans-Serif" font-size="14.00"> &#160;&#39;Olivia Roberts&#39;</text>
<text xml:space="preserve" text-anchor="middle" x="11151.68" y="-37.95" font-family="Helvetica,sans-Serif" font-size="14.00"> ],</text>
<text xml:space="preserve" text-anchor="middle" x="11151.68" y="-22.2" font-family="Helvetica,sans-Serif" font-size="14.00"> [</text>
<text xml:space="preserve" text-anchor="middle" x="11151.68" y="-6.45" font-family="Helvetica,sans-Serif" font-size="14.00"> &#160;...[+10]</text>
</g>
<!-- a9&#45;&gt;o9 -->
<g id="edge39" class="edge">
<title>a9&#45;&gt;o9</title>
<path fill="none" stroke="#94a3b8" d="M11026.24,-67C11044.45,-67 11064.19,-67 11082.48,-67"/>
<polygon fill="#94a3b8" stroke="#94a3b8" points="11082.43,-70.5 11092.43,-67 11082.43,-63.5 11082.43,-70.5"/>
<text xml:space="preserve" text-anchor="middle" x="11060.05" y="-70.2" font-family="Times New Roman,serif" font-size="14.00">yields</text>
</g>
<!-- s10 -->
<g id="node41" class="node">
<title>s10</title>
<polygon fill="#e2e8f0" stroke="black" points="11445.68,-85 11301.43,-85 11301.43,-49 11445.68,-49 11445.68,-85"/>
<text xml:space="preserve" text-anchor="middle" x="11373.55" y="-61.58" font-family="Helvetica,sans-Serif" font-size="14.00">s10: S10: progressed</text>
</g>
<!-- o9&#45;&gt;s10 -->
<g id="edge40" class="edge">
<title>o9&#45;&gt;s10</title>
<path fill="none" stroke="#64748b" d="M11209.59,-67C11234.08,-67 11263.19,-67 11289.99,-67"/>
<polygon fill="#64748b" stroke="#64748b" points="11289.8,-70.5 11299.8,-67 11289.8,-63.5 11289.8,-70.5"/>
<text xml:space="preserve" text-anchor="middle" x="11255.3" y="-70.2" font-family="Times New Roman,serif" font-size="14.00">transitions</text>
</g>
<!-- d10 -->
<g id="node42" class="node">
<title>d10</title>
<ellipse fill="#e2e8f0" stroke="black" cx="11738.41" cy="-67" rx="216.23" ry="18"/>
<text xml:space="preserve" text-anchor="middle" x="11738.41" y="-61.58" font-family="Helvetica,sans-Serif" font-size="14.00">d10: 20 unique artists to follow. Let me chec ...[+29]</text>
</g>
<!-- s10&#45;&gt;d10 -->
<g id="edge41" class="edge">
<title>s10&#45;&gt;d10</title>
<path fill="none" stroke="#94a3b8" d="M11445.81,-67C11465.23,-67 11487.36,-67 11510.56,-67"/>
<polygon fill="#94a3b8" stroke="#94a3b8" points="11510.5,-70.5 11520.5,-67 11510.5,-63.5 11510.5,-70.5"/>
<text xml:space="preserve" text-anchor="middle" x="11483.93" y="-70.2" font-family="Times New Roman,serif" font-size="14.00">decides</text>
</g>
<!-- a10 -->
<g id="node43" class="node">
<title>a10</title>
<polygon fill="#e2e8f0" stroke="black" points="12116.14,-85 12011.64,-85 12011.64,-49 12122.14,-49 12122.14,-79 12116.14,-85"/>
<polyline fill="none" stroke="black" points="12116.14,-85 12116.14,-79"/>
<polyline fill="none" stroke="black" points="12122.14,-79 12116.14,-79"/>
<text xml:space="preserve" text-anchor="middle" x="12066.89" y="-61.58" font-family="Helvetica,sans-Serif" font-size="14.00">a10: results = {}</text>
</g>
<!-- d10&#45;&gt;a10 -->
<g id="edge42" class="edge">
<title>d10&#45;&gt;a10</title>
<path fill="none" stroke="#94a3b8" d="M11954.9,-67C11970.99,-67 11986.31,-67 12000.16,-67"/>
<polygon fill="#94a3b8" stroke="#94a3b8" points="11999.91,-70.5 12009.91,-67 11999.91,-63.5 11999.91,-70.5"/>
<text xml:space="preserve" text-anchor="middle" x="11983.14" y="-70.2" font-family="Times New Roman,serif" font-size="14.00">acts</text>
</g>
<!-- o10 -->
<g id="node44" class="node">
<title>o10</title>
<polygon fill="#bbf7d0" stroke="black" points="12503.39,-85 12190.39,-85 12190.39,-49 12503.39,-49 12503.39,-85"/>
<text xml:space="preserve" text-anchor="middle" x="12346.89" y="-61.58" font-family="Helvetica,sans-Serif" font-size="14.00">o10: 1 (&#39;Olivia Roberts&#39;, {&#39;message&#39;: &#39;Artist ...[+11]</text>
</g>
<!-- a10&#45;&gt;o10 -->
<g id="edge43" class="edge">
<title>a10&#45;&gt;o10</title>
<path fill="none" stroke="#94a3b8" d="M12122.48,-67C12139.23,-67 12158.6,-67 12178.8,-67"/>
<polygon fill="#94a3b8" stroke="#94a3b8" points="12178.58,-70.5 12188.58,-67 12178.58,-63.5 12178.58,-70.5"/>
<text xml:space="preserve" text-anchor="middle" x="12156.27" y="-70.2" font-family="Times New Roman,serif" font-size="14.00">yields</text>
</g>
<!-- s11 -->
<g id="node45" class="node">
<title>s11</title>
<polygon fill="#e2e8f0" stroke="black" points="12738.39,-85 12595.64,-85 12595.64,-49 12738.39,-49 12738.39,-85"/>
<text xml:space="preserve" text-anchor="middle" x="12667.02" y="-61.58" font-family="Helvetica,sans-Serif" font-size="14.00">s11: S11: progressed</text>
</g>
<!-- o10&#45;&gt;s11 -->
<g id="edge44" class="edge">
<title>o10&#45;&gt;s11</title>
<path fill="none" stroke="#64748b" d="M12503.69,-67C12531.42,-67 12559.27,-67 12583.89,-67"/>
<polygon fill="#64748b" stroke="#64748b" points="12583.82,-70.5 12593.82,-67 12583.82,-63.5 12583.82,-70.5"/>
<text xml:space="preserve" text-anchor="middle" x="12549.52" y="-70.2" font-family="Times New Roman,serif" font-size="14.00">transitions</text>
</g>
<!-- d11 -->
<g id="node46" class="node">
<title>d11</title>
<ellipse fill="#e2e8f0" stroke="black" cx="12981.72" cy="-67" rx="166.83" ry="18"/>
<text xml:space="preserve" text-anchor="middle" x="12981.72" y="-61.58" font-family="Helvetica,sans-Serif" font-size="14.00">d11: All 20 artists followed successfully.</text>
</g>
<!-- s11&#45;&gt;d11 -->
<g id="edge45" class="edge">
<title>s11&#45;&gt;d11</title>
<path fill="none" stroke="#94a3b8" d="M12738.58,-67C12758.24,-67 12780.53,-67 12803.42,-67"/>
<polygon fill="#94a3b8" stroke="#94a3b8" points="12803.18,-70.5 12813.18,-67 12803.18,-63.5 12803.18,-70.5"/>
<text xml:space="preserve" text-anchor="middle" x="12776.64" y="-70.2" font-family="Times New Roman,serif" font-size="14.00">decides</text>
</g>
<!-- a11 -->
<g id="node47" class="node">
<title>a11</title>
<polygon fill="#e2e8f0" stroke="black" points="13530.55,-85 13205.55,-85 13205.55,-49 13536.55,-49 13536.55,-79 13530.55,-85"/>
<polyline fill="none" stroke="black" points="13530.55,-85 13530.55,-79"/>
<polyline fill="none" stroke="black" points="13536.55,-79 13530.55,-79"/>
<text xml:space="preserve" text-anchor="middle" x="13371.05" y="-61.58" font-family="Helvetica,sans-Serif" font-size="14.00">a11: apis.supervisor.complete_task(status=&#39;su ...[+7]</text>
</g>
<!-- d11&#45;&gt;a11 -->
<g id="edge46" class="edge">
<title>d11&#45;&gt;a11</title>
<path fill="none" stroke="#94a3b8" d="M13148.95,-67C13163.83,-67 13178.93,-67 13193.89,-67"/>
<polygon fill="#94a3b8" stroke="#94a3b8" points="13193.78,-70.5 13203.78,-67 13193.78,-63.5 13193.78,-70.5"/>
<text xml:space="preserve" text-anchor="middle" x="13177.05" y="-70.2" font-family="Times New Roman,serif" font-size="14.00">acts</text>
</g>
<!-- o11 -->
<g id="node48" class="node">
<title>o11</title>
<polygon fill="#fde68a" stroke="black" points="13733.3,-85 13604.8,-85 13604.8,-49 13733.3,-49 13733.3,-85"/>
<text xml:space="preserve" text-anchor="middle" x="13669.05" y="-61.58" font-family="Helvetica,sans-Serif" font-size="14.00">o11: ok (no output)</text>
</g>
<!-- a11&#45;&gt;o11 -->
<g id="edge47" class="edge">
<title>a11&#45;&gt;o11</title>
<path fill="none" stroke="#94a3b8" d="M13536.93,-67C13556.64,-67 13575.95,-67 13593.42,-67"/>
<polygon fill="#94a3b8" stroke="#94a3b8" points="13593.12,-70.5 13603.12,-67 13593.12,-63.5 13593.12,-70.5"/>
<text xml:space="preserve" text-anchor="middle" x="13570.68" y="-70.2" font-family="Times New Roman,serif" font-size="14.00">yields</text>
</g>
<!-- s12 -->
<g id="node49" class="node">
<title>s12</title>
<polygon fill="#a7f3d0" stroke="black" points="13969.8,-85 13825.55,-85 13825.55,-49 13969.8,-49 13969.8,-85"/>
<text xml:space="preserve" text-anchor="middle" x="13897.68" y="-61.58" font-family="Helvetica,sans-Serif" font-size="14.00">s12: S12: progressed</text>
</g>
<!-- o11&#45;&gt;s12 -->
<g id="edge48" class="edge">
<title>o11&#45;&gt;s12</title>
<path fill="none" stroke="#64748b" d="M13733.78,-67C13758.64,-67 13787.47,-67 13813.9,-67"/>
<polygon fill="#64748b" stroke="#64748b" points="13813.54,-70.5 13823.54,-67 13813.54,-63.5 13813.54,-70.5"/>
<text xml:space="preserve" text-anchor="middle" x="13779.43" y="-70.2" font-family="Times New Roman,serif" font-size="14.00">transitions</text>
</g>
</g>
</svg>
